SplineFontDB: 3.2
FontName: TDATextCondensed
FullName: TDAText Condensed
FamilyName: TDAText Condensed
Weight: Regular
Copyright: Copyright (c) 2024 Dmitry Tretyakov\n\nBased on Philips SAA52XX/SAA55XX/TDA93XX IC character set:\nCopyright (c) 1993-2001 NXP Semiconductors N.V.
UComments: "TDAText teletext-styled font family based on Philips SAA52XX/SAA55XX/TDA93XX IC character set and adapted for use in computer printing systems.+AAoACgAA-The font contains punctuation marks, Latin letters and Cyrillic letters.+AAoACgAA-However, the software behind these integrated circuits for TVs as especially popular in the late 90s and early 2000s. For example, Samsung often used these chips in CRT TVs built on the KS1A, KS9A/B, KS16A/C chassis."
Version: 0.1.0.20240708-1217
ItalicAngle: 0
UnderlinePosition: -100
UnderlineWidth: 50
Ascent: 800
Descent: 200
InvalidEm: 0
LayerCount: 2
Layer: 0 0 "+BBcEMAQ0BD0EOAQ5 +BD8EOwQwBD0A" 1
Layer: 1 0 "+BB8ENQRABDUENAQ9BDgEOQAA +BD8EOwQwBD0A" 0
XUID: [1021 427 478162242 4809]
StyleMap: 0x0000
FSType: 0
OS2Version: 0
OS2_WeightWidthSlopeOnly: 0
OS2_UseTypoMetrics: 1
CreationTime: 1720191932
ModificationTime: 1720431154
PfmFamily: 17
TTFWeight: 400
TTFWidth: 5
LineGap: 90
VLineGap: 90
OS2TypoAscent: 0
OS2TypoAOffset: 1
OS2TypoDescent: 0
OS2TypoDOffset: 1
OS2TypoLinegap: 90
OS2WinAscent: 0
OS2WinAOffset: 1
OS2WinDescent: 0
OS2WinDOffset: 1
HheadAscent: 0
HheadAOffset: 1
HheadDescent: 0
HheadDOffset: 1
OS2Vendor: 'PfEd'
MarkAttachClasses: 1
DEI: 91125

StartChar: exclam
Encoding: 33 33 4
Width: 430
Flags: HW
HStem: 0 100<290 390> 680 20G<290 390>
VStem: 290 100<0 100 200 700>
LayerCount: 2
Back
Fore
SplineSet
207 700 m 13
 229 700 251 700 273 700 c 25
 273 533 273 367 273 200 c 25
 251 200 229 200 207 200 c 25
 207 367 207 533 207 700 c 13
273 0 m 9
 251 0 229 0 207 0 c 1
 207 33 207 67 207 100 c 25
 229 100 251 100 273 100 c 1
 273 67 273 33 273 0 c 9
EndSplineSet
EndChar

StartChar: asterisk
Encoding: 42 42 5
Width: 430
Flags: HW
HStem: 0 21G<290 390> 100 100<90 140 540 590> 300 100<240 290 390 440> 500 100<90 140 540 590> 680 20G<290 390>
VStem: 90 100<100 200 500 600> 140 100<200 300 400 500> 290 100<0 300 400 700> 440 100<200 300 400 500> 490 100<100 200 500 600>
LayerCount: 2
Back
Fore
SplineSet
73 600 m 13
 95 600 118 600 140 600 c 25
 140 567 140 533 140 500 c 25
 151 500 162 500 173 500 c 25
 173 467 173 433 173 400 c 25
 184 400 196 400 207 400 c 25
 207 500 207 600 207 700 c 25
 229 700 251 700 273 700 c 25
 273 600 273 500 273 400 c 25
 284 400 296 400 307 400 c 25
 307 433 307 467 307 500 c 25
 318 500 329 500 340 500 c 25
 340 533 340 567 340 600 c 25
 362 600 385 600 407 600 c 25
 407 567 407 533 407 500 c 25
 396 500 384 500 373 500 c 25
 373 467 373 433 373 400 c 25
 362 400 351 400 340 400 c 25
 340 367 340 333 340 300 c 25
 351 300 362 300 373 300 c 25
 373 267 373 233 373 200 c 25
 384 200 396 200 407 200 c 25
 407 167 407 133 407 100 c 25
 385 100 362 100 340 100 c 25
 340 133 340 167 340 200 c 25
 329 200 318 200 307 200 c 25
 307 233 307 267 307 300 c 25
 296 300 284 300 273 300 c 25
 273 200 273 100 273 0 c 25
 251 0 229 0 207 0 c 25
 207 100 207 200 207 300 c 25
 196 300 184 300 173 300 c 25
 173 267 173 233 173 200 c 25
 162 200 151 200 140 200 c 25
 140 167 140 133 140 100 c 25
 118 100 95 100 73 100 c 25
 73 133 73 167 73 200 c 25
 84 200 96 200 107 200 c 25
 107 233 107 267 107 300 c 25
 118 300 129 300 140 300 c 25
 140 333 140 367 140 400 c 25
 129 400 118 400 107 400 c 25
 107 433 107 467 107 500 c 25
 96 500 84 500 73 500 c 25
 73 533 73 567 73 600 c 13
EndSplineSet
EndChar

StartChar: plus
Encoding: 43 43 6
Width: 430
Flags: HW
HStem: 250 100<140 290 390 540>
VStem: 290 100<50 250 350 550>
LayerCount: 2
Back
Fore
SplineSet
207 550 m 13
 229 550 251 550 273 550 c 25
 273 483 273 417 273 350 c 25
 306 350 340 350 373 350 c 25
 373 317 373 283 373 250 c 25
 340 250 306 250 273 250 c 25
 273 183 273 117 273 50 c 25
 251 50 229 50 207 50 c 25
 207 117 207 183 207 250 c 25
 174 250 140 250 107 250 c 25
 107 283 107 317 107 350 c 25
 140 350 174 350 207 350 c 25
 207 417 207 483 207 550 c 13
EndSplineSet
EndChar

StartChar: comma
Encoding: 44 44 7
Width: 430
Flags: HW
HStem: -200 100<239 289> 0 100<239 289>
VStem: 239 100<-200 -100> 289 100<-100 0>
LayerCount: 2
Back
Fore
SplineSet
173 -100 m 5
 184 -100 195 -100 206 -100 c 29
 206 -67 206 -33 206 0 c 5
 195 0 184 0 173 0 c 29
 173 33 173 67 173 100 c 29
 206 100 240 100 273 100 c 29
 273 33 273 -33 273 -100 c 29
 262 -100 250 -100 239 -100 c 29
 239 -133 239 -167 239 -200 c 29
 217 -200 195 -200 173 -200 c 29
 173 -167 173 -133 173 -100 c 5
EndSplineSet
EndChar

StartChar: hyphen
Encoding: 45 45 8
Width: 430
Flags: HW
HStem: 250 100<140 540>
LayerCount: 2
Back
Fore
SplineSet
107 250 m 13
 107 283 107 317 107 350 c 25
 196 350 284 350 373 350 c 25
 373 317 373 283 373 250 c 25
 284 250 196 250 107 250 c 13
EndSplineSet
EndChar

StartChar: period
Encoding: 46 46 9
Width: 430
Flags: HW
HStem: 0 100<290 390>
VStem: 290 100<0 100>
LayerCount: 2
Back
Fore
SplineSet
273 0 m 13
 251 0 229 0 207 0 c 29
 207 33 207 67 207 100 c 29
 229 100 251 100 273 100 c 29
 273 67 273 33 273 0 c 13
EndSplineSet
EndChar

StartChar: slash
Encoding: 47 47 10
Width: 430
Flags: HW
HStem: 0 100<140 190> 600 100<490 540>
VStem: 140 100<0 100> 190 100<100 200> 240 100<200 300> 290 100<300 400> 340 100<400 500> 390 100<500 600> 440 100<600 700>
LayerCount: 2
Back
Fore
SplineSet
307 700 m 13
 329 700 351 700 373 700 c 25
 373 667 373 633 373 600 c 25
 362 600 351 600 340 600 c 25
 340 567 340 533 340 500 c 25
 329 500 318 500 307 500 c 25
 307 467 307 433 307 400 c 25
 296 400 284 400 273 400 c 25
 273 367 273 333 273 300 c 25
 262 300 251 300 240 300 c 25
 240 267 240 233 240 200 c 25
 229 200 218 200 207 200 c 25
 207 167 207 133 207 100 c 25
 196 100 184 100 173 100 c 25
 173 67 173 33 173 0 c 25
 151 0 129 0 107 0 c 25
 107 33 107 67 107 100 c 25
 118 100 129 100 140 100 c 25
 140 133 140 167 140 200 c 25
 151 200 162 200 173 200 c 25
 173 233 173 267 173 300 c 25
 184 300 196 300 207 300 c 25
 207 333 207 367 207 400 c 25
 218 400 229 400 240 400 c 25
 240 433 240 467 240 500 c 25
 251 500 262 500 273 500 c 25
 273 533 273 567 273 600 c 25
 284 600 296 600 307 600 c 25
 307 633 307 667 307 700 c 13
EndSplineSet
EndChar

StartChar: zero
Encoding: 48 48 11
Width: 430
Flags: HW
HStem: 0 100<290 440> 600 100<290 440>
VStem: 140 150<100 600> 440 150<100 600>
LayerCount: 2
Back
Fore
SplineSet
307 600 m 13
 274 600 240 600 207 600 c 25
 207 433 207 267 207 100 c 25
 240 100 274 100 307 100 c 25
 307 267 307 433 307 600 c 13
140 700 m 9
 218 700 295 700 373 700 c 25
 373 667 373 633 373 600 c 25
 384 600 396 600 407 600 c 25
 407 433 407 267 407 100 c 25
 396 100 384 100 373 100 c 25
 373 67 373 33 373 0 c 25
 295 0 218 0 140 0 c 25
 140 33 140 67 140 100 c 25
 129 100 118 100 107 100 c 25
 107 267 107 433 107 600 c 25
 118 600 129 600 140 600 c 25
 140 633 140 667 140 700 c 9
EndSplineSet
EndChar

StartChar: one
Encoding: 49 49 12
Width: 430
Flags: HW
HStem: 0 21G<340 490> 500 100<240 340> 680 20G<340 490>
VStem: 340 150<0 500 600 700>
LayerCount: 2
Back
Fore
SplineSet
173 500 m 13
 173 533 173 567 173 600 c 29
 195 600 218 600 240 600 c 29
 240 633 240 667 240 700 c 29
 273 700 307 700 340 700 c 29
 340 467 340 233 340 0 c 29
 307 0 273 0 240 0 c 29
 240 167 240 333 240 500 c 29
 218 500 195 500 173 500 c 13
EndSplineSet
EndChar

StartChar: two
Encoding: 50 50 13
Width: 430
Flags: HW
HStem: 0 100<140 190 390 590> 500 100<140 190> 600 100<240 440>
VStem: 140 100<500 600> 390 150<300 400> 440 150<400 600>
LayerCount: 2
Back
Fore
SplineSet
173 500 m 13
 151 500 129 500 107 500 c 1
 107 533 107 567 107 600 c 25
 118 600 129 600 140 600 c 25
 140 633 140 667 140 700 c 25
 218 700 295 700 373 700 c 25
 373 667 373 633 373 600 c 25
 384 600 396 600 407 600 c 25
 407 533 407 467 407 400 c 25
 396 400 384 400 373 400 c 25
 373 367 373 333 373 300 c 25
 362 300 351 300 340 300 c 25
 340 267 340 233 340 200 c 25
 318 200 295 200 273 200 c 25
 273 167 273 133 273 100 c 25
 317 100 363 100 407 100 c 25
 407 67 407 33 407 0 c 25
 307 0 207 0 107 0 c 25
 107 33 107 67 107 100 c 25
 118 100 129 100 140 100 c 25
 140 133 140 167 140 200 c 25
 162 200 185 200 207 200 c 25
 207 233 207 267 207 300 c 25
 229 300 251 300 273 300 c 25
 273 333 273 367 273 400 c 25
 284 400 296 400 307 400 c 25
 307 467 307 533 307 600 c 25
 263 600 217 600 173 600 c 1
 173 567 173 533 173 500 c 13
EndSplineSet
EndChar

StartChar: three
Encoding: 51 51 14
Width: 430
Flags: HW
HStem: 0 100<140 490> 300 100<290 390> 600 100<140 440 540 590>
VStem: 390 100<400 500> 440 100<500 600> 490 100<100 300>
CounterMasks: 1 e0
LayerCount: 2
Back
Fore
SplineSet
107 700 m 13
 207 700 307 700 407 700 c 25
 407 667 407 633 407 600 c 25
 396 600 384 600 373 600 c 25
 373 567 373 533 373 500 c 25
 362 500 351 500 340 500 c 25
 340 467 340 433 340 400 c 25
 362 400 385 400 407 400 c 25
 407 300 407 200 407 100 c 25
 396 100 384 100 373 100 c 25
 373 67 373 33 373 0 c 25
 284 0 196 0 107 0 c 25
 107 33 107 67 107 100 c 25
 185 100 262 100 340 100 c 25
 340 167 340 233 340 300 c 25
 296 300 251 300 207 300 c 25
 207 333 207 367 207 400 c 25
 229 400 251 400 273 400 c 25
 273 433 273 467 273 500 c 25
 284 500 296 500 307 500 c 25
 307 533 307 567 307 600 c 25
 240 600 174 601 107 601 c 25
 107 634 107 667 107 700 c 13
EndSplineSet
EndChar

StartChar: four
Encoding: 52 52 15
Width: 430
Flags: HW
HStem: 0 21G<440 590> 100 100<290 440> 600 100<540 590>
VStem: 140 150<200 300> 190 150<300 400> 290 150<400 500> 440 150<0 100 200 300 600 700>
LayerCount: 2
Back
Fore
SplineSet
307 700 m 13
 340 700 374 700 407 700 c 25
 407 667 407 633 407 600 c 25
 396 600 384 600 373 600 c 25
 373 567 373 533 373 500 c 25
 351 500 329 500 307 500 c 25
 307 467 307 433 307 400 c 25
 285 400 262 400 240 400 c 25
 240 367 240 333 240 300 c 25
 229 300 218 300 207 300 c 25
 207 267 207 233 207 200 c 25
 240 200 274 200 307 200 c 25
 307 233 307 267 307 300 c 25
 340 300 374 300 407 300 c 25
 407 200 407 100 407 0 c 25
 374 0 340 0 307 0 c 25
 307 33 307 67 307 100 c 25
 240 100 174 100 107 100 c 25
 107 167 107 233 107 300 c 25
 118 300 129 300 140 300 c 25
 140 333 140 367 140 400 c 25
 162 400 185 400 207 400 c 25
 207 433 207 467 207 500 c 25
 218 500 229 500 240 500 c 25
 240 533 240 567 240 600 c 25
 262 600 285 600 307 600 c 25
 307 633 307 667 307 700 c 13
EndSplineSet
EndChar

StartChar: five
Encoding: 53 53 16
Width: 430
Flags: HW
HStem: 0 100<240 440> 100 100<140 190> 300 100<240 440> 600 100<240 540>
VStem: 140 100<100 200 400 600> 440 150<100 300>
LayerCount: 2
Back
Fore
SplineSet
373 700 m 13
 373 667 373 633 373 600 c 25
 306 600 240 600 173 600 c 25
 173 533 173 467 173 400 c 25
 240 400 306 400 373 400 c 25
 373 367 373 333 373 300 c 25
 384 300 396 300 407 300 c 25
 407 233 407 167 407 100 c 25
 396 100 384 100 373 100 c 25
 373 67 373 33 373 0 c 25
 295 0 218 0 140 0 c 25
 140 33 140 67 140 100 c 25
 129 100 118 100 107 100 c 25
 107 133 107 167 107 200 c 25
 129 200 151 200 173 200 c 25
 173 167 173 133 173 100 c 25
 217 100 263 100 307 100 c 25
 307 167 307 233 307 300 c 25
 240 300 174 300 107 300 c 25
 107 433 107 567 107 700 c 25
 196 700 284 700 373 700 c 13
EndSplineSet
EndChar

StartChar: six
Encoding: 54 54 17
Width: 430
Flags: HW
HStem: 0 100<289 490> 300 100<340 490> 600 100<390 440>
VStem: 140 149<100 300> 190 150<400 500> 240 150<500 600> 290 150<600 700> 490 100<100 300>
CounterMasks: 1 e0
LayerCount: 2
Back
Fore
SplineSet
340 300 m 13
 295 300 251 300 206 300 c 25
 206 233 206 167 206 100 c 25
 251 100 295 100 340 100 c 25
 340 167 340 233 340 300 c 13
307 700 m 9
 307 667 307 633 307 600 c 25
 296 600 284 600 273 600 c 25
 273 567 273 533 273 500 c 25
 262 500 251 500 240 500 c 25
 240 467 240 433 240 400 c 25
 284 400 329 400 373 400 c 25
 373 367 373 333 373 300 c 25
 384 300 396 300 407 300 c 25
 407 233 407 167 407 100 c 25
 396 100 384 100 373 100 c 25
 373 67 373 33 373 0 c 25
 295 0 218 0 140 0 c 25
 140 33 140 67 140 100 c 25
 129 100 118 100 107 100 c 25
 107 200 107 300 107 400 c 25
 118 400 129 400 140 400 c 25
 140 433 140 467 140 500 c 25
 151 500 162 500 173 500 c 25
 173 533 173 567 173 600 c 25
 184 600 196 600 207 600 c 25
 207 633 207 667 207 700 c 25
 240 700 274 700 307 700 c 9
EndSplineSet
EndChar

StartChar: seven
Encoding: 55 55 18
Width: 430
Flags: HW
HStem: 0 100<140 190> 600 100<90 390 540 590>
VStem: 140 150<0 100> 190 150<100 200> 240 150<200 300> 290 150<300 400> 340 150<400 500> 390 150<500 600>
LayerCount: 2
Back
Fore
SplineSet
73 700 m 1
 184 700 296 700 407 700 c 25
 407 667 407 633 407 600 c 25
 396 600 384 600 373 600 c 25
 373 567 373 533 373 500 c 25
 362 500 351 500 340 500 c 25
 340 467 340 433 340 400 c 25
 329 400 318 400 307 400 c 25
 307 367 307 333 307 300 c 25
 296 300 284 300 273 300 c 25
 273 267 273 233 273 200 c 25
 262 200 251 200 240 200 c 25
 240 167 240 133 240 100 c 25
 229 100 218 100 207 100 c 25
 207 67 207 33 207 0 c 25
 174 0 140 0 107 0 c 25
 107 33 107 67 107 100 c 25
 118 100 129 100 140 100 c 25
 140 133 140 167 140 200 c 25
 151 200 162 200 173 200 c 25
 173 233 173 267 173 300 c 25
 184 300 196 300 207 300 c 25
 207 333 207 367 207 400 c 25
 218 400 229 400 240 400 c 25
 240 433 240 467 240 500 c 25
 251 500 262 500 273 500 c 25
 273 533 273 567 273 600 c 1
 206 600 140 600 73 600 c 25
 73 633 73 667 73 700 c 1
EndSplineSet
EndChar

StartChar: eight
Encoding: 56 56 19
Width: 430
Flags: HW
HStem: 0 100<290 440> 300 100<290 440> 600 100<290 440>
VStem: 140 150<100 300 400 600> 440 150<100 300 400 600>
CounterMasks: 1 e0
LayerCount: 2
Back
Fore
SplineSet
207 100 m 13
 240 100 274 100 307 100 c 25
 307 167 307 233 307 300 c 25
 274 300 240 300 207 300 c 25
 207 233 207 167 207 100 c 13
207 600 m 9
 207 533 207 467 207 400 c 25
 240 400 274 400 307 400 c 25
 307 467 307 533 307 600 c 25
 274 600 240 600 207 600 c 9
140 700 m 9
 218 700 295 700 373 700 c 25
 373 667 373 633 373 600 c 25
 384 600 396 600 407 600 c 25
 407 533 407 467 407 400 c 25
 385 400 362 400 340 400 c 25
 340 367 340 333 340 300 c 25
 362 300 385 300 407 300 c 25
 407 233 407 167 407 100 c 25
 396 100 384 100 373 100 c 25
 373 67 373 33 373 0 c 25
 295 0 218 0 140 0 c 25
 140 33 140 67 140 100 c 25
 129 100 118 100 107 100 c 25
 107 167 107 233 107 300 c 25
 129 300 151 300 173 300 c 25
 173 333 173 367 173 400 c 25
 151 400 129 400 107 400 c 25
 107 467 107 533 107 600 c 25
 118 600 129 600 140 600 c 25
 140 633 140 667 140 700 c 9
EndSplineSet
EndChar

StartChar: nine
Encoding: 57 57 20
Width: 430
Flags: HW
HStem: 0 100<290 340> 300 100<240 390> 600 100<240 440>
VStem: 140 100<400 600> 290 150<0 100> 340 150<100 200> 390 150<200 300> 440 150<400 600>
CounterMasks: 1 e0
LayerCount: 2
Back
Fore
SplineSet
173 600 m 13
 173 533 173 467 173 400 c 25
 217 400 263 400 307 400 c 25
 307 467 307 533 307 600 c 25
 263 600 217 600 173 600 c 13
140 600 m 9
 140 633 140 667 140 700 c 25
 218 700 295 700 373 700 c 25
 373 667 373 633 373 600 c 25
 384 600 396 600 407 600 c 25
 407 500 407 400 407 300 c 25
 396 300 384 300 373 300 c 25
 373 267 373 233 373 200 c 25
 362 200 351 200 340 200 c 25
 340 167 340 133 340 100 c 25
 329 100 318 100 307 100 c 25
 307 67 307 33 307 0 c 25
 274 0 240 0 207 0 c 25
 207 33 207 67 207 100 c 25
 218 100 229 100 240 100 c 25
 240 133 240 167 240 200 c 25
 251 200 262 200 273 200 c 25
 273 233 273 267 273 300 c 25
 229 300 184 300 140 300 c 25
 140 333 140 367 140 400 c 25
 129 400 118 400 107 400 c 25
 107 467 107 533 107 600 c 25
 118 600 129 600 140 600 c 9
EndSplineSet
EndChar

StartChar: colon
Encoding: 58 58 21
Width: 430
Flags: HW
HStem: 0 21G<290 390> 480 20G<290 389.1>
VStem: 290 100<0 200 300 500>
LayerCount: 2
Back
Fore
SplineSet
207 200 m 13
 229 200 251 200 273 200 c 25
 273 133 273 67 273 0 c 25
 251 0 229 0 207 0 c 25
 207 67 207 133 207 200 c 13
207 500 m 9
 229 500 251 500 273 500 c 25
 273 433 273 367 273 300 c 25
 251 300 229 300 207 300 c 25
 207 367 207 433 207 500 c 9
EndSplineSet
EndChar

StartChar: semicolon
Encoding: 59 59 22
Width: 430
Flags: HW
HStem: -200 100<240 290> 480 20G<290 390>
VStem: 240 100<-200 -100> 290 100<-100 100 300 500>
LayerCount: 2
Back
Fore
SplineSet
207 100 m 1
 229 100 251 100 273 100 c 25
 273 33 273 -33 273 -100 c 1
 262 -100 251 -100 240 -100 c 25
 240 -133 240 -167 240 -200 c 25
 218 -200 195 -200 173 -200 c 25
 173 -167 173 -133 173 -100 c 25
 184 -100 196 -100 207 -100 c 25
 207 -33 207 33 207 100 c 1
207 500 m 9
 229 500 251 500 273 500 c 25
 273 433 273 367 273 300 c 25
 251 300 229 300 207 300 c 25
 207 367 207 433 207 500 c 9
EndSplineSet
EndChar

StartChar: less
Encoding: 60 60 23
Width: 430
Flags: HW
HStem: 0 100<490 590> 100 100<390 440> 200 100<290 340> 300 100<140 240> 400 100<290 340> 500 100<390 440> 600 100<490 590>
VStem: 140 150<300 400> 240 150<200 300 400 500> 340 150<100 200 500 600> 440 150<0 100 600 700>
LayerCount: 2
Back
Fore
SplineSet
307 700 m 13
 340 700 374 700 407 700 c 25
 407 667 407 633 407 600 c 25
 385 600 362 600 340 600 c 25
 340 567 340 533 340 500 c 25
 318 500 295 500 273 500 c 25
 273 467 273 433 273 400 c 25
 251 400 229 400 207 400 c 25
 207 367 207 333 207 300 c 25
 229 300 251 300 273 300 c 25
 273 267 273 233 273 200 c 25
 295 200 318 200 340 200 c 25
 340 167 340 133 340 100 c 25
 362 100 385 100 407 100 c 25
 407 67 407 33 407 0 c 25
 374 0 340 0 307 0 c 25
 307 33 307 67 307 100 c 25
 285 100 262 100 240 100 c 25
 240 133 240 167 240 200 c 25
 218 200 195 200 173 200 c 25
 173 233 173 267 173 300 c 25
 151 300 129 300 107 300 c 25
 107 333 107 367 107 400 c 25
 129 400 151 400 173 400 c 25
 173 433 173 467 173 500 c 25
 195 500 218 500 240 500 c 25
 240 533 240 567 240 600 c 25
 262 600 285 600 307 600 c 25
 307 633 307 667 307 700 c 13
EndSplineSet
EndChar

StartChar: equal
Encoding: 61 61 24
Width: 430
Flags: HW
HStem: 200 100<140 540> 400 100<140 540>
LayerCount: 2
Back
Fore
SplineSet
107 500 m 13
 196 500 284 500 373 500 c 25
 373 467 373 433 373 400 c 25
 284 400 196 400 107 400 c 25
 107 433 107 467 107 500 c 13
107 300 m 9
 196 300 284 300 373 300 c 25
 373 267 373 233 373 200 c 25
 284 200 196 200 107 200 c 25
 107 233 107 267 107 300 c 9
EndSplineSet
EndChar

StartChar: greater
Encoding: 62 62 25
Width: 430
Flags: HW
HStem: 0 100<140 240> 100 100<290 340> 200 100<390 440> 300 100<490 590> 400 100<390 440> 500 100<290 340> 600 100<140 240>
VStem: 140 150<0 100 600 700> 240 150<100 200 500 600> 340 150<200 300 400 500> 440 150<300 400>
LayerCount: 2
Back
Fore
SplineSet
107 600 m 13
 107 633 107 667 107 700 c 25
 140 700 174 700 207 700 c 25
 207 667 207 633 207 600 c 25
 229 600 251 600 273 600 c 25
 273 567 273 533 273 500 c 25
 295 500 318 500 340 500 c 25
 340 467 340 433 340 400 c 25
 362 400 385 400 407 400 c 25
 407 367 407 333 407 300 c 25
 385 300 362 300 340 300 c 25
 340 267 340 233 340 200 c 25
 318 200 295 200 273 200 c 25
 273 167 273 133 273 100 c 25
 251 100 229 100 207 100 c 25
 207 67 207 33 207 0 c 25
 174 0 140 0 107 0 c 25
 107 33 107 67 107 100 c 25
 129 100 151 100 173 100 c 25
 173 133 173 167 173 200 c 25
 195 200 218 200 240 200 c 25
 240 233 240 267 240 300 c 25
 262 300 285 300 307 300 c 25
 307 333 307 367 307 400 c 25
 285 400 262 400 240 400 c 25
 240 433 240 467 240 500 c 25
 218 500 195 500 173 500 c 25
 173 533 173 567 173 600 c 25
 151 600 129 600 107 600 c 13
EndSplineSet
EndChar

StartChar: question
Encoding: 63 63 26
Width: 430
Flags: HW
HStem: 0 100<340 440> 200 100<340 440> 300 100<440 490> 600 100<240 490>
VStem: 140 100<400 600> 340 100<0 100 200 300> 440 100<300 400> 490 100<400 600>
LayerCount: 2
Back
Fore
SplineSet
240 300 m 1
 262 300 285 300 307 300 c 1
 307 267 307 233 307 200 c 1
 285 200 262 200 240 200 c 1
 240 233 240 267 240 300 c 1
307 0 m 9
 285 0 262 0 240 0 c 1
 240 33 240 67 240 100 c 25
 262 100 285 100 307 100 c 1
 307 67 307 33 307 0 c 9
107 600 m 9
 118 600 129 600 140 600 c 25
 140 633 140 667 140 700 c 25
 218 700 295 700 373 700 c 25
 373 667 373 633 373 600 c 25
 384 600 396 600 407 600 c 25
 407 533 407 467 407 400 c 25
 396 400 384 400 373 400 c 25
 373 367 373 333 373 300 c 25
 351 300 329 300 307 300 c 25
 307 333 307 367 307 400 c 25
 318 400 329 400 340 400 c 25
 340 467 340 533 340 600 c 25
 284 600 229 600 173 600 c 25
 173 533 173 467 173 400 c 25
 151 400 129 400 107 400 c 25
 107 467 107 533 107 600 c 9
EndSplineSet
EndChar

StartChar: at
Encoding: 64 64 27
Width: 430
Flags: HW
HStem: -100 100<240 540> 100 100<390 490> 400 100<390 490> 600 100<240 490>
VStem: 90 100<100 500> 140 100<0 100 500 600> 290 100<200 400> 340 250<100 200 400 500> 490 100<200 400 500 600>
LayerCount: 2
Back
Fore
SplineSet
273 400 m 13
 273 333 273 267 273 200 c 25
 295 200 318 200 340 200 c 25
 340 267 340 333 340 400 c 25
 318 400 295 400 273 400 c 13
140 600 m 9
 140 633 140 667 140 700 c 25
 218 700 295 700 373 700 c 25
 373 667 373 633 373 600 c 25
 384 600 396 600 407 600 c 25
 407 433 407 267 407 100 c 25
 351 100 296 100 240 100 c 25
 240 133 240 167 240 200 c 25
 229 200 218 200 207 200 c 25
 207 267 207 333 207 400 c 25
 218 400 229 400 240 400 c 25
 240 433 240 467 240 500 c 25
 273 500 307 500 340 500 c 25
 340 533 340 567 340 600 c 25
 284 600 229 600 173 600 c 25
 173 567 173 533 173 500 c 25
 162 500 151 500 140 500 c 25
 140 367 140 233 140 100 c 25
 151 100 162 100 173 100 c 25
 173 67 173 33 173 0 c 25
 240 0 306 0 373 0 c 25
 373 -33 373 -67 373 -100 c 25
 295 -100 218 -100 140 -100 c 25
 140 -67 140 -33 140 0 c 25
 129 0 118 0 107 0 c 25
 107 33 107 67 107 100 c 25
 96 100 84 100 73 100 c 25
 73 233 73 367 73 500 c 25
 84 500 96 500 107 500 c 25
 107 533 107 567 107 600 c 25
 118 600 129 600 140 600 c 9
EndSplineSet
EndChar

StartChar: A
Encoding: 65 65 28
Width: 430
Flags: HW
HStem: 0 21G<90 190 490 590> 200 100<190 490> 600 100<290 390>
VStem: 90 100<0 200 300 400> 140 100<400 500> 190 100<500 600> 390 100<500 600> 440 100<400 500> 490 100<0 200 300 400>
LayerCount: 2
Back
Fore
SplineSet
140 400 m 13
 140 367 140 333 140 300 c 25
 207 300 273 300 340 300 c 25
 340 333 340 367 340 400 c 25
 329 400 318 400 307 400 c 25
 307 433 307 467 307 500 c 25
 296 500 284 500 273 500 c 25
 273 533 273 567 273 600 c 25
 251 600 229 600 207 600 c 25
 207 567 207 533 207 500 c 25
 196 500 184 500 173 500 c 25
 173 467 173 433 173 400 c 25
 162 400 151 400 140 400 c 13
140 0 m 9
 118 0 95 0 73 0 c 25
 73 133 73 267 73 400 c 25
 84 400 96 400 107 400 c 25
 107 433 107 467 107 500 c 25
 118 500 129 500 140 500 c 25
 140 533 140 567 140 600 c 25
 151 600 162 600 173 600 c 25
 173 633 173 667 173 700 c 25
 217 700 262 700 306 700 c 25
 306 667 307 633 307 600 c 25
 318 600 329 600 340 600 c 25
 340 567 340 533 340 500 c 25
 351 500 362 500 373 500 c 25
 373 467 373 433 373 400 c 25
 384 400 396 400 407 400 c 25
 407 267 407 133 407 0 c 25
 385 0 362 0 340 0 c 25
 340 67 340 133 340 200 c 25
 273 200 207 200 140 200 c 25
 140 133 140 67 140 0 c 9
EndSplineSet
EndChar

StartChar: B
Encoding: 66 66 29
Width: 430
Flags: HW
HStem: 0 100<240 490> 300 100<240 490> 600 100<240 490>
VStem: 140 400<0 100 300 400 600 700> 140 100<100 300 400 600> 490 100<100 300 400 600>
CounterMasks: 1 e0
LayerCount: 2
Back
Fore
SplineSet
173 600 m 13
 173 533 173 467 173 400 c 25
 229 400 284 400 340 400 c 25
 340 467 340 533 340 600 c 25
 284 600 229 600 173 600 c 13
173 300 m 9
 173 233 173 167 173 100 c 25
 229 100 284 100 340 100 c 25
 340 167 340 233 340 300 c 25
 284 300 229 300 173 300 c 9
107 0 m 9
 107 233 107 467 107 700 c 25
 196 700 284 700 373 700 c 25
 373 667 373 633 373 600 c 25
 384 600 396 600 407 600 c 25
 407 533 407 467 407 400 c 25
 396 400 384 400 373 400 c 25
 373 367 373 333 373 300 c 25
 384 300 396 300 407 300 c 25
 407 233 407 167 407 100 c 25
 396 100 384 100 373 100 c 25
 373 67 373 33 373 0 c 25
 284 0 196 0 107 0 c 9
EndSplineSet
EndChar

StartChar: C
Encoding: 67 67 30
Width: 430
Flags: HW
HStem: 0 100<290 490> 100 100<540 590> 500 100<540 590> 600 100<290 490>
VStem: 140 100<200 500> 190 100<100 200 500 600> 240 300<0 100 600 700> 490 100<100 200 500 600>
LayerCount: 2
Back
Fore
SplineSet
173 700 m 13
 240 700 306 700 373 700 c 25
 373 667 373 633 373 600 c 25
 384 600 396 600 407 600 c 25
 407 567 407 533 407 500 c 25
 385 500 362 500 340 500 c 25
 340 533 340 567 340 600 c 25
 296 600 251 600 207 600 c 25
 207 567 207 533 207 500 c 25
 196 500 184 500 173 500 c 25
 173 400 173 300 173 200 c 25
 184 200 196 200 207 200 c 25
 207 167 207 133 207 100 c 25
 251 100 296 100 340 100 c 25
 340 133 340 167 340 200 c 25
 362 200 385 200 407 200 c 25
 407 167 407 133 407 100 c 25
 396 100 384 100 373 100 c 25
 373 67 373 33 373 0 c 25
 306 0 240 0 173 0 c 25
 173 33 173 67 173 100 c 25
 162 100 151 100 140 100 c 25
 140 133 140 167 140 200 c 25
 129 200 118 200 107 200 c 25
 107 300 107 400 107 500 c 25
 118 500 129 500 140 500 c 25
 140 533 140 567 140 600 c 25
 151 600 162 600 173 600 c 25
 173 633 173 667 173 700 c 13
EndSplineSet
EndChar

StartChar: D
Encoding: 68 68 31
Width: 430
Flags: HW
HStem: 0 100<240 440> 600 100<240 440>
VStem: 140 100<100 600> 440 100<100 200 500 600> 490 100<200 500>
LayerCount: 2
Back
Fore
SplineSet
173 600 m 13
 173 433 173 267 173 100 c 25
 217 100 263 100 307 100 c 25
 307 133 307 167 307 200 c 25
 318 200 329 200 340 200 c 25
 340 300 340 400 340 500 c 25
 329 500 318 500 307 500 c 25
 307 533 307 567 307 600 c 25
 263 600 217 600 173 600 c 13
107 700 m 9
 185 700 262 700 340 700 c 25
 340 667 340 633 340 600 c 25
 351 600 362 600 373 600 c 25
 373 567 373 533 373 500 c 25
 384 500 396 500 407 500 c 25
 407 400 407 300 407 200 c 25
 396 200 384 200 373 200 c 25
 373 167 373 133 373 100 c 25
 362 100 351 100 340 100 c 25
 340 67 340 33 340 0 c 25
 262 0 185 0 107 0 c 25
 107 233 107 467 107 700 c 9
EndSplineSet
EndChar

StartChar: E
Encoding: 69 69 32
Width: 430
Flags: HW
HStem: 0 100<240 590> 300 100<240 490> 600 100<240 590>
VStem: 140 100<100 300 400 600>
CounterMasks: 1 e0
LayerCount: 2
Back
Fore
SplineSet
407 600 m 13
 329 600 251 600 173 600 c 25
 173 533 173 467 173 400 c 25
 229 400 284 400 340 400 c 25
 340 367 340 333 340 300 c 25
 284 300 229 300 173 300 c 25
 173 233 173 167 173 100 c 25
 251 100 329 100 407 100 c 25
 407 67 407 33 407 0 c 25
 307 0 207 0 107 0 c 25
 107 233 107 467 107 700 c 25
 207 700 307 700 407 700 c 25
 407 667 407 633 407 600 c 13
EndSplineSet
EndChar

StartChar: F
Encoding: 70 70 33
Width: 430
Flags: HW
HStem: 0 21G<140 240> 300 100<240 490> 600 100<240 590>
VStem: 140 100<0 300 400 600>
LayerCount: 2
Back
Fore
SplineSet
173 0 m 13
 151 0 129 0 107 0 c 25
 107 233 107 467 107 700 c 25
 207 700 307 700 407 700 c 25
 407 667 407 633 407 600 c 25
 329 600 251 600 173 600 c 25
 173 533 173 467 173 400 c 25
 229 400 284 400 340 400 c 25
 340 367 340 333 340 300 c 25
 284 300 229 300 173 300 c 25
 173 200 173 100 173 0 c 13
EndSplineSet
EndChar

StartChar: G
Encoding: 71 71 34
Width: 430
Flags: HW
HStem: 0 100<240 490> 200 100<340 490> 500 100<540 590> 600 100<240 490>
VStem: 140 100<100 600> 490 100<100 200 500 600>
LayerCount: 2
Back
Fore
SplineSet
340 600 m 13
 284 600 229 600 173 600 c 25
 173 433 173 267 173 100 c 25
 229 100 284 100 340 100 c 25
 340 133 340 167 340 200 c 25
 307 200 273 200 240 200 c 25
 240 233 240 267 240 300 c 25
 296 300 351 300 407 300 c 25
 407 233 407 167 407 100 c 25
 396 100 384 100 373 100 c 25
 373 67 373 33 373 0 c 25
 295 0 218 0 140 0 c 25
 140 33 140 67 140 100 c 25
 129 100 118 100 107 100 c 25
 107 267 107 433 107 600 c 25
 118 600 129 600 140 600 c 25
 140 633 140 667 140 700 c 25
 218 700 295 700 373 700 c 25
 373 667 373 633 373 600 c 25
 384 600 396 600 407 600 c 25
 407 567 407 533 407 500 c 25
 385 500 362 500 340 500 c 25
 340 533 340 567 340 600 c 13
EndSplineSet
EndChar

StartChar: H
Encoding: 72 72 35
Width: 430
Flags: HW
HStem: 0 21G<140 240 490 590> 300 100<240 490> 680 20G<140 240 490 590>
VStem: 140 100<0 300 400 700> 490 100<0 300 400 700>
LayerCount: 2
Back
Fore
SplineSet
107 700 m 13
 129 700 151 700 173 700 c 25
 173 600 173 500 173 400 c 25
 229 400 284 400 340 400 c 25
 340 500 340 600 340 700 c 25
 362 700 385 700 407 700 c 25
 407 467 407 233 407 0 c 25
 385 0 362 0 340 0 c 25
 340 100 340 200 340 300 c 25
 284 300 229 300 173 300 c 25
 173 200 173 100 173 0 c 25
 151 0 129 0 107 0 c 25
 107 233 107 467 107 700 c 13
EndSplineSet
EndChar

StartChar: I
Encoding: 73 73 36
Width: 430
Flags: HW
HStem: 0 100<140 290 390 540> 600 100<140 290 390 540>
VStem: 290 100<100 600>
LayerCount: 2
Back
Fore
SplineSet
107 700 m 13
 196 700 284 700 373 700 c 25
 373 667 373 633 373 600 c 25
 340 600 306 600 273 600 c 25
 273 433 273 267 273 100 c 25
 306 100 340 100 373 100 c 25
 373 67 373 33 373 0 c 25
 284 0 196 0 107 0 c 25
 107 33 107 67 107 100 c 25
 140 100 174 100 207 100 c 25
 207 267 207 433 207 600 c 25
 174 600 140 600 107 600 c 25
 107 633 107 667 107 700 c 13
EndSplineSet
EndChar

StartChar: J
Encoding: 74 74 37
Width: 430
Flags: HW
HStem: 0 100<240 490> 100 100<140 190> 680 20G<490 590>
VStem: 140 100<100 200> 490 100<100 700>
LayerCount: 2
Back
Fore
SplineSet
340 700 m 13
 362 700 385 700 407 700 c 25
 407 500 407 300 407 100 c 25
 396 100 384 100 373 100 c 25
 373 67 373 33 373 0 c 25
 295 0 218 0 140 0 c 25
 140 33 140 67 140 100 c 25
 129 100 118 100 107 100 c 25
 107 133 107 167 107 200 c 25
 129 200 151 200 173 200 c 25
 173 167 173 133 173 100 c 25
 229 100 284 100 340 100 c 25
 340 300 340 500 340 700 c 13
EndSplineSet
EndChar

StartChar: K
Encoding: 75 75 38
Width: 430
Flags: HW
HStem: 0 100<490 590> 200 100<340 390> 300 100<240 290> 400 100<340 390> 600 100<490 590>
VStem: 140 100<0 300 400 700> 290 150<200 300 400 500> 390 100<100 200 500 600> 440 150<0 100 600 700>
LayerCount: 2
Back
Fore
SplineSet
107 700 m 13
 129 700 151 700 173 700 c 25
 173 600 173 500 173 400 c 25
 184 400 196 400 207 400 c 25
 207 433 207 467 207 500 c 25
 229 500 251 500 273 500 c 25
 273 533 273 567 273 600 c 25
 284 600 296 600 307 600 c 25
 307 633 307 667 307 700 c 25
 340 700 374 700 407 700 c 25
 407 667 407 633 407 600 c 25
 385 600 362 600 340 600 c 25
 340 567 340 533 340 500 c 25
 329 500 318 500 307 500 c 25
 307 467 307 433 307 400 c 25
 285 400 262 400 240 400 c 25
 240 367 240 333 240 300 c 25
 262 300 285 300 307 300 c 25
 307 267 307 233 307 200 c 25
 318 200 329 200 340 200 c 25
 340 167 340 133 340 100 c 25
 362 100 385 100 407 100 c 25
 407 67 407 33 407 0 c 25
 374 0 340 0 307 0 c 25
 307 33 307 67 307 100 c 25
 296 100 284 100 273 100 c 25
 273 133 273 167 273 200 c 25
 251 200 229 200 207 200 c 25
 207 233 207 267 207 300 c 25
 196 300 184 300 173 300 c 25
 173 200 173 100 173 0 c 25
 151 0 129 0 107 0 c 25
 107 233 107 467 107 700 c 13
EndSplineSet
EndChar

StartChar: L
Encoding: 76 76 39
Width: 430
Flags: HW
HStem: 0 100<240 590> 680 20G<140 240>
VStem: 140 100<100 700>
LayerCount: 2
Back
Fore
SplineSet
107 700 m 13
 129 700 151 700 173 700 c 25
 173 500 173 300 173 100 c 25
 251 100 329 100 407 100 c 25
 407 67 407 33 407 0 c 25
 307 0 207 0 107 0 c 25
 107 233 107 467 107 700 c 13
EndSplineSet
EndChar

StartChar: M
Encoding: 77 77 40
Width: 430
Flags: HW
HStem: 0 21G<90 190 490 590> 680 20G<90 240 440 590>
VStem: 90 150<600 700> 90 100<0 500> 290 100<300 400> 440 150<600 700> 490 100<0 500>
LayerCount: 2
Back
Fore
SplineSet
140 0 m 13
 118 0 95 0 73 0 c 25
 73 233 73 467 73 700 c 25
 106 700 140 700 173 700 c 25
 173 667 173 633 173 600 c 25
 184 600 196 600 207 600 c 25
 207 567 207 533 207 500 c 25
 229 500 251 500 273 500 c 25
 273 533 273 567 273 600 c 25
 284 600 296 600 307 600 c 25
 307 633 307 667 307 700 c 25
 340 700 374 700 407 700 c 25
 407 467 407 233 407 0 c 25
 385 0 362 0 340 0 c 25
 340 167 340 333 340 500 c 25
 329 500 318 500 307 500 c 25
 307 467 307 433 307 400 c 25
 296 400 284 400 273 400 c 25
 273 367 273 333 273 300 c 25
 251 300 229 300 207 300 c 25
 207 333 207 367 207 400 c 25
 196 400 184 400 173 400 c 25
 173 433 173 467 173 500 c 25
 162 500 151 500 140 500 c 25
 140 333 140 167 140 0 c 13
EndSplineSet
EndChar

StartChar: N
Encoding: 78 78 41
Width: 430
Flags: HW
HStem: 0 21G<90 190 440 590> 680 20G<90 240 490 590>
VStem: 90 150<600 700> 90 100<0 500> 240 100<400 500> 290 100<300 400> 340 100<200 300> 440 150<0 100> 490 100<200 700>
LayerCount: 2
Back
Fore
SplineSet
73 700 m 13
 106 700 140 700 173 700 c 25
 173 667 173 633 173 600 c 25
 184 600 196 600 207 600 c 25
 207 567 207 533 207 500 c 25
 218 500 229 500 240 500 c 25
 240 467 240 433 240 400 c 25
 251 400 262 400 273 400 c 25
 273 367 273 333 273 300 c 25
 284 300 296 300 307 300 c 25
 307 267 307 233 307 200 c 25
 318 200 329 200 340 200 c 25
 340 367 340 533 340 700 c 25
 362 700 385 700 407 700 c 25
 407 467 407 233 407 0 c 25
 374 0 340 0 307 0 c 25
 307 33 307 67 307 100 c 25
 296 100 284 100 273 100 c 25
 273 133 273 167 273 200 c 25
 262 200 251 200 240 200 c 25
 240 233 240 267 240 300 c 25
 229 300 218 300 207 300 c 25
 207 333 207 367 207 400 c 25
 196 400 184 400 173 400 c 25
 173 433 173 467 173 500 c 25
 162 500 151 500 140 500 c 25
 140 333 140 167 140 0 c 25
 118 0 95 0 73 0 c 25
 73 233 73 467 73 700 c 13
EndSplineSet
EndChar

StartChar: O
Encoding: 79 79 42
Width: 430
Flags: HW
HStem: 0 100<240 440> 600 100<240 440>
VStem: 90 100<200 500> 140 100<100 200 500 600> 190 300<0 100 600 700> 440 100<100 200 500 600> 490 100<200 500>
LayerCount: 2
Back
Fore
SplineSet
307 100 m 13
 307 133 307 167 307 200 c 25
 318 200 329 200 340 200 c 25
 340 300 340 400 340 500 c 25
 329 500 318 500 307 500 c 25
 307 533 307 567 307 600 c 25
 263 600 217 600 173 600 c 25
 173 567 173 533 173 500 c 25
 162 500 151 500 140 500 c 25
 140 400 140 300 140 200 c 25
 151 200 162 200 173 200 c 25
 173 167 173 133 173 100 c 25
 217 100 263 100 307 100 c 13
340 0 m 9
 273 0 207 0 140 0 c 25
 140 33 140 67 140 100 c 25
 129 100 118 100 107 100 c 25
 107 133 107 167 107 200 c 25
 96 200 84 200 73 200 c 25
 73 300 73 400 73 500 c 25
 84 500 96 500 107 500 c 25
 107 533 107 567 107 600 c 25
 118 600 129 600 140 600 c 25
 140 633 140 667 140 700 c 25
 207 700 273 700 340 700 c 25
 340 667 340 633 340 600 c 25
 351 600 362 600 373 600 c 25
 373 567 373 533 373 500 c 25
 384 500 396 500 407 500 c 25
 407 400 407 300 407 200 c 25
 396 200 384 200 373 200 c 25
 373 167 373 133 373 100 c 25
 362 100 351 100 340 100 c 25
 340 67 340 33 340 0 c 9
EndSplineSet
EndChar

StartChar: P
Encoding: 80 80 43
Width: 430
Flags: HW
HStem: 0 21G<140 240> 300 100<240 490> 600 100<240 490>
VStem: 140 100<0 300 400 600> 490 100<400 600>
LayerCount: 2
Back
Fore
SplineSet
173 600 m 13
 173 533 173 467 173 400 c 25
 229 400 284 400 340 400 c 25
 340 467 340 533 340 600 c 25
 284 600 229 600 173 600 c 13
107 700 m 9
 196 700 284 700 373 700 c 25
 373 683 373 667 373 650 c 25
 384 650 396 650 407 650 c 25
 407 567 407 483 407 400 c 25
 396 400 384 400 373 400 c 25
 373 367 373 333 373 300 c 25
 306 300 240 300 173 300 c 25
 173 200 173 100 173 0 c 25
 151 0 129 0 107 0 c 25
 107 233 107 467 107 700 c 9
EndSplineSet
EndChar

StartChar: Q
Encoding: 81 81 44
Width: 430
Flags: HW
HStem: -200 100<490 590> 0 100<190 340> 600 100<190 490>
VStem: 90 100<100 600> 340 100<100 200> 390 100<-100 0> 440 150<-200 -100> 490 100<100 600>
LayerCount: 2
Back
Fore
SplineSet
140 600 m 13
 140 433 140 267 140 100 c 25
 173 100 207 100 240 100 c 25
 240 133 240 167 240 200 c 25
 262 200 285 200 307 200 c 25
 307 167 307 133 307 100 c 25
 318 100 329 100 340 100 c 25
 340 267 340 433 340 600 c 25
 273 600 207 600 140 600 c 13
107 700 m 9
 196 700 284 700 373 700 c 25
 373 667 373 633 373 600 c 25
 384 600 396 600 407 600 c 25
 407 433 407 267 407 100 c 25
 396 100 384 100 373 100 c 25
 373 67 373 33 373 0 c 25
 362 0 351 0 340 0 c 25
 340 -33 340 -67 340 -100 c 25
 362 -100 385 -100 407 -100 c 25
 407 -133 407 -167 407 -200 c 25
 374 -200 340 -200 307 -200 c 25
 307 -167 307 -133 307 -100 c 25
 296 -100 284 -100 273 -100 c 25
 273 -67 273 -33 273 0 c 25
 217 0 163 0 107 0 c 25
 107 33 107 67 107 100 c 25
 96 100 84 100 73 100 c 25
 73 267 73 433 73 600 c 25
 84 600 96 600 107 600 c 25
 107 633 107 667 107 700 c 9
EndSplineSet
EndChar

StartChar: R
Encoding: 82 82 45
Width: 430
Flags: HW
HStem: 0 100<490 590> 300 100<240 340 440 490> 600 100<240 490>
VStem: 140 100<0 300 400 600> 340 100<200 300> 390 100<100 200> 440 150<0 100> 490 100<400 600>
CounterMasks: 1 e0
LayerCount: 2
Back
Fore
SplineSet
173 600 m 13
 173 533 173 467 173 400 c 25
 229 400 284 400 340 400 c 25
 340 467 340 533 340 600 c 25
 284 600 229 600 173 600 c 13
107 700 m 9
 196 700 284 700 373 700 c 25
 373 683 373 667 373 650 c 25
 384 650 396 650 407 650 c 25
 407 567 407 483 407 400 c 25
 396 400 384 400 373 400 c 25
 373 367 373 333 373 300 c 25
 351 300 329 300 307 300 c 25
 307 267 307 233 307 200 c 25
 318 200 329 200 340 200 c 25
 340 167 340 133 340 100 c 25
 362 100 385 100 407 100 c 25
 407 67 407 33 407 0 c 25
 374 0 340 0 307 0 c 25
 307 33 307 67 307 100 c 25
 296 100 284 100 273 100 c 25
 273 133 273 167 273 200 c 25
 262 200 251 200 240 200 c 25
 240 233 240 267 240 300 c 25
 218 300 195 300 173 300 c 25
 173 200 173 100 173 0 c 25
 151 0 129 0 107 0 c 25
 107 233 107 467 107 700 c 9
EndSplineSet
EndChar

StartChar: S
Encoding: 83 83 46
Width: 430
Flags: HW
HStem: 0 100<190 490> 300 100<240 490> 600 100<240 540>
VStem: 140 100<400 600> 190 350<0 100 300 400 600 700> 490 100<100 300>
CounterMasks: 1 e0
LayerCount: 2
Back
Fore
SplineSet
140 600 m 13
 140 633 140 667 140 700 c 25
 218 700 295 700 373 700 c 25
 373 667 373 633 373 600 c 25
 306 600 240 600 173 600 c 25
 173 533 173 467 173 400 c 25
 240 400 306 400 373 400 c 25
 373 367 373 333 373 300 c 25
 384 300 396 300 407 300 c 25
 407 233 407 167 407 100 c 25
 396 100 384 100 373 100 c 25
 373 67 373 33 373 0 c 25
 295 0 218 0 140 0 c 25
 140 33 140 67 140 100 c 25
 207 100 273 100 340 100 c 25
 340 167 340 233 340 300 c 25
 273 300 207 300 140 300 c 25
 140 333 140 367 140 400 c 25
 129 400 118 400 107 400 c 25
 107 467 107 533 107 600 c 25
 118 600 129 600 140 600 c 13
EndSplineSet
EndChar

StartChar: T
Encoding: 84 84 47
Width: 430
Flags: HW
HStem: 0 21G<290 390> 600 100<90 290 390 590>
VStem: 290 100<0 600>
LayerCount: 2
Back
Fore
SplineSet
73 700 m 1
 184 700 296 700 407 700 c 5
 407 667 407 633 407 600 c 1
 363 600 317 600 273 600 c 1
 273 400 273 200 273 0 c 25
 251 0 229 0 207 0 c 25
 207 200 207 400 207 600 c 1
 163 600 117 600 73 600 c 1
 73 633 73 667 73 700 c 1
EndSplineSet
EndChar

StartChar: U
Encoding: 85 85 48
Width: 430
Flags: HW
HStem: 0 100<240 490> 680 20G<140 240 490 590>
VStem: 140 100<100 700> 490 100<100 700>
LayerCount: 2
Back
Fore
SplineSet
107 700 m 13
 129 700 151 700 173 700 c 25
 173 500 173 300 173 100 c 25
 229 100 284 100 340 100 c 25
 340 300 340 500 340 700 c 25
 362 700 385 700 407 700 c 25
 407 500 407 300 407 100 c 25
 396 100 384 100 373 100 c 25
 373 67 373 33 373 0 c 25
 295 0 218 0 140 0 c 25
 140 33 140 67 140 100 c 25
 129 100 118 100 107 100 c 25
 107 300 107 500 107 700 c 13
EndSplineSet
EndChar

StartChar: V
Encoding: 86 86 49
Width: 430
Flags: HW
HStem: 0 21G<340 440> 680 20G<140 240 540 640>
VStem: 140 100<500 700> 190 100<300 500> 240 100<200 300> 340 100<0 100> 440 100<200 300> 490 100<300 500> 540 100<500 700>
LayerCount: 2
Back
Fore
SplineSet
107 700 m 13
 129 700 151 700 173 700 c 25
 173 633 173 567 173 500 c 25
 184 500 196 500 207 500 c 25
 207 433 207 367 207 300 c 25
 218 300 229 300 240 300 c 25
 240 267 240 233 240 200 c 25
 262 200 285 200 307 200 c 25
 307 233 307 267 307 300 c 25
 318 300 329 300 340 300 c 25
 340 367 340 433 340 500 c 25
 351 500 362 500 373 500 c 25
 373 567 373 633 373 700 c 25
 395 700 418 700 440 700 c 25
 440 633 440 567 440 500 c 25
 429 500 418 500 407 500 c 25
 407 433 407 367 407 300 c 25
 396 300 384 300 373 300 c 25
 373 267 373 233 373 200 c 25
 362 200 351 200 340 200 c 25
 340 167 340 133 340 100 c 25
 329 100 318 100 307 100 c 25
 307 67 307 33 307 0 c 25
 285 0 262 0 240 0 c 25
 240 33 240 67 240 100 c 25
 229 100 218 100 207 100 c 25
 207 133 207 167 207 200 c 25
 196 200 184 200 173 200 c 25
 173 233 173 267 173 300 c 25
 162 300 151 300 140 300 c 25
 140 367 140 433 140 500 c 25
 129 500 118 500 107 500 c 25
 107 567 107 633 107 700 c 13
EndSplineSet
EndChar

StartChar: W
Encoding: 87 87 50
Width: 430
Flags: HW
HStem: 0 21G<140 240 440 540> 680 20G<90 190 490 590>
VStem: 90 100<200 700> 140 150<100 200> 140 100<0 100> 290 100<300 400> 390 150<100 200> 440 100<0 100> 490 100<200 700>
LayerCount: 2
Back
Fore
SplineSet
73 700 m 13
 95 700 118 700 140 700 c 25
 140 533 140 367 140 200 c 25
 151 200 162 200 173 200 c 25
 173 233 173 267 173 300 c 25
 184 300 196 300 207 300 c 25
 207 333 207 367 207 400 c 25
 229 400 251 400 273 400 c 25
 273 367 273 333 273 300 c 25
 284 300 296 300 307 300 c 25
 307 267 307 233 307 200 c 25
 318 200 329 200 340 200 c 25
 340 367 340 533 340 700 c 25
 362 700 385 700 407 700 c 25
 407 533 407 367 407 200 c 25
 396 200 384 200 373 200 c 25
 373 133 373 67 373 0 c 25
 351 0 329 0 307 0 c 25
 307 33 307 67 307 100 c 25
 296 100 284 100 273 100 c 25
 273 133 273 167 273 200 c 25
 251 200 229 200 207 200 c 25
 207 167 207 133 207 100 c 25
 196 100 184 100 173 100 c 25
 173 67 173 33 173 0 c 25
 151 0 129 0 107 0 c 25
 107 67 107 133 107 200 c 25
 96 200 84 200 73 200 c 25
 73 367 73 533 73 700 c 13
EndSplineSet
EndChar

StartChar: X
Encoding: 88 88 51
Width: 430
Flags: HW
HStem: 0 100<140 190 490 540> 600 100<140 190 490 540>
VStem: 140 100<0 100 600 700> 190 100<100 200 500 600> 240 200<200 300 400 500> 390 100<100 200 500 600> 440 100<0 100 600 700>
LayerCount: 2
Back
Fore
SplineSet
107 700 m 13
 129 700 151 700 173 700 c 25
 173 667 173 633 173 600 c 25
 184 600 196 600 207 600 c 25
 207 567 207 533 207 500 c 25
 229 500 251 500 273 500 c 25
 273 533 273 567 273 600 c 25
 284 600 296 600 307 600 c 25
 307 633 307 667 307 700 c 25
 329 700 351 700 373 700 c 25
 373 667 373 633 373 600 c 25
 362 600 351 600 340 600 c 25
 340 567 340 533 340 500 c 25
 329 500 318 500 307 500 c 25
 307 467 307 433 307 400 c 25
 296 400 284 400 273 400 c 25
 273 367 273 333 273 300 c 25
 284 300 296 300 307 300 c 25
 307 267 307 233 307 200 c 25
 318 200 329 200 340 200 c 25
 340 167 340 133 340 100 c 25
 351 100 362 100 373 100 c 25
 373 67 373 33 373 0 c 25
 351 0 329 0 307 0 c 25
 307 33 307 67 307 100 c 25
 296 100 284 100 273 100 c 25
 273 133 273 167 273 200 c 25
 251 200 229 200 207 200 c 25
 207 167 207 133 207 100 c 25
 196 100 184 100 173 100 c 25
 173 67 173 33 173 0 c 25
 151 0 129 0 107 0 c 25
 107 33 107 67 107 100 c 25
 118 100 129 100 140 100 c 25
 140 133 140 167 140 200 c 25
 151 200 162 200 173 200 c 25
 173 233 173 267 173 300 c 25
 184 300 196 300 207 300 c 25
 207 333 207 367 207 400 c 25
 196 400 184 400 173 400 c 25
 173 433 173 467 173 500 c 25
 162 500 151 500 140 500 c 25
 140 533 140 567 140 600 c 25
 129 600 118 600 107 600 c 25
 107 633 107 667 107 700 c 13
EndSplineSet
EndChar

StartChar: Y
Encoding: 89 89 52
Width: 430
Flags: HW
HStem: 0 21G<290 390> 600 100<90 140 540 590>
VStem: 90 100<600 700> 140 100<500 600> 190 100<400 500> 290 100<0 300> 390 100<400 500> 440 100<500 600> 490 100<600 700>
LayerCount: 2
Back
Fore
SplineSet
73 700 m 13
 95 700 118 700 140 700 c 25
 140 667 140 633 140 600 c 25
 151 600 162 600 173 600 c 25
 173 567 173 533 173 500 c 25
 184 500 196 500 207 500 c 25
 207 467 207 433 207 400 c 25
 229 400 251 400 273 400 c 25
 273 433 273 467 273 500 c 25
 284 500 296 500 307 500 c 25
 307 533 307 567 307 600 c 25
 318 600 329 600 340 600 c 25
 340 633 340 667 340 700 c 25
 362 700 385 700 407 700 c 25
 407 667 407 633 407 600 c 25
 396 600 384 600 373 600 c 25
 373 567 373 533 373 500 c 25
 362 500 351 500 340 500 c 25
 340 467 340 433 340 400 c 25
 329 400 318 400 307 400 c 25
 307 367 307 333 307 300 c 25
 296 300 284 300 273 300 c 25
 273 200 273 100 273 0 c 25
 251 0 229 0 207 0 c 25
 207 100 207 200 207 300 c 25
 196 300 184 300 173 300 c 25
 173 333 173 367 173 400 c 25
 162 400 151 400 140 400 c 25
 140 433 140 467 140 500 c 25
 129 500 118 500 107 500 c 25
 107 533 107 567 107 600 c 25
 96 600 84 600 73 600 c 25
 73 633 73 667 73 700 c 13
EndSplineSet
EndChar

StartChar: Z
Encoding: 90 90 53
Width: 430
Flags: HW
HStem: 0 100<140 190 290 540> 600 100<140 390 490 540>
VStem: 190 100<100 200> 240 100<200 300> 290 100<300 400> 340 100<400 500> 390 100<500 600>
LayerCount: 2
Back
Fore
SplineSet
107 700 m 13
 196 700 284 700 373 700 c 25
 373 667 373 633 373 600 c 25
 362 600 351 600 340 600 c 25
 340 567 340 533 340 500 c 25
 329 500 318 500 307 500 c 25
 307 467 307 433 307 400 c 25
 296 400 284 400 273 400 c 25
 273 367 273 333 273 300 c 25
 262 300 251 300 240 300 c 25
 240 267 240 233 240 200 c 25
 229 200 218 200 207 200 c 25
 207 167 207 133 207 100 c 25
 263 100 317 100 373 100 c 25
 373 67 373 33 373 0 c 25
 284 0 196 0 107 0 c 25
 107 33 107 67 107 100 c 25
 118 100 129 100 140 100 c 25
 140 133 140 167 140 200 c 25
 151 200 162 200 173 200 c 25
 173 233 173 267 173 300 c 25
 184 300 196 300 207 300 c 25
 207 333 207 367 207 400 c 25
 218 400 229 400 240 400 c 25
 240 433 240 467 240 500 c 25
 251 500 262 500 273 500 c 25
 273 533 273 567 273 600 c 25
 217 600 163 600 107 600 c 25
 107 633 107 667 107 700 c 13
EndSplineSet
EndChar

StartChar: a
Encoding: 97 97 54
Width: 430
Flags: HW
HStem: 0 100<190 440 540 589> 100 100<90 140> 200 100<190 440> 400 100<140 440>
VStem: 90 100<100 200> 440 100<100 200 300 400>
LayerCount: 2
Back
Fore
SplineSet
140 200 m 13
 140 167 140 133 140 100 c 25
 196 100 251 100 307 100 c 25
 307 133 307 167 307 200 c 25
 251 200 196 200 140 200 c 13
107 500 m 9
 185 500 262 500 340 500 c 25
 340 467 340 433 340 400 c 25
 351 400 362 400 373 400 c 25
 373 300 373 200 373 100 c 25
 384 100 395 100 406 100 c 25
 406 67 407 33 407 0 c 25
 307 0 207 0 107 0 c 25
 107 33 107 67 107 100 c 25
 96 100 84 100 73 100 c 25
 73 133 73 167 73 200 c 25
 84 200 96 200 107 200 c 25
 107 233 107 267 107 300 c 25
 174 300 240 300 307 300 c 25
 307 333 307 367 307 400 c 25
 240 400 174 400 107 400 c 25
 107 433 107 467 107 500 c 9
EndSplineSet
EndChar

StartChar: b
Encoding: 98 98 55
Width: 430
Flags: HW
HStem: 0 100<240 490> 300 100<240 290> 400 100<290 490> 680 20G<140 240>
VStem: 140 150<300 400> 140 100<100 300 400 700> 490 100<100 400>
LayerCount: 2
Back
Fore
SplineSet
340 400 m 13
 296 400 251 400 207 400 c 25
 207 367 207 333 207 300 c 25
 196 300 184 300 173 300 c 25
 173 233 173 167 173 100 c 25
 229 100 284 100 340 100 c 25
 340 200 340 300 340 400 c 13
107 700 m 9
 129 700 151 700 173 700 c 25
 173 600 173 500 173 400 c 25
 184 400 196 400 207 400 c 25
 207 433 207 467 207 500 c 25
 263 500 317 500 373 500 c 25
 373 467 373 433 373 400 c 25
 384 400 396 400 407 400 c 25
 407 300 407 200 407 100 c 25
 396 100 384 100 373 100 c 25
 373 67 373 33 373 0 c 25
 284 0 196 0 107 0 c 25
 107 233 107 467 107 700 c 9
EndSplineSet
EndChar

StartChar: c
Encoding: 99 99 56
Width: 430
Flags: HW
HStem: 0 100<290 590> 200 100<140 190> 400 100<290 590>
VStem: 140 100<200 300> 190 100<100 200 300 400>
CounterMasks: 1 e0
LayerCount: 2
Back
Fore
SplineSet
173 500 m 13
 251 500 329 500 407 500 c 25
 407 467 407 433 407 400 c 25
 340 400 274 400 207 400 c 25
 207 367 207 333 207 300 c 25
 196 300 184 300 173 300 c 25
 173 267 173 233 173 200 c 25
 184 200 196 200 207 200 c 25
 207 167 207 133 207 100 c 25
 274 100 340 100 407 100 c 25
 407 67 407 33 407 0 c 25
 329 0 251 0 173 0 c 25
 173 33 173 67 173 100 c 25
 162 100 151 100 140 100 c 25
 140 133 140 167 140 200 c 25
 129 200 118 200 107 200 c 25
 107 233 107 267 107 300 c 25
 118 300 129 300 140 300 c 25
 140 333 140 367 140 400 c 25
 151 400 162 400 173 400 c 25
 173 433 173 467 173 500 c 13
EndSplineSet
EndChar

StartChar: d
Encoding: 100 100 57
Width: 430
Flags: HW
HStem: 0 100<240 490> 300 100<440 490> 400 100<240 440> 680 20G<490 590>
VStem: 140 100<100 400> 440 150<300 400> 490 100<100 300 400 700>
LayerCount: 2
Back
Fore
SplineSet
173 100 m 13
 229 100 284 100 340 100 c 25
 340 167 340 233 340 300 c 25
 329 300 318 300 307 300 c 25
 307 333 307 367 307 400 c 25
 263 400 217 400 173 400 c 25
 173 300 173 200 173 100 c 13
340 700 m 9
 362 700 385 700 407 700 c 25
 407 467 407 233 407 0 c 25
 318 0 229 0 140 0 c 25
 140 33 140 67 140 100 c 25
 129 100 118 100 107 100 c 25
 107 200 107 300 107 400 c 25
 118 400 129 400 140 400 c 25
 140 433 140 467 140 500 c 25
 196 500 251 500 307 500 c 25
 307 467 307 433 307 400 c 25
 318 400 329 400 340 400 c 25
 340 500 340 600 340 700 c 9
EndSplineSet
EndChar

StartChar: e
Encoding: 101 101 58
Width: 430
Flags: HW
HStem: 0 100<190 540> 200 100<190 490> 400 101<190 490>
VStem: 90 100<100 200 300 400> 490 100<300 400>
LayerCount: 2
Back
Fore
SplineSet
140 400 m 13
 140 367 140 333 140 300 c 29
 207 300 273 300 340 300 c 29
 340 333 340 367 340 400 c 29
 273 400 207 400 140 400 c 13
107 400 m 13
 107 434 107 467 107 501 c 29
 196 501 284 500 373 500 c 29
 373 467 373 433 373 400 c 29
 384 400 396 400 407 400 c 29
 407 333 407 267 407 200 c 29
 318 200 229 200 140 200 c 29
 140 167 140 133 140 100 c 29
 218 100 295 100 373 100 c 29
 373 67 373 33 373 0 c 29
 284 0 196 0 107 0 c 29
 107 33 107 67 107 100 c 29
 96 100 84 100 73 100 c 29
 73 200 73 300 73 400 c 29
 84 400 96 400 107 400 c 13
EndSplineSet
EndChar

StartChar: f
Encoding: 102 102 59
Width: 430
Flags: HW
HStem: 0 21G<240 340> 300 100<140 240 340 490> 600 100<340 590>
VStem: 240 100<0 300 400 600>
LayerCount: 2
Back
Fore
SplineSet
207 600 m 13
 207 633 207 667 207 700 c 25
 274 700 340 700 407 700 c 25
 407 667 407 633 407 600 c 25
 351 600 296 600 240 600 c 25
 240 533 240 467 240 400 c 25
 273 400 307 400 340 400 c 25
 340 367 340 333 340 300 c 25
 307 300 273 300 240 300 c 25
 240 200 240 100 240 0 c 25
 218 0 195 0 173 0 c 25
 173 100 173 200 173 300 c 25
 151 300 129 300 107 300 c 25
 107 333 107 367 107 400 c 25
 129 400 151 400 173 400 c 25
 173 467 173 533 173 600 c 25
 184 600 196 600 207 600 c 13
EndSplineSet
EndChar

StartChar: g
Encoding: 103 103 60
Width: 430
Flags: HW
HStem: -200 100<190 490> 0 100<240 440> 100 100<440 490> 300 100<440 490> 400 100<240 440>
VStem: 140 100<100 400> 190 250<0 100 400 498> 440 150<100 200 300 400> 490 100<-100 100 200 300 400 500>
LayerCount: 2
Back
Fore
SplineSet
173 400 m 13
 173 300 173 200 173 100 c 25
 217 100 263 100 307 100 c 25
 307 133 307 167 307 200 c 25
 318 200 329 200 340 200 c 25
 340 233 340 267 340 300 c 25
 329 300 318 300 307 300 c 25
 307 333 307 367 307 400 c 25
 263 400 217 400 173 400 c 13
140 400 m 9
 140 433 140 465 140 498 c 25
 196 499 251 499 307 500 c 25
 307 467 307 433 307 400 c 25
 318 400 329 400 340 400 c 25
 340 433 340 467 340 500 c 25
 362 500 385 500 407 500 c 25
 407 300 407 100 407 -100 c 25
 396 -100 384 -100 373 -100 c 25
 373 -133 373 -167 373 -200 c 25
 295 -200 218 -200 140 -200 c 25
 140 -167 140 -133 140 -100 c 25
 207 -100 273 -100 340 -100 c 25
 340 -33 340 33 340 100 c 25
 329 100 318 100 307 100 c 25
 307 67 307 33 307 0 c 25
 251 0 196 0 140 0 c 25
 140 33 140 67 140 100 c 25
 129 100 118 100 107 100 c 25
 107 200 107 300 107 400 c 25
 118 400 129 400 140 400 c 9
EndSplineSet
EndChar

StartChar: h
Encoding: 104 104 61
Width: 430
Flags: HW
HStem: 0 21G<140 240 490 590> 300 100<240 290> 400 100<290 490> 680 20G<140 240>
VStem: 140 150<300 400> 140 100<0 300 400 700> 490 100<0 400>
LayerCount: 2
Back
Fore
SplineSet
107 700 m 13
 129 700 151 700 173 700 c 25
 173 600 173 500 173 400 c 25
 184 400 196 400 207 400 c 25
 207 433 207 467 207 500 c 25
 263 500 317 500 373 500 c 25
 373 467 373 433 373 400 c 25
 384 400 396 400 407 400 c 25
 407 267 407 133 407 0 c 25
 385 0 362 0 340 0 c 25
 340 133 340 267 340 400 c 25
 296 400 251 400 207 400 c 25
 207 367 207 333 207 300 c 25
 196 300 184 300 173 300 c 25
 173 200 173 100 173 0 c 25
 151 0 129 0 107 0 c 25
 107 233 107 467 107 700 c 13
EndSplineSet
EndChar

StartChar: i
Encoding: 105 105 62
Width: 430
Flags: HW
HStem: 0 100<190 290 389 490> 400 100<240 290> 600 100<240 390>
VStem: 240 150<400 500 600 700> 290 100<100 400>
LayerCount: 2
Back
Fore
SplineSet
173 500 m 1
 206 500 240 500 273 500 c 25
 273 367 273 233 273 100 c 25
 295 100 318 100 340 100 c 25
 340 67 340 33 340 0 c 25
 273 0 207 0 140 0 c 25
 140 33 140 67 140 100 c 25
 162 100 185 100 207 100 c 25
 207 200 207 300 207 400 c 1
 196 400 184 400 173 400 c 29
 173 433 173 467 173 500 c 1
173 700 m 9
 206 700 240 700 273 700 c 25
 273 667 273 633 273 600 c 25
 240 600 206 600 173 600 c 25
 173 633 173 667 173 700 c 9
EndSplineSet
EndChar

StartChar: j
Encoding: 106 106 63
Width: 430
Flags: HW
HStem: -200 100<240 490> -100 100<140 190> 400 100<440 490> 600 100<440 589>
VStem: 140 100<-100 0> 440 150<400 500 600 700> 490 100<-100 400>
LayerCount: 2
Back
Fore
SplineSet
307 400 m 13
 307 433 307 467 307 500 c 25
 340 500 374 500 407 500 c 25
 407 300 407 100 407 -100 c 25
 396 -100 384 -100 373 -100 c 25
 373 -133 373 -167 373 -200 c 25
 295 -200 218 -200 140 -200 c 25
 140 -167 140 -133 140 -100 c 25
 129 -100 118 -100 107 -100 c 25
 107 -67 107 -33 107 0 c 25
 129 0 151 0 173 0 c 25
 173 -33 173 -67 173 -100 c 25
 229 -100 284 -100 340 -100 c 25
 340 67 340 233 340 400 c 25
 329 400 318 400 307 400 c 13
307 700 m 9
 340 700 373 700 406 700 c 25
 406 667 407 633 407 600 c 25
 374 600 340 600 307 600 c 25
 307 633 307 667 307 700 c 9
EndSplineSet
EndChar

StartChar: k
Encoding: 107 107 64
Width: 430
Flags: HW
HStem: 0 100<440 540> 200 100<240 340> 400 100<440 540> 680 20G<140 240>
VStem: 140 100<0 200 300 700> 340 100<100 200 300 400> 390 150<0 100 400 500>
LayerCount: 2
Back
Fore
SplineSet
107 700 m 13
 129 700 151 700 173 700 c 25
 173 567 173 433 173 300 c 25
 195 300 218 300 240 300 c 25
 240 333 240 367 240 400 c 25
 251 400 262 400 273 400 c 25
 273 433 273 467 273 500 c 25
 306 500 340 500 373 500 c 25
 373 467 373 433 373 400 c 25
 351 400 329 400 307 400 c 25
 307 367 307 333 307 300 c 25
 296 300 284 300 273 300 c 25
 273 267 273 233 273 200 c 25
 284 200 296 200 307 200 c 25
 307 167 307 133 307 100 c 25
 329 100 351 100 373 100 c 25
 373 67 373 33 373 0 c 25
 340 0 306 0 273 0 c 25
 273 33 273 67 273 100 c 25
 262 100 251 100 240 100 c 25
 240 133 240 167 240 200 c 25
 218 200 195 200 173 200 c 25
 173 133 173 67 173 0 c 25
 151 0 129 0 107 0 c 25
 107 233 107 467 107 700 c 13
EndSplineSet
EndChar

StartChar: l
Encoding: 108 108 65
Width: 430
Flags: HW
HStem: 0 100<140 290 390 540> 650 100<190 290>
VStem: 290 100<100 650>
LayerCount: 2
Back
Fore
SplineSet
140 750 m 13
 184 750 229 750 273 750 c 25
 273 533 273 317 273 100 c 25
 306 100 340 100 373 100 c 25
 373 67 373 33 373 0 c 25
 284 0 196 0 107 0 c 25
 107 33 107 67 107 100 c 25
 140 100 174 100 207 100 c 25
 207 283 207 467 207 650 c 25
 185 650 162 650 140 650 c 25
 140 683 140 717 140 750 c 13
EndSplineSet
EndChar

StartChar: m
Encoding: 109 109 66
Width: 430
Flags: HW
HStem: 0 21G<90 190 290 390 490 590> 400 100<190 290 390 490>
VStem: 90 100<0 400> 290 100<0 400> 490 100<0 400>
CounterMasks: 1 38
LayerCount: 2
Back
Fore
SplineSet
73 0 m 13
 73 167 73 333 73 500 c 25
 173 500 273 500 373 500 c 25
 373 467 373 433 373 400 c 25
 384 400 396 400 407 400 c 25
 407 267 407 133 407 0 c 25
 385 0 362 0 340 0 c 25
 340 133 340 267 340 400 c 25
 318 400 295 400 273 400 c 25
 273 267 273 133 273 0 c 25
 251 0 229 0 207 0 c 25
 207 133 207 267 207 400 c 25
 185 400 162 400 140 400 c 25
 140 267 140 133 140 0 c 25
 118 0 95 0 73 0 c 13
EndSplineSet
EndChar

StartChar: n
Encoding: 110 110 67
Width: 430
Flags: HW
HStem: 0 21G<140 240 490 590> 300 100<240 290> 400 100<290 490>
VStem: 140 150<300 400> 140 100<0 300 400 500> 490 100<0 400>
LayerCount: 2
Back
Fore
SplineSet
107 0 m 13
 107 167 107 333 107 500 c 25
 129 500 151 500 173 500 c 25
 173 467 173 433 173 400 c 25
 184 400 196 400 207 400 c 25
 207 433 207 467 207 500 c 25
 263 500 317 500 373 500 c 25
 373 467 373 433 373 400 c 25
 384 400 396 400 407 400 c 25
 407 267 407 133 407 0 c 25
 385 0 362 0 340 0 c 25
 340 133 340 267 340 400 c 25
 296 400 251 400 207 400 c 25
 207 367 207 333 207 300 c 25
 196 300 184 300 173 300 c 25
 173 200 173 100 173 0 c 25
 151 0 129 0 107 0 c 13
EndSplineSet
EndChar

StartChar: o
Encoding: 111 111 68
Width: 430
Flags: HW
HStem: 0 100<240 490> 400 100<240 490>
VStem: 140 100<100 400> 490 100<100 400>
LayerCount: 2
Back
Fore
SplineSet
173 400 m 13
 173 300 173 200 173 100 c 25
 229 100 284 100 340 100 c 25
 340 200 340 300 340 400 c 25
 284 400 229 400 173 400 c 13
140 500 m 9
 218 500 295 500 373 500 c 25
 373 467 373 433 373 400 c 25
 384 400 396 400 407 400 c 25
 407 300 407 200 407 100 c 25
 396 100 384 100 373 100 c 25
 373 67 373 33 373 0 c 25
 295 0 218 0 140 0 c 25
 140 33 140 67 140 100 c 25
 129 100 118 100 107 100 c 25
 107 200 107 300 107 400 c 25
 118 400 129 400 140 400 c 25
 140 433 140 467 140 500 c 9
EndSplineSet
EndChar

StartChar: p
Encoding: 112 112 69
Width: 430
Flags: HW
HStem: -200 21G<140 240> 0 100<290 490> 100 100<240 290> 300 100<240 290> 400 100<290 490>
VStem: 140 150<100 200 300 400> 140 100<-200 100 200 300 400 500> 290 250<0 100 400 500> 490 100<100 400>
LayerCount: 2
Back
Fore
SplineSet
207 300 m 13
 196 300 184 300 173 300 c 25
 173 267 173 233 173 200 c 25
 184 200 196 200 207 200 c 25
 207 167 207 133 207 100 c 25
 251 100 296 100 340 100 c 25
 340 200 340 300 340 400 c 25
 296 400 251 400 207 400 c 25
 207 367 207 333 207 300 c 13
107 500 m 9
 129 500 151 500 173 500 c 25
 173 467 173 433 173 400 c 25
 184 400 196 400 207 400 c 25
 207 433 207 467 207 500 c 25
 263 500 317 500 373 500 c 25
 373 467 373 433 373 400 c 25
 384 400 396 400 407 400 c 25
 407 300 407 200 407 100 c 25
 396 100 384 100 373 100 c 25
 373 67 373 33 373 0 c 25
 317 0 263 0 207 0 c 25
 207 33 207 67 207 100 c 25
 196 100 184 100 173 100 c 25
 173 0 173 -100 173 -200 c 25
 151 -200 129 -200 107 -200 c 25
 107 33 107 267 107 500 c 9
EndSplineSet
EndChar

StartChar: q
Encoding: 113 113 70
Width: 430
Flags: HW
HStem: -200 21G<490 590> 0 100<240 440> 100 100<440 490> 300 100<440 490> 400 100<240 440>
VStem: 140 100<100 400> 190 250<0 100 400 500> 440 150<100 200 300 400> 490 100<-200 100 200 300 400 500>
LayerCount: 2
Back
Fore
SplineSet
173 400 m 13
 173 300 173 200 173 100 c 25
 217 100 263 100 307 100 c 25
 307 133 307 167 307 200 c 25
 318 200 329 200 340 200 c 25
 340 233 340 267 340 300 c 25
 329 300 318 300 307 300 c 25
 307 333 307 367 307 400 c 25
 263 400 217 400 173 400 c 13
140 500 m 9
 196 500 251 500 307 500 c 25
 307 467 307 433 307 400 c 25
 318 400 329 400 340 400 c 25
 340 433 340 467 340 500 c 25
 362 500 385 500 407 500 c 25
 407 267 407 33 407 -200 c 25
 385 -200 362 -200 340 -200 c 25
 340 -100 340 0 340 100 c 25
 329 100 318 100 307 100 c 25
 307 67 307 33 307 0 c 25
 251 0 196 0 140 0 c 25
 140 33 140 67 140 100 c 25
 129 100 118 100 107 100 c 25
 107 200 107 300 107 400 c 25
 118 400 129 400 140 400 c 25
 140 433 140 467 140 500 c 9
EndSplineSet
EndChar

StartChar: r
Encoding: 114 114 71
Width: 430
Flags: HW
HStem: 0 21G<140 240> 300 100<240 340> 400 100<340 590>
VStem: 140 100<0 300 400 500>
LayerCount: 2
Back
Fore
SplineSet
107 0 m 13
 107 167 107 333 107 500 c 25
 129 500 151 500 173 500 c 25
 173 467 173 433 173 400 c 25
 195 400 218 400 240 400 c 25
 240 433 240 467 240 500 c 25
 296 500 351 500 407 500 c 25
 407 467 407 433 407 400 c 25
 351 400 296 400 240 400 c 25
 240 367 240 333 240 300 c 25
 218 300 195 300 173 300 c 25
 173 200 173 100 173 0 c 25
 151 0 129 0 107 0 c 13
EndSplineSet
EndChar

StartChar: s
Encoding: 115 115 72
Width: 430
Flags: HW
HStem: 0 100<190 490> 100 100<540 590> 200 100<240 490> 300 100<140 190> 400 100<240 540>
VStem: 140 100<300 400> 190 350<0 100 200 300 400 500> 490 100<100 200>
LayerCount: 2
Back
Fore
SplineSet
373 400 m 1
 306 400 240 400 173 400 c 1
 173 367 173 333 173 300 c 1
 240 300 306 300 373 300 c 1
 373 267 373 233 373 200 c 25
 384 200 396 200 407 200 c 25
 407 167 407 133 407 100 c 25
 396 100 384 100 373 100 c 25
 373 67 373 33 373 0 c 1
 295 0 218 0 140 0 c 5
 140 33 140 67 140 100 c 1
 207 100 273 100 340 100 c 1
 340 133 340 167 340 200 c 1
 273 200 207 200 140 200 c 1
 140 233 140 267 140 300 c 1
 129 300 118 300 107 300 c 1
 107 333 107 367 107 400 c 1
 118 400 129 400 140 400 c 1
 140 433 140 467 140 500 c 1
 218 500 295 500 373 500 c 1
 373 467 373 433 373 400 c 1
EndSplineSet
EndChar

StartChar: t
Encoding: 116 116 73
Width: 430
Flags: HW
HStem: 0 100<340 590> 400 100<140 240 340 440> 680 20G<240 340>
VStem: 240 100<100 400 500 700>
LayerCount: 2
Back
Fore
SplineSet
173 700 m 13
 195 700 218 700 240 700 c 25
 240 633 240 567 240 500 c 25
 262 500 285 500 307 500 c 25
 307 467 307 433 307 400 c 25
 285 400 262 400 240 400 c 25
 240 300 240 200 240 100 c 25
 296 100 351 100 407 100 c 25
 407 67 407 33 407 0 c 25
 340 0 274 0 207 0 c 25
 207 33 207 67 207 100 c 25
 196 100 184 100 173 100 c 25
 173 200 173 300 173 400 c 25
 151 400 129 400 107 400 c 25
 107 433 107 467 107 500 c 25
 129 500 151 500 173 500 c 25
 173 567 173 633 173 700 c 13
EndSplineSet
EndChar

StartChar: u
Encoding: 117 117 74
Width: 430
Flags: HW
HStem: 0 100<240 440> 100 100<440 490> 480 20G<140 240 490 590>
VStem: 140 100<100 500> 440 150<100 200> 490 100<0 100 200 500>
LayerCount: 2
Back
Fore
SplineSet
107 500 m 13
 129 500 151 500 173 500 c 25
 173 367 173 233 173 100 c 25
 217 100 263 100 307 100 c 25
 307 133 307 167 307 200 c 25
 318 200 329 200 340 200 c 25
 340 300 340 400 340 500 c 25
 362 500 385 500 407 500 c 25
 407 333 407 167 407 0 c 25
 385 0 362 0 340 0 c 25
 340 33 340 67 340 100 c 25
 329 100 318 100 307 100 c 25
 307 67 307 33 307 0 c 25
 251 0 196 0 140 0 c 25
 140 33 140 67 140 100 c 25
 129 100 118 100 107 100 c 25
 107 233 107 367 107 500 c 13
EndSplineSet
EndChar

StartChar: v
Encoding: 118 118 75
Width: 430
Flags: HW
HStem: 0 21G<290 390> 400 100<90 140 540 590>
VStem: 90 100<400 500> 140 100<300 400> 190 100<200 300> 290 100<0 100> 390 100<200 300> 440 100<300 400> 490 100<400 500>
LayerCount: 2
Back
Fore
SplineSet
73 500 m 13
 95 500 118 500 140 500 c 25
 140 467 140 433 140 400 c 25
 151 400 162 400 173 400 c 25
 173 367 173 333 173 300 c 25
 184 300 196 300 207 300 c 25
 207 267 207 233 207 200 c 25
 229 200 251 200 273 200 c 25
 273 233 273 267 273 300 c 25
 284 300 296 300 307 300 c 25
 307 333 307 367 307 400 c 25
 318 400 329 400 340 400 c 25
 340 433 340 467 340 500 c 25
 362 500 385 500 407 500 c 25
 407 467 407 433 407 400 c 25
 396 400 384 400 373 400 c 25
 373 367 373 333 373 300 c 25
 362 300 351 300 340 300 c 25
 340 267 340 233 340 200 c 25
 329 200 318 200 307 200 c 25
 307 167 307 133 307 100 c 25
 296 100 284 100 273 100 c 25
 273 67 273 33 273 0 c 25
 251 0 229 0 207 0 c 25
 207 33 207 67 207 100 c 25
 196 100 184 100 173 100 c 25
 173 133 173 167 173 200 c 25
 162 200 151 200 140 200 c 25
 140 233 140 267 140 300 c 25
 129 300 118 300 107 300 c 25
 107 333 107 367 107 400 c 25
 96 400 84 400 73 400 c 25
 73 433 73 467 73 500 c 13
EndSplineSet
EndChar

StartChar: w
Encoding: 119 119 76
Width: 430
Flags: HW
HStem: 0 100<240 290 390 440> 480 20G<90 190 490 590>
VStem: 90 100<200 500> 140 100<100 200> 290 100<100 400> 440 100<100 200> 490 100<200 500>
LayerCount: 2
Back
Fore
SplineSet
340 500 m 13
 362 500 385 500 407 500 c 25
 407 400 407 300 407 200 c 25
 396 200 384 200 373 200 c 25
 373 167 373 133 373 100 c 25
 362 100 351 100 340 100 c 25
 340 67 340 33 340 0 c 25
 318 0 295 0 273 0 c 25
 273 33 273 67 273 100 c 25
 251 100 229 100 207 100 c 25
 207 67 207 33 207 0 c 25
 185 0 162 0 140 0 c 25
 140 33 140 67 140 100 c 25
 129 100 118 100 107 100 c 25
 107 133 107 167 107 200 c 25
 96 200 84 200 73 200 c 25
 73 300 73 400 73 500 c 25
 95 500 118 500 140 500 c 25
 140 400 140 300 140 200 c 25
 151 200 162 200 173 200 c 25
 173 167 173 133 173 100 c 25
 184 100 196 100 207 100 c 25
 207 200 207 300 207 400 c 25
 229 400 251 400 273 400 c 25
 273 300 273 200 273 100 c 25
 284 100 296 100 307 100 c 25
 307 133 307 167 307 200 c 25
 318 200 329 200 340 200 c 25
 340 300 340 400 340 500 c 13
EndSplineSet
EndChar

StartChar: x
Encoding: 120 120 77
Width: 430
Flags: HW
HStem: 0 100<90 190 490 590> 200 100<290 390> 400 100<90 190 490 590>
VStem: 90 150<0 100 400 500> 190 100<100 200 300 400> 390 100<100 200 300 400> 440 150<0 100 400 500>
CounterMasks: 1 e0
LayerCount: 2
Back
Fore
SplineSet
73 500 m 13
 106 500 140 500 173 500 c 25
 173 467 173 433 173 400 c 25
 184 400 196 400 207 400 c 25
 207 367 207 333 207 300 c 25
 229 300 251 300 273 300 c 25
 273 333 273 367 273 400 c 25
 284 400 296 400 307 400 c 25
 307 433 307 467 307 500 c 25
 340 500 374 500 407 500 c 25
 407 467 407 433 407 400 c 25
 385 400 362 400 340 400 c 25
 340 367 340 333 340 300 c 25
 329 300 318 300 307 300 c 25
 307 267 307 233 307 200 c 25
 318 200 329 200 340 200 c 25
 340 167 340 133 340 100 c 25
 362 100 385 100 407 100 c 25
 407 67 407 33 407 0 c 25
 374 0 340 0 307 0 c 25
 307 33 307 67 307 100 c 25
 296 100 284 100 273 100 c 25
 273 133 273 167 273 200 c 25
 251 200 229 200 207 200 c 25
 207 167 207 133 207 100 c 25
 196 100 184 100 173 100 c 25
 173 67 173 33 173 0 c 25
 140 0 106 0 73 0 c 25
 73 33 73 67 73 100 c 25
 95 100 118 100 140 100 c 25
 140 133 140 167 140 200 c 25
 151 200 162 200 173 200 c 25
 173 233 173 267 173 300 c 25
 162 300 151 300 140 300 c 25
 140 333 140 367 140 400 c 25
 118 400 95 400 73 400 c 25
 73 433 73 467 73 500 c 13
EndSplineSet
EndChar

StartChar: y
Encoding: 121 121 78
Width: 430
Flags: HW
HStem: -200 100<140 240> 400 100<140 190 540 590>
VStem: 140 100<400 500> 190 100<300 400> 240 100<-100 0 200 300> 290 150<100 200> 290 100<0 100> 390 100<200 300> 440 100<300 400> 490 100<400 500>
LayerCount: 2
Back
Fore
SplineSet
107 500 m 13
 129 500 151 500 173 500 c 25
 173 467 173 433 173 400 c 25
 184 400 196 400 207 400 c 25
 207 367 207 333 207 300 c 25
 218 300 229 300 240 300 c 25
 240 267 240 233 240 200 c 25
 251 200 262 200 273 200 c 25
 273 233 273 267 273 300 c 25
 284 300 296 300 307 300 c 25
 307 333 307 367 307 400 c 25
 318 400 329 400 340 400 c 25
 340 433 340 467 340 500 c 25
 362 500 385 500 407 500 c 25
 407 467 407 433 407 400 c 25
 396 400 384 400 373 400 c 25
 373 367 373 333 373 300 c 25
 362 300 351 300 340 300 c 25
 340 267 340 233 340 200 c 25
 329 200 318 200 307 200 c 25
 307 167 307 133 307 100 c 25
 296 100 284 100 273 100 c 25
 273 67 273 33 273 0 c 25
 262 0 251 0 240 0 c 25
 240 -33 240 -67 240 -100 c 25
 229 -100 218 -100 207 -100 c 25
 207 -133 207 -167 207 -200 c 25
 174 -200 140 -200 107 -200 c 25
 107 -167 107 -133 107 -100 c 25
 129 -100 151 -100 173 -100 c 25
 173 -67 173 -33 173 0 c 25
 184 0 196 0 207 0 c 25
 207 67 207 133 207 200 c 25
 196 200 184 200 173 200 c 25
 173 233 173 267 173 300 c 25
 162 300 151 300 140 300 c 25
 140 333 140 367 140 400 c 25
 129 400 118 400 107 400 c 25
 107 433 107 467 107 500 c 13
EndSplineSet
EndChar

StartChar: z
Encoding: 122 122 79
Width: 430
Flags: HW
HStem: 0 100<140 240 340 540> 400 100<140 340 440 540>
VStem: 240 100<100 200> 290 100<200 300> 340 100<300 400>
LayerCount: 2
Back
Fore
SplineSet
107 500 m 13
 196 500 284 500 373 500 c 25
 373 467 373 433 373 400 c 25
 351 400 329 400 307 400 c 25
 307 367 307 333 307 300 c 25
 296 300 284 300 273 300 c 25
 273 267 273 233 273 200 c 25
 262 200 251 200 240 200 c 25
 240 167 240 133 240 100 c 25
 284 100 329 100 373 100 c 25
 373 67 373 33 373 0 c 25
 284 0 196 0 107 0 c 25
 107 33 107 67 107 100 c 25
 129 100 151 100 173 100 c 25
 173 133 173 167 173 200 c 25
 184 200 196 200 207 200 c 25
 207 233 207 267 207 300 c 25
 218 300 229 300 240 300 c 25
 240 333 240 367 240 400 c 25
 196 400 151 400 107 400 c 25
 107 433 107 467 107 500 c 13
EndSplineSet
EndChar

StartChar: edieresis
Encoding: 235 235 82
Width: 430
Flags: HW
HStem: 0 100<190 540> 200 100<190 490> 400 101<190 490> 600 100<190 290 390 490>
VStem: 90 100<100 200 300 400> 190 100<600 700> 390 100<600 700> 490 100<300 400>
LayerCount: 2
Back
Fore
SplineSet
273 700 m 13
 295 700 318 700 340 700 c 25
 340 667 340 633 340 600 c 25
 318 600 295 600 273 600 c 25
 273 633 273 667 273 700 c 13
140 700 m 9
 162 700 185 700 207 700 c 25
 207 667 207 633 207 600 c 25
 185 600 162 600 140 600 c 25
 140 633 140 667 140 700 c 9
140 400 m 9
 140 367 140 333 140 300 c 25
 207 300 273 300 340 300 c 25
 340 333 340 367 340 400 c 25
 273 400 207 400 140 400 c 9
107 400 m 9
 107 434 107 467 107 501 c 25
 196 501 284 500 373 500 c 25
 373 467 373 433 373 400 c 25
 384 400 396 400 407 400 c 25
 407 333 407 267 407 200 c 25
 318 200 229 200 140 200 c 25
 140 167 140 133 140 100 c 25
 218 100 295 100 373 100 c 25
 373 67 373 33 373 0 c 25
 284 0 196 0 107 0 c 25
 107 33 107 67 107 100 c 25
 96 100 84 100 73 100 c 25
 73 200 73 300 73 400 c 25
 84 400 96 400 107 400 c 9
EndSplineSet
EndChar

StartChar: uni0401
Encoding: 1025 1025 97
Width: 430
Flags: HW
HStem: 0 100<240 590> 300 100<240 490> 500 100<240 590> 700 100<190 290 440 540>
VStem: 140 100<100 300 400 500> 190 100<700 800> 440 100<700 800>
LayerCount: 2
Back
Fore
SplineSet
307 700 m 9
 307 733 307 767 307 800 c 25
 329 800 351 800 373 800 c 25
 373 767 373 733 373 700 c 25
 351 700 329 700 307 700 c 9
140 700 m 9
 140 733 140 767 140 800 c 25
 162 800 185 800 207 800 c 25
 207 767 207 733 207 700 c 25
 185 700 162 700 140 700 c 9
407 500 m 1
 329 500 251 500 173 500 c 1
 173 467 173 433 173 400 c 1
 229 400 284 400 340 400 c 25
 340 367 340 333 340 300 c 25
 284 300 229 300 173 300 c 25
 173 233 173 167 173 100 c 25
 251 100 329 100 407 100 c 25
 407 67 407 33 407 0 c 25
 307 0 207 0 107 0 c 1
 107 200 107 400 107 600 c 1
 207 600 307 600 407 600 c 1
 407 567 407 533 407 500 c 1
EndSplineSet
EndChar

StartChar: uni0404
Encoding: 1028 1028 100
Width: 430
Flags: HW
HStem: 0 100<240 440> 100 100<490 540> 300 100<190 390> 500 100<490 540> 600 100<240 440>
VStem: 90 100<200 300 400 500> 140 100<100 200 500 600> 190 300<0 100 600 700> 440 100<100 200 500 600>
LayerCount: 2
Back
Fore
SplineSet
173 500 m 13
 162 500 151 500 140 500 c 25
 140 467 140 433 140 400 c 25
 184 400 229 400 273 400 c 25
 273 367 273 333 273 300 c 25
 229 300 184 300 140 300 c 25
 140 267 140 233 140 200 c 25
 151 200 162 200 173 200 c 25
 173 167 173 133 173 100 c 25
 217 100 263 100 307 100 c 25
 307 133 307 167 307 200 c 25
 329 200 351 200 373 200 c 25
 373 167 373 133 373 100 c 25
 362 100 351 100 340 100 c 25
 340 67 340 33 340 0 c 25
 273 0 207 0 140 0 c 25
 140 33 140 67 140 100 c 25
 129 100 118 100 107 100 c 25
 107 133 107 167 107 200 c 25
 96 200 84 200 73 200 c 25
 73 300 73 400 73 500 c 25
 84 500 96 500 107 500 c 25
 107 533 107 567 107 600 c 25
 118 600 129 600 140 600 c 25
 140 633 140 667 140 700 c 25
 207 700 273 700 340 700 c 25
 340 667 340 633 340 600 c 25
 351 600 362 600 373 600 c 25
 373 567 373 533 373 500 c 25
 351 500 329 500 307 500 c 25
 307 533 307 567 307 600 c 25
 263 600 217 600 173 600 c 25
 173 567 173 533 173 500 c 13
EndSplineSet
EndChar

StartChar: uni0406
Encoding: 1030 1030 102
Width: 430
Flags: HW
HStem: 0 100<140 290 390 540> 600 100<140 290 390 540>
VStem: 290 100<100 600>
LayerCount: 2
Back
Fore
SplineSet
107 700 m 13
 196 700 284 700 373 700 c 25
 373 667 373 633 373 600 c 25
 340 600 306 600 273 600 c 25
 273 433 273 267 273 100 c 25
 306 100 340 100 373 100 c 25
 373 67 373 33 373 0 c 25
 284 0 196 0 107 0 c 25
 107 33 107 67 107 100 c 25
 140 100 174 100 207 100 c 25
 207 267 207 433 207 600 c 25
 174 600 140 600 107 600 c 25
 107 633 107 667 107 700 c 13
EndSplineSet
EndChar

StartChar: uni0407
Encoding: 1031 1031 103
Width: 430
Flags: HMW
LayerCount: 2
Back
Fore
SplineSet
273 650 m 13
 273 683 273 717 273 750 c 25
 295 750 318 750 340 750 c 25
 340 717 340 683 340 650 c 25
 318 650 295 650 273 650 c 13
140 650 m 9
 140 683 140 717 140 750 c 25
 162 750 185 750 207 750 c 25
 207 717 207 683 207 650 c 25
 185 650 162 650 140 650 c 9
107 500 m 9
 107 533 107 567 107 600 c 25
 196 600 284 600 373 600 c 25
 373 567 373 533 373 500 c 25
 340 500 306 500 273 500 c 25
 273 367 273 233 273 100 c 25
 306 100 340 100 373 100 c 25
 373 67 373 33 373 0 c 25
 284 0 196 0 107 0 c 25
 107 33 107 67 107 100 c 25
 140 100 174 100 207 100 c 25
 207 233 207 367 207 500 c 25
 174 500 140 500 107 500 c 9
EndSplineSet
EndChar

StartChar: uni040E
Encoding: 1038 1038 109
Width: 430
Flags: HW
HStem: 0 100<240 490> 100 100<140 190> 300 100<240 490> 680 20G<140 240 490 590> 700 100<340 390>
VStem: 140 100<100 200 400 700> 340 50<700 800> 490 100<100 300 400 700>
CounterMasks: 1 07
LayerCount: 2
Back
Fore
SplineSet
240 700 m 13
 240 733 240 767 240 800 c 25
 251 800 262 800 273 800 c 25
 273 767 273 733 273 700 c 25
 262 700 251 700 240 700 c 13
107 700 m 9
 129 700 151 700 173 700 c 25
 173 600 173 500 173 400 c 25
 229 400 284 400 340 400 c 25
 340 500 340 600 340 700 c 25
 362 700 385 700 407 700 c 25
 407 500 407 300 407 100 c 25
 396 100 384 100 373 100 c 25
 373 67 373 33 373 0 c 25
 295 0 218 0 140 0 c 25
 140 33 140 67 140 100 c 25
 129 100 118 100 107 100 c 25
 107 133 107 167 107 200 c 25
 129 200 151 200 173 200 c 25
 173 167 173 133 173 100 c 25
 229 100 284 100 340 100 c 25
 340 167 340 233 340 300 c 25
 273 300 207 300 140 300 c 25
 140 333 140 367 140 400 c 25
 129 400 118 400 107 400 c 25
 107 500 107 600 107 700 c 9
EndSplineSet
EndChar

StartChar: uni0410
Encoding: 1040 1040 111
Width: 430
Flags: HW
HStem: 0 21G<90 190 490 590> 200 100<190 490> 600 100<290 390>
VStem: 90 100<0 200 300 400> 140 100<400 500> 190 100<500 600> 390 100<500 600> 440 100<400 500> 490 100<0 200 300 400>
LayerCount: 2
Back
Fore
SplineSet
140 400 m 13
 140 367 140 333 140 300 c 25
 207 300 273 300 340 300 c 25
 340 333 340 367 340 400 c 25
 329 400 318 400 307 400 c 25
 307 433 307 467 307 500 c 25
 296 500 284 500 273 500 c 25
 273 533 273 567 273 600 c 25
 251 600 229 600 207 600 c 25
 207 567 207 533 207 500 c 25
 196 500 184 500 173 500 c 25
 173 467 173 433 173 400 c 25
 162 400 151 400 140 400 c 13
140 0 m 9
 118 0 95 0 73 0 c 25
 73 133 73 267 73 400 c 25
 84 400 96 400 107 400 c 25
 107 433 107 467 107 500 c 25
 118 500 129 500 140 500 c 25
 140 533 140 567 140 600 c 25
 151 600 162 600 173 600 c 25
 173 633 173 667 173 700 c 25
 217 700 262 700 306 700 c 25
 306 667 307 633 307 600 c 25
 318 600 329 600 340 600 c 25
 340 567 340 533 340 500 c 25
 351 500 362 500 373 500 c 25
 373 467 373 433 373 400 c 25
 384 400 396 400 407 400 c 25
 407 267 407 133 407 0 c 25
 385 0 362 0 340 0 c 25
 340 67 340 133 340 200 c 25
 273 200 207 200 140 200 c 25
 140 133 140 67 140 0 c 9
EndSplineSet
EndChar

StartChar: uni0411
Encoding: 1041 1041 112
Width: 430
Flags: HW
HStem: 0 100<240 490> 300 100<240 490> 600 100<240 540>
VStem: 140 400<0 100 300 400 600 700> 140 100<100 300 400 600> 490 100<100 300>
CounterMasks: 1 e0
LayerCount: 2
Back
Fore
SplineSet
173 100 m 13
 229 100 284 100 340 100 c 25
 340 167 340 233 340 300 c 25
 284 300 229 300 173 300 c 25
 173 233 173 167 173 100 c 13
107 700 m 9
 196 700 284 700 373 700 c 25
 373 667 373 633 373 600 c 25
 306 600 240 600 173 600 c 25
 173 533 173 467 173 400 c 25
 240 400 306 400 373 400 c 25
 373 367 373 333 373 300 c 25
 384 300 396 300 407 300 c 25
 407 233 407 167 407 100 c 25
 396 100 384 100 373 100 c 25
 373 67 373 33 373 0 c 25
 284 0 196 0 107 0 c 25
 107 233 107 467 107 700 c 9
EndSplineSet
EndChar

StartChar: uni0412
Encoding: 1042 1042 113
Width: 430
Flags: HW
HStem: 0 100<240 490> 300 100<240 490> 600 100<240 490>
VStem: 140 400<0 100 300 400 600 700> 140 100<100 300 400 600> 490 100<100 300 400 600>
CounterMasks: 1 e0
LayerCount: 2
Back
Fore
SplineSet
173 600 m 13
 173 533 173 467 173 400 c 25
 229 400 284 400 340 400 c 25
 340 467 340 533 340 600 c 25
 284 600 229 600 173 600 c 13
173 300 m 9
 173 233 173 167 173 100 c 25
 229 100 284 100 340 100 c 25
 340 167 340 233 340 300 c 25
 284 300 229 300 173 300 c 9
107 0 m 9
 107 233 107 467 107 700 c 25
 196 700 284 700 373 700 c 25
 373 667 373 633 373 600 c 25
 384 600 396 600 407 600 c 25
 407 533 407 467 407 400 c 25
 396 400 384 400 373 400 c 25
 373 367 373 333 373 300 c 25
 384 300 396 300 407 300 c 25
 407 233 407 167 407 100 c 25
 396 100 384 100 373 100 c 25
 373 67 373 33 373 0 c 25
 284 0 196 0 107 0 c 9
EndSplineSet
EndChar

StartChar: uni0413
Encoding: 1043 1043 114
Width: 430
Flags: HW
HStem: 0 21G<140 240> 600 100<240 590>
VStem: 140 100<0 600>
LayerCount: 2
Back
Fore
SplineSet
107 700 m 13
 207 700 307 700 407 700 c 25
 407 667 407 633 407 600 c 25
 329 600 251 600 173 600 c 25
 173 400 173 200 173 0 c 25
 151 0 129 0 107 0 c 25
 107 233 107 467 107 700 c 13
EndSplineSet
EndChar

StartChar: uni0414
Encoding: 1044 1044 115
Width: 430
Flags: HW
HStem: 0 100<290 440> 600 100<340 440>
VStem: 140 100<-100 0> 190 100<100 500> 240 100<500 600> 440 100<100 600> 490 100<-100 0>
LayerCount: 2
Back
Fore
SplineSet
240 600 m 13
 240 567 240 533 240 500 c 25
 229 500 218 500 207 500 c 25
 207 367 207 233 207 100 c 25
 240 100 274 100 307 100 c 25
 307 267 307 433 307 600 c 25
 285 600 262 600 240 600 c 13
173 500 m 9
 173 533 173 567 173 600 c 25
 184 600 196 600 207 600 c 25
 207 633 207 667 207 700 c 25
 263 700 317 700 373 700 c 25
 373 500 373 300 373 100 c 25
 384 100 396 100 407 100 c 25
 407 33 407 -33 407 -100 c 25
 385 -100 362 -100 340 -100 c 25
 340 -67 340 -33 340 0 c 25
 284 0 229 0 173 0 c 25
 173 -33 173 -67 173 -100 c 25
 151 -100 129 -100 107 -100 c 25
 107 -33 107 33 107 100 c 25
 118 100 129 100 140 100 c 25
 140 233 140 367 140 500 c 25
 151 500 162 500 173 500 c 9
EndSplineSet
EndChar

StartChar: uni0415
Encoding: 1045 1045 116
Width: 430
Flags: HW
HStem: 0 100<240 590> 300 100<240 490> 600 100<240 590>
VStem: 140 100<100 300 400 600>
CounterMasks: 1 e0
LayerCount: 2
Back
Fore
SplineSet
407 600 m 13
 329 600 251 600 173 600 c 29
 173 533 173 467 173 400 c 29
 229 400 284 400 340 400 c 29
 340 367 340 333 340 300 c 29
 284 300 229 300 173 300 c 29
 173 233 173 167 173 100 c 29
 251 100 329 100 407 100 c 29
 407 67 407 33 407 0 c 29
 307 0 207 0 107 0 c 29
 107 233 107 467 107 700 c 29
 207 700 307 700 407 700 c 29
 407 667 407 633 407 600 c 13
EndSplineSet
EndChar

StartChar: uni0416
Encoding: 1046 1046 117
Width: 430
Flags: HW
HStem: 0 21G<90 190 290 390 490 590> 300 100<240 290 390 440> 680 20G<90 189.1 290 390 490 590>
VStem: 90 100<0 200 500 700> 140 100<200 300 400 500> 290 100<0 300 400 700> 440 100<200 300 400 500> 490 100<0 200 500 700>
LayerCount: 2
Back
Fore
SplineSet
73 700 m 13
 95 700 117 700 139 700 c 25
 139 633 140 567 140 500 c 25
 151 500 162 500 173 500 c 25
 173 467 173 433 173 400 c 25
 184 400 196 400 207 400 c 25
 207 500 207 600 207 700 c 25
 229 700 251 700 273 700 c 25
 273 600 273 500 273 400 c 25
 284 400 296 400 307 400 c 25
 307 433 307 467 307 500 c 25
 318 500 329 500 340 500 c 25
 340 567 340 633 340 700 c 25
 362 700 385 700 407 700 c 25
 407 633 407 567 407 500 c 25
 396 500 384 500 373 500 c 25
 373 467 373 433 373 400 c 25
 362 400 351 400 340 400 c 25
 340 367 339 333 339 300 c 25
 350 300 362 300 373 300 c 25
 373 267 373 233 373 200 c 25
 384 200 396 200 407 200 c 25
 407 133 407 67 407 0 c 25
 385 0 362 0 340 0 c 25
 340 67 340 133 340 200 c 25
 329 200 318 200 307 200 c 25
 307 233 307 267 307 300 c 25
 296 300 284 300 273 300 c 25
 273 200 273 100 273 0 c 25
 251 0 229 0 207 0 c 25
 207 100 207 200 207 300 c 25
 196 300 184 300 173 300 c 25
 173 267 173 233 173 200 c 25
 162 200 151 200 140 200 c 25
 140 133 140 67 140 0 c 25
 118 0 95 0 73 0 c 25
 73 67 73 133 73 200 c 25
 84 200 96 200 107 200 c 25
 107 233 107 267 107 300 c 25
 118 300 129 300 140 300 c 25
 140 333 140 367 140 400 c 25
 129 400 118 400 107 400 c 25
 107 433 107 467 107 500 c 25
 96 500 84 500 73 500 c 25
 73 567 73 633 73 700 c 13
EndSplineSet
EndChar

StartChar: uni0417
Encoding: 1047 1047 118
Width: 430
Flags: HW
HStem: 0 100<240 490> 100 100<140 190> 300 100<290 490> 500 100<140 190> 600 100<240 490>
VStem: 140 100<100 200 500 600> 490 100<100 300 400 600>
LayerCount: 2
Back
Fore
SplineSet
107 500 m 13
 107 533 107 567 107 600 c 1
 118 600 129 600 140 600 c 25
 140 633 140 667 140 700 c 25
 218 700 295 700 373 700 c 25
 373 667 373 633 373 600 c 25
 384 600 396 600 407 600 c 25
 407 533 407 467 407 400 c 25
 396 400 384 400 373 400 c 25
 373 367 373 333 373 300 c 25
 384 300 396 300 407 300 c 25
 407 233 407 167 407 100 c 25
 396 100 384 100 373 100 c 25
 373 67 373 33 373 0 c 25
 295 0 218 0 140 0 c 25
 140 33 140 67 140 100 c 25
 129 100 118 100 107 100 c 25
 107 133 107 167 107 200 c 25
 129 200 151 200 173 200 c 25
 173 167 173 133 173 100 c 25
 229 100 284 100 340 100 c 25
 340 167 340 233 340 300 c 25
 296 300 251 300 207 300 c 25
 207 333 207 367 207 400 c 25
 251 400 296 400 340 400 c 25
 340 467 340 533 340 600 c 25
 284 600 229 600 173 600 c 25
 173 567 173 533 173 500 c 1
 151 500 129 500 107 500 c 13
EndSplineSet
EndChar

StartChar: uni0418
Encoding: 1048 1048 119
Width: 430
Flags: HW
HStem: 0 21G<90 240 490 590> 680 20G<90 190 440 590>
VStem: 90 150<0 100> 90 100<200 700> 240 100<200 300> 290 100<300 400> 340 100<400 500> 440 150<600 700> 490 100<0 500>
LayerCount: 2
Back
Fore
SplineSet
73 700 m 13
 95 700 118 700 140 700 c 29
 140 533 140 367 140 200 c 29
 151 200 162 200 173 200 c 29
 173 233 173 267 173 300 c 29
 184 300 196 300 207 300 c 29
 207 333 207 367 207 400 c 29
 218 400 229 400 240 400 c 29
 240 433 240 467 240 500 c 29
 251 500 262 500 273 500 c 29
 273 533 273 567 273 600 c 29
 284 600 296 600 307 600 c 29
 307 633 307 667 307 700 c 29
 340 700 374 700 407 700 c 29
 407 467 407 233 407 0 c 29
 385 0 362 0 340 0 c 29
 340 167 340 333 340 500 c 29
 329 500 318 500 307 500 c 29
 307 467 307 433 307 400 c 29
 296 400 284 400 273 400 c 29
 273 367 273 333 273 300 c 29
 262 300 251 300 240 300 c 29
 240 267 240 233 240 200 c 29
 229 200 218 200 207 200 c 29
 207 167 207 133 207 100 c 29
 196 100 184 100 173 100 c 29
 173 67 173 33 173 0 c 29
 140 0 106 0 73 0 c 29
 73 233 73 467 73 700 c 13
EndSplineSet
EndChar

StartChar: uni0419
Encoding: 1049 1049 120
Width: 430
Flags: HW
HStem: 0 21G<90 240 490 590> 680 20G<90 190 440 590> 700 100<290 340>
VStem: 90 150<0 100> 90 100<200 700> 240 100<200 300> 290 100<300 400> 290 50<700 800> 340 100<400 500> 440 150<600 700> 490 100<0 500>
LayerCount: 2
Back
Fore
SplineSet
207 700 m 13
 207 733 207 767 207 800 c 25
 218 800 229 800 240 800 c 25
 240 767 240 733 240 700 c 25
 229 700 218 700 207 700 c 13
73 700 m 9
 95 700 118 700 140 700 c 25
 140 533 140 367 140 200 c 25
 151 200 162 200 173 200 c 25
 173 233 173 267 173 300 c 25
 184 300 196 300 207 300 c 25
 207 333 207 367 207 400 c 25
 218 400 229 400 240 400 c 25
 240 433 240 467 240 500 c 25
 251 500 262 500 273 500 c 25
 273 533 273 567 273 600 c 25
 284 600 296 600 307 600 c 25
 307 633 307 667 307 700 c 25
 340 700 374 700 407 700 c 25
 407 467 407 233 407 0 c 25
 385 0 362 0 340 0 c 25
 340 167 340 333 340 500 c 25
 329 500 318 500 307 500 c 25
 307 467 307 433 307 400 c 25
 296 400 284 400 273 400 c 25
 273 367 273 333 273 300 c 25
 262 300 251 300 240 300 c 25
 240 267 240 233 240 200 c 25
 229 200 218 200 207 200 c 25
 207 167 207 133 207 100 c 25
 196 100 184 100 173 100 c 25
 173 67 173 33 173 0 c 25
 140 0 106 0 73 0 c 25
 73 233 73 467 73 700 c 9
EndSplineSet
EndChar

StartChar: uni041A
Encoding: 1050 1050 121
Width: 430
Flags: HW
HStem: 0 100<490 590> 200 100<340 390> 300 100<240 290> 400 100<340 390> 600 100<490 590>
VStem: 140 100<0 300 400 700> 290 150<200 300 400 500> 390 100<100 200 500 600> 440 150<0 100 600 700>
LayerCount: 2
Back
Fore
SplineSet
107 700 m 13
 129 700 151 700 173 700 c 25
 173 600 173 500 173 400 c 25
 184 400 196 400 207 400 c 25
 207 433 207 467 207 500 c 25
 229 500 251 500 273 500 c 25
 273 533 273 567 273 600 c 25
 284 600 296 600 307 600 c 25
 307 633 307 667 307 700 c 25
 340 700 374 700 407 700 c 25
 407 667 407 633 407 600 c 25
 385 600 362 600 340 600 c 25
 340 567 340 533 340 500 c 25
 329 500 318 500 307 500 c 25
 307 467 307 433 307 400 c 25
 285 400 262 400 240 400 c 25
 240 367 240 333 240 300 c 25
 262 300 285 300 307 300 c 25
 307 267 307 233 307 200 c 25
 318 200 329 200 340 200 c 25
 340 167 340 133 340 100 c 25
 362 100 385 100 407 100 c 25
 407 67 407 33 407 0 c 25
 374 0 340 0 307 0 c 25
 307 33 307 67 307 100 c 25
 296 100 284 100 273 100 c 25
 273 133 273 167 273 200 c 25
 251 200 229 200 207 200 c 25
 207 233 207 267 207 300 c 25
 196 300 184 300 173 300 c 25
 173 200 173 100 173 0 c 25
 151 0 129 0 107 0 c 25
 107 233 107 467 107 700 c 13
EndSplineSet
EndChar

StartChar: uni041B
Encoding: 1051 1051 122
Width: 430
Flags: HW
HStem: 0 100<140 190> 600 100<340 490>
VStem: 140 100<0 100> 190 100<100 200> 240 100<200 600> 490 100<0 600>
LayerCount: 2
Back
Fore
SplineSet
107 0 m 13
 107 33 107 67 107 100 c 25
 118 100 129 100 140 100 c 25
 140 133 140 167 140 200 c 25
 151 200 162 200 173 200 c 25
 173 333 173 467 173 600 c 25
 184 600 196 600 207 600 c 25
 207 633 207 667 207 700 c 25
 274 700 340 700 407 700 c 25
 407 467 407 233 407 0 c 25
 385 0 362 0 340 0 c 25
 340 200 340 400 340 600 c 25
 307 600 273 600 240 600 c 25
 240 467 240 333 240 200 c 25
 229 200 218 200 207 200 c 25
 207 167 207 133 207 100 c 25
 196 100 184 100 173 100 c 25
 173 67 173 33 173 0 c 25
 151 0 129 0 107 0 c 13
EndSplineSet
EndChar

StartChar: uni041C
Encoding: 1052 1052 123
Width: 430
Flags: HW
HStem: 0 21G<90 190 490 590> 680 20G<90 240 440 590>
VStem: 90 150<600 700> 90 100<0 500> 290 100<300 400> 440 150<600 700> 490 100<0 500>
LayerCount: 2
Back
Fore
SplineSet
140 0 m 13
 118 0 95 0 73 0 c 25
 73 233 73 467 73 700 c 25
 106 700 140 700 173 700 c 25
 173 667 173 633 173 600 c 25
 184 600 196 600 207 600 c 25
 207 567 207 533 207 500 c 25
 229 500 251 500 273 500 c 25
 273 533 273 567 273 600 c 25
 284 600 296 600 307 600 c 25
 307 633 307 667 307 700 c 25
 340 700 374 700 407 700 c 25
 407 467 407 233 407 0 c 25
 385 0 362 0 340 0 c 25
 340 167 340 333 340 500 c 25
 329 500 318 500 307 500 c 25
 307 467 307 433 307 400 c 25
 296 400 284 400 273 400 c 25
 273 367 273 333 273 300 c 25
 251 300 229 300 207 300 c 25
 207 333 207 367 207 400 c 25
 196 400 184 400 173 400 c 25
 173 433 173 467 173 500 c 25
 162 500 151 500 140 500 c 25
 140 333 140 167 140 0 c 13
EndSplineSet
EndChar

StartChar: uni041D
Encoding: 1053 1053 124
Width: 430
Flags: HW
HStem: 0 21G<140 240 490 590> 300 100<240 490> 680 20G<140 240 490 590>
VStem: 140 100<0 300 400 700> 490 100<0 300 400 700>
LayerCount: 2
Back
Fore
SplineSet
107 700 m 13
 129 700 151 700 173 700 c 25
 173 600 173 500 173 400 c 25
 229 400 284 400 340 400 c 25
 340 500 340 600 340 700 c 25
 362 700 385 700 407 700 c 25
 407 467 407 233 407 0 c 25
 385 0 362 0 340 0 c 25
 340 100 340 200 340 300 c 25
 284 300 229 300 173 300 c 25
 173 200 173 100 173 0 c 25
 151 0 129 0 107 0 c 25
 107 233 107 467 107 700 c 13
EndSplineSet
EndChar

StartChar: uni041E
Encoding: 1054 1054 125
Width: 430
Flags: HW
HStem: 0 100<240 440> 600 100<240 440>
VStem: 90 100<200 500> 140 100<100 200 500 600> 190 300<0 100 600 700> 440 100<100 200 500 600> 490 100<200 500>
LayerCount: 2
Back
Fore
SplineSet
307 100 m 13
 307 133 307 167 307 200 c 25
 318 200 329 200 340 200 c 25
 340 300 340 400 340 500 c 25
 329 500 318 500 307 500 c 25
 307 533 307 567 307 600 c 25
 263 600 217 600 173 600 c 25
 173 567 173 533 173 500 c 25
 162 500 151 500 140 500 c 25
 140 400 140 300 140 200 c 25
 151 200 162 200 173 200 c 25
 173 167 173 133 173 100 c 25
 217 100 263 100 307 100 c 13
340 0 m 9
 273 0 207 0 140 0 c 25
 140 33 140 67 140 100 c 25
 129 100 118 100 107 100 c 25
 107 133 107 167 107 200 c 25
 96 200 84 200 73 200 c 25
 73 300 73 400 73 500 c 25
 84 500 96 500 107 500 c 25
 107 533 107 567 107 600 c 25
 118 600 129 600 140 600 c 25
 140 633 140 667 140 700 c 25
 207 700 273 700 340 700 c 25
 340 667 340 633 340 600 c 25
 351 600 362 600 373 600 c 25
 373 567 373 533 373 500 c 25
 384 500 396 500 407 500 c 25
 407 400 407 300 407 200 c 25
 396 200 384 200 373 200 c 25
 373 167 373 133 373 100 c 25
 362 100 351 100 340 100 c 25
 340 67 340 33 340 0 c 9
EndSplineSet
EndChar

StartChar: uni041F
Encoding: 1055 1055 126
Width: 430
Flags: HW
HStem: 0 21G<140 240 490 590> 600 100<240 490>
VStem: 140 100<0 600> 490 100<0 600>
LayerCount: 2
Back
Fore
SplineSet
107 700 m 13
 207 700 307 700 407 700 c 25
 407 467 407 233 407 0 c 25
 385 0 362 0 340 0 c 25
 340 200 340 400 340 600 c 25
 284 600 229 600 173 600 c 25
 173 400 173 200 173 0 c 25
 151 0 129 0 107 0 c 25
 107 233 107 467 107 700 c 13
EndSplineSet
EndChar

StartChar: uni0420
Encoding: 1056 1056 127
Width: 430
Flags: HW
HStem: 0 21G<140 240> 300 100<240 490> 600 100<240 490>
VStem: 140 100<0 300 400 600> 490 100<400 600>
LayerCount: 2
Back
Fore
SplineSet
173 600 m 13
 173 533 173 467 173 400 c 25
 229 400 284 400 340 400 c 25
 340 467 340 533 340 600 c 25
 284 600 229 600 173 600 c 13
107 700 m 9
 196 700 284 700 373 700 c 25
 373 683 373 667 373 650 c 25
 384 650 396 650 407 650 c 25
 407 567 407 483 407 400 c 25
 396 400 384 400 373 400 c 25
 373 367 373 333 373 300 c 25
 306 300 240 300 173 300 c 25
 173 200 173 100 173 0 c 25
 151 0 129 0 107 0 c 25
 107 233 107 467 107 700 c 9
EndSplineSet
EndChar

StartChar: uni0421
Encoding: 1057 1057 128
Width: 430
Flags: HW
HStem: 0 100<290 490> 100 100<540 590> 500 100<540 590> 600 100<290 490>
VStem: 140 100<200 500> 190 100<100 200 500 600> 240 300<0 100 600 700> 490 100<100 200 500 600>
LayerCount: 2
Back
Fore
SplineSet
173 700 m 13
 240 700 306 700 373 700 c 25
 373 667 373 633 373 600 c 25
 384 600 396 600 407 600 c 25
 407 567 407 533 407 500 c 25
 385 500 362 500 340 500 c 25
 340 533 340 567 340 600 c 25
 296 600 251 600 207 600 c 25
 207 567 207 533 207 500 c 25
 196 500 184 500 173 500 c 25
 173 400 173 300 173 200 c 25
 184 200 196 200 207 200 c 25
 207 167 207 133 207 100 c 25
 251 100 296 100 340 100 c 25
 340 133 340 167 340 200 c 25
 362 200 385 200 407 200 c 25
 407 167 407 133 407 100 c 25
 396 100 384 100 373 100 c 25
 373 67 373 33 373 0 c 25
 306 0 240 0 173 0 c 25
 173 33 173 67 173 100 c 25
 162 100 151 100 140 100 c 25
 140 133 140 167 140 200 c 25
 129 200 118 200 107 200 c 25
 107 300 107 400 107 500 c 25
 118 500 129 500 140 500 c 25
 140 533 140 567 140 600 c 25
 151 600 162 600 173 600 c 25
 173 633 173 667 173 700 c 13
EndSplineSet
EndChar

StartChar: uni0422
Encoding: 1058 1058 129
Width: 430
Flags: HW
HStem: 0 21G<290 390> 600 100<90 290 390 590>
VStem: 290 100<0 600>
LayerCount: 2
Back
Fore
SplineSet
73 700 m 1
 184 700 296 700 407 700 c 5
 407 667 407 633 407 600 c 1
 363 600 317 600 273 600 c 1
 273 400 273 200 273 0 c 25
 251 0 229 0 207 0 c 25
 207 200 207 400 207 600 c 1
 163 600 117 600 73 600 c 1
 73 633 73 667 73 700 c 1
EndSplineSet
EndChar

StartChar: uni0423
Encoding: 1059 1059 130
Width: 430
Flags: HW
HStem: 0 100<240 490> 100 100<140 190> 300 100<240 490> 680 20G<140 240 490 590>
VStem: 140 100<100 200 400 700> 490 100<100 300 400 700>
LayerCount: 2
Back
Fore
SplineSet
107 700 m 13
 129 700 151 700 173 700 c 25
 173 600 173 500 173 400 c 25
 229 400 284 400 340 400 c 25
 340 500 340 600 340 700 c 25
 362 700 385 700 407 700 c 25
 407 500 407 300 407 100 c 25
 396 100 384 100 373 100 c 25
 373 67 373 33 373 0 c 25
 295 0 218 0 140 0 c 25
 140 33 140 67 140 100 c 25
 129 100 118 100 107 100 c 25
 107 133 107 167 107 200 c 25
 129 200 151 200 173 200 c 25
 173 167 173 133 173 100 c 25
 229 100 284 100 340 100 c 25
 340 167 340 233 340 300 c 25
 273 300 207 300 140 300 c 25
 140 333 140 367 140 400 c 25
 129 400 118 400 107 400 c 25
 107 500 107 600 107 700 c 13
EndSplineSet
EndChar

StartChar: uni0424
Encoding: 1060 1060 131
Width: 430
Flags: HW
HStem: 0 21G<290 390> 100 100<190 290 390 490> 500 100<190 290 390 490> 680 20G<290 390>
VStem: 90 100<200 500> 290 100<0 100 200 500 600 700> 490 100<200 500>
CounterMasks: 1 0e
LayerCount: 2
Back
Fore
SplineSet
273 500 m 13
 273 400 273 300 273 200 c 25
 295 200 318 200 340 200 c 25
 340 300 340 400 340 500 c 25
 318 500 295 500 273 500 c 13
140 500 m 9
 140 400 140 300 140 200 c 25
 162 200 185 200 207 200 c 25
 207 300 207 400 207 500 c 25
 185 500 162 500 140 500 c 9
207 600 m 9
 207 633 207 667 207 700 c 1
 229 700 251 700 273 700 c 25
 273 667 273 633 273 600 c 25
 306 600 340 600 373 600 c 25
 373 567 373 533 373 500 c 25
 384 500 396 500 407 500 c 25
 407 400 407 300 407 200 c 25
 396 200 384 200 373 200 c 25
 373 167 373 133 373 100 c 25
 340 100 306 100 273 100 c 25
 273 67 273 33 273 0 c 25
 251 0 229 0 207 0 c 25
 207 33 207 67 207 100 c 25
 174 100 140 100 107 100 c 25
 107 133 107 167 107 200 c 25
 96 200 84 200 73 200 c 25
 73 300 73 400 73 500 c 25
 84 500 96 500 107 500 c 25
 107 533 107 567 107 600 c 1
 140 600 174 600 207 600 c 9
EndSplineSet
EndChar

StartChar: uni0425
Encoding: 1061 1061 132
Width: 430
Flags: HW
HStem: 0 100<140 190 490 540> 600 100<140 190 490 540>
VStem: 140 100<0 100 600 700> 190 100<100 200 500 600> 240 200<200 300 400 500> 390 100<100 200 500 600> 440 100<0 100 600 700>
LayerCount: 2
Back
Fore
SplineSet
107 700 m 13
 129 700 151 700 173 700 c 25
 173 667 173 633 173 600 c 25
 184 600 196 600 207 600 c 25
 207 567 207 533 207 500 c 25
 229 500 251 500 273 500 c 25
 273 533 273 567 273 600 c 25
 284 600 296 600 307 600 c 25
 307 633 307 667 307 700 c 25
 329 700 351 700 373 700 c 25
 373 667 373 633 373 600 c 25
 362 600 351 600 340 600 c 25
 340 567 340 533 340 500 c 25
 329 500 318 500 307 500 c 25
 307 467 307 433 307 400 c 25
 296 400 284 400 273 400 c 25
 273 367 273 333 273 300 c 25
 284 300 296 300 307 300 c 25
 307 267 307 233 307 200 c 25
 318 200 329 200 340 200 c 25
 340 167 340 133 340 100 c 25
 351 100 362 100 373 100 c 25
 373 67 373 33 373 0 c 25
 351 0 329 0 307 0 c 25
 307 33 307 67 307 100 c 25
 296 100 284 100 273 100 c 25
 273 133 273 167 273 200 c 25
 251 200 229 200 207 200 c 25
 207 167 207 133 207 100 c 25
 196 100 184 100 173 100 c 25
 173 67 173 33 173 0 c 25
 151 0 129 0 107 0 c 25
 107 33 107 67 107 100 c 25
 118 100 129 100 140 100 c 25
 140 133 140 167 140 200 c 25
 151 200 162 200 173 200 c 25
 173 233 173 267 173 300 c 25
 184 300 196 300 207 300 c 25
 207 333 207 367 207 400 c 25
 196 400 184 400 173 400 c 25
 173 433 173 467 173 500 c 25
 162 500 151 500 140 500 c 25
 140 533 140 567 140 600 c 25
 129 600 118 600 107 600 c 25
 107 633 107 667 107 700 c 13
EndSplineSet
EndChar

StartChar: uni0426
Encoding: 1062 1062 133
Width: 430
Flags: HW
HStem: 0 100<240 390> 680 20G<140 240 390 490>
VStem: 140 100<100 700> 390 100<100 700> 490 100<-100 0>
LayerCount: 2
Back
Fore
SplineSet
107 700 m 13
 129 700 151 700 173 700 c 25
 173 500 173 300 173 100 c 25
 206 100 240 100 273 100 c 25
 273 300 273 500 273 700 c 25
 295 700 318 700 340 700 c 25
 340 500 340 300 340 100 c 25
 362 100 385 100 407 100 c 25
 407 33 407 -33 407 -100 c 25
 385 -100 362 -100 340 -100 c 25
 340 -67 340 -33 340 0 c 25
 262 0 185 0 107 0 c 25
 107 233 107 467 107 700 c 13
EndSplineSet
EndChar

StartChar: uni0427
Encoding: 1063 1063 134
Width: 430
Flags: HW
HStem: 0 21G<490 590> 300 100<290 490> 680 20G<140 240 490 590>
VStem: 140 100<500 700> 190 100<400 500> 490 100<0 300 400 700>
LayerCount: 2
Back
Fore
SplineSet
107 700 m 13
 129 700 151 700 173 700 c 25
 173 633 173 567 173 500 c 25
 184 500 196 500 207 500 c 25
 207 467 207 433 207 400 c 25
 251 400 296 400 340 400 c 25
 340 500 340 600 340 700 c 25
 362 700 385 700 407 700 c 25
 407 467 407 233 407 0 c 25
 385 0 362 0 340 0 c 25
 340 100 340 200 340 300 c 25
 284 300 229 300 173 300 c 25
 173 333 173 367 173 400 c 25
 162 400 151 400 140 400 c 25
 140 433 140 467 140 500 c 25
 129 500 118 500 107 500 c 25
 107 567 107 633 107 700 c 13
EndSplineSet
EndChar

StartChar: uni0428
Encoding: 1064 1064 135
Width: 430
Flags: HW
HStem: 0 100<190 290 390 490> 680 20G<90 190 290 390 490 590>
VStem: 90 100<100 700> 290 100<100 700> 490 100<100 700>
CounterMasks: 1 38
LayerCount: 2
Back
Fore
SplineSet
73 700 m 13
 95 700 118 700 140 700 c 25
 140 500 140 300 140 100 c 25
 162 100 185 100 207 100 c 25
 207 300 207 500 207 700 c 25
 229 700 251 700 273 700 c 25
 273 500 273 300 273 100 c 25
 295 100 318 100 340 100 c 25
 340 300 340 500 340 700 c 25
 362 700 385 700 407 700 c 25
 407 467 407 233 407 0 c 25
 296 0 184 0 73 0 c 25
 73 233 73 467 73 700 c 13
EndSplineSet
EndChar

StartChar: uni0429
Encoding: 1065 1065 136
Width: 430
Flags: HW
HStem: 0 100<190 290 390 490> 680 20G<90 190 290 390 490 590>
VStem: 90 100<100 700> 290 100<100 700> 490 100<100 700> 540 100<-100 0>
LayerCount: 2
Back
Fore
SplineSet
73 700 m 13
 95 700 118 700 140 700 c 25
 140 500 140 300 140 100 c 25
 162 100 185 100 207 100 c 25
 207 300 207 500 207 700 c 25
 229 700 251 700 273 700 c 25
 273 500 273 300 273 100 c 25
 295 100 318 100 340 100 c 25
 340 300 340 500 340 700 c 25
 362 700 385 700 407 700 c 25
 407 500 407 300 407 100 c 25
 418 100 429 100 440 100 c 25
 440 33 440 -33 440 -100 c 25
 418 -100 395 -100 373 -100 c 25
 373 -67 373 -33 373 0 c 25
 273 0 173 0 73 0 c 25
 73 233 73 467 73 700 c 13
EndSplineSet
EndChar

StartChar: uni042A
Encoding: 1066 1066 137
Width: 430
Flags: HW
HStem: 0 100<290 490> 300 100<290 490> 600 100<90 190>
VStem: 190 100<100 300 400 600> 490 100<100 300>
CounterMasks: 1 e0
LayerCount: 2
Back
Fore
SplineSet
207 300 m 13
 207 233 207 167 207 100 c 25
 251 100 296 100 340 100 c 25
 340 167 340 233 340 300 c 25
 296 300 251 300 207 300 c 13
73 700 m 9
 117 700 163 700 207 700 c 25
 207 600 207 500 207 400 c 25
 263 400 317 400 373 400 c 25
 373 367 373 333 373 300 c 25
 384 300 396 300 407 300 c 25
 407 233 407 167 407 100 c 25
 396 100 384 100 373 100 c 25
 373 67 373 33 373 0 c 25
 295 0 218 0 140 0 c 25
 140 200 140 400 140 600 c 25
 118 600 95 600 73 600 c 25
 73 633 73 667 73 700 c 9
EndSplineSet
EndChar

StartChar: uni042B
Encoding: 1067 1067 138
Width: 430
Flags: HW
HStem: 0 100<190 340> 300 100<190 340> 680 20G<90 190 490 590>
VStem: 90 300<0 100 300 400> 90 100<100 300 400 700> 340 100<100 300> 490 100<0 700>
LayerCount: 2
Back
Fore
SplineSet
240 300 m 13
 207 300 173 300 140 300 c 25
 140 233 140 167 140 100 c 25
 173 100 207 100 240 100 c 25
 240 167 240 233 240 300 c 13
340 700 m 9
 362 700 385 700 407 700 c 25
 407 467 407 233 407 0 c 25
 385 0 362 0 340 0 c 25
 340 233 340 467 340 700 c 9
73 700 m 9
 95 700 118 700 140 700 c 25
 140 600 140 500 140 400 c 25
 184 400 229 400 273 400 c 25
 273 367 273 333 273 300 c 25
 284 300 296 300 307 300 c 25
 307 233 307 167 307 100 c 25
 296 100 284 100 273 100 c 25
 273 67 273 33 273 0 c 25
 206 0 140 0 73 0 c 25
 73 233 73 467 73 700 c 9
EndSplineSet
EndChar

StartChar: uni042C
Encoding: 1068 1068 139
Width: 430
Flags: HW
HStem: 0 100<290 490> 300 100<290 490> 680 20G<190 289>
VStem: 190 99<100 300 400 700> 490 100<101 300>
LayerCount: 2
Back
Fore
SplineSet
207 100 m 13
 251 100 296 100 340 100 c 25
 340 167 340 233 340 300 c 25
 296 300 251 300 207 300 c 25
 207 233 207 167 207 100 c 13
140 700 m 9
 162 700 184 700 206 700 c 25
 206 600 206 500 206 400 c 25
 262 400 317 400 373 400 c 25
 373 367 373 333 373 300 c 25
 384 300 394 300 405 300 c 25
 405 234 407 167 407 101 c 25
 396 101 384 100 373 100 c 25
 373 67 373 33 373 0 c 25
 295 0 218 0 140 0 c 25
 140 233 140 467 140 700 c 9
EndSplineSet
EndChar

StartChar: uni042D
Encoding: 1069 1069 140
Width: 430
Flags: HW
HStem: 0 100<240 440> 100 100<140 190> 300 100<290 490> 500 100<140 190> 600 100<240 440>
VStem: 140 100<100 200 500 600> 190 300<0 100 600 700> 440 100<100 200 500 600> 490 100<200 300 400 500>
LayerCount: 2
Back
Fore
SplineSet
107 500 m 13
 107 533 107 567 107 600 c 25
 118 600 129 600 140 600 c 25
 140 633 140 667 140 700 c 25
 207 700 273 700 340 700 c 25
 340 667 340 633 340 600 c 25
 351 600 362 600 373 600 c 25
 373 567 373 533 373 500 c 25
 384 500 396 500 407 500 c 25
 407 400 407 300 407 200 c 25
 396 200 384 200 373 200 c 25
 373 167 373 133 373 100 c 25
 362 100 351 100 340 100 c 25
 340 67 340 33 340 0 c 25
 273 0 207 0 140 0 c 25
 140 33 140 67 140 100 c 25
 129 100 118 100 107 100 c 25
 107 133 107 167 107 200 c 25
 129 200 151 200 173 200 c 25
 173 167 173 133 173 100 c 25
 217 100 263 100 307 100 c 25
 307 133 307 167 307 200 c 25
 318 200 329 200 340 200 c 25
 340 233 340 267 340 300 c 25
 296 300 251 300 207 300 c 25
 207 333 207 367 207 400 c 25
 251 400 296 400 340 400 c 25
 340 433 340 467 340 500 c 25
 329 500 318 500 307 500 c 25
 307 533 307 567 307 600 c 25
 263 600 217 600 173 600 c 25
 173 567 173 533 173 500 c 25
 151 500 129 500 107 500 c 13
EndSplineSet
EndChar

StartChar: uni042E
Encoding: 1070 1070 141
Width: 430
Flags: HW
HStem: 0 100<390 490> 300 100<240 290> 600 100<390 490>
VStem: 140 100<0 300 400 700> 290 100<100 300 400 600> 340 200<0 100 600 700> 490 100<100 600>
CounterMasks: 1 e0
LayerCount: 2
Back
Fore
SplineSet
273 600 m 13
 273 433 273 267 273 100 c 25
 295 100 318 100 340 100 c 25
 340 267 340 433 340 600 c 25
 318 600 295 600 273 600 c 13
107 700 m 9
 129 700 151 700 173 700 c 25
 173 600 173 500 173 400 c 25
 184 400 196 400 207 400 c 25
 207 467 207 533 207 600 c 25
 218 600 229 600 240 600 c 25
 240 633 240 667 240 700 c 25
 284 700 329 700 373 700 c 25
 373 667 373 633 373 600 c 25
 384 600 396 600 407 600 c 25
 407 433 407 267 407 100 c 25
 396 100 384 100 373 100 c 25
 373 67 373 33 373 0 c 25
 329 0 284 0 240 0 c 25
 240 33 240 67 240 100 c 25
 229 100 218 100 207 100 c 25
 207 167 207 233 207 300 c 25
 196 300 184 300 173 300 c 25
 173 200 173 100 173 0 c 25
 151 0 129 0 107 0 c 25
 107 233 107 467 107 700 c 9
EndSplineSet
EndChar

StartChar: uni042F
Encoding: 1071 1071 142
Width: 430
Flags: HW
HStem: 0 100<140 240> 300 100<240 340> 600 100<240 490>
VStem: 140 100<400 600> 240 150<100 200> 490 100<0 200 400 600>
CounterMasks: 1 e0
LayerCount: 2
Back
Fore
SplineSet
173 600 m 13
 173 533 173 467 173 400 c 25
 229 400 284 400 340 400 c 25
 340 467 340 533 340 600 c 25
 284 600 229 600 173 600 c 13
140 700 m 9
 229 700 318 700 407 700 c 25
 407 467 407 233 407 0 c 25
 385 0 362 0 340 0 c 25
 340 67 340 133 340 200 c 25
 318 200 295 200 273 200 c 25
 273 167 273 133 273 100 c 25
 262 100 251 100 240 100 c 25
 240 67 240 33 240 0 c 25
 196 0 151 0 107 0 c 25
 107 33 107 67 107 100 c 25
 129 100 151 100 173 100 c 25
 173 133 173 167 173 200 c 25
 195 200 218 200 240 200 c 25
 240 233 240 267 240 300 c 25
 207 300 173 300 140 300 c 25
 140 333 140 367 140 400 c 25
 129 400 118 400 107 400 c 25
 107 467 107 533 107 600 c 25
 118 600 129 600 140 600 c 25
 140 633 140 667 140 700 c 9
EndSplineSet
EndChar

StartChar: uni0430
Encoding: 1072 1072 143
Width: 430
Flags: HW
HStem: 0 100<190 440 540 589> 100 100<90 140> 200 100<190 440> 400 100<140 440>
VStem: 90 100<100 200> 440 100<100 200 300 400>
LayerCount: 2
Back
Fore
SplineSet
140 200 m 13
 140 167 140 133 140 100 c 25
 196 100 251 100 307 100 c 25
 307 133 307 167 307 200 c 25
 251 200 196 200 140 200 c 13
107 500 m 9
 185 500 262 500 340 500 c 25
 340 467 340 433 340 400 c 25
 351 400 362 400 373 400 c 25
 373 300 373 200 373 100 c 25
 384 100 395 100 406 100 c 25
 406 67 407 33 407 0 c 25
 307 0 207 0 107 0 c 25
 107 33 107 67 107 100 c 25
 96 100 84 100 73 100 c 25
 73 133 73 167 73 200 c 25
 84 200 96 200 107 200 c 25
 107 233 107 267 107 300 c 25
 174 300 240 300 307 300 c 25
 307 333 307 367 307 400 c 25
 240 400 174 400 107 400 c 25
 107 433 107 467 107 500 c 9
EndSplineSet
EndChar

StartChar: uni0431
Encoding: 1073 1073 144
Width: 430
Flags: HW
HStem: 0 100<240 490> 300 200<340 490> 300 100<240 340> 600 100<190 240 340 590>
VStem: 140 100<100 300> 240 100<500 600> 340 150<400 500> 490 100<100 300>
LayerCount: 2
Back
Fore
SplineSet
173 300 m 13
 173 233 173 167 173 100 c 25
 229 100 284 100 340 100 c 25
 340 167 340 233 340 300 c 25
 284 300 229 300 173 300 c 13
140 700 m 9
 229 700 318 700 407 700 c 25
 407 667 407 633 407 600 c 25
 351 600 296 600 240 600 c 25
 240 567 240 533 240 500 c 25
 273 500 307 500 340 500 c 25
 340 467 340 433 340 400 c 25
 351 400 362 400 373 400 c 25
 373 367 373 333 373 300 c 25
 384 300 396 300 407 300 c 25
 407 233 407 167 407 100 c 25
 396 100 384 100 373 100 c 25
 373 67 373 33 373 0 c 25
 295 0 218 0 140 0 c 25
 140 33 140 67 140 100 c 25
 129 100 118 100 107 100 c 25
 107 167 107 233 107 300 c 25
 118 300 129 300 140 300 c 25
 140 333 140 367 140 400 c 25
 173 400 207 400 240 400 c 25
 240 433 240 467 240 500 c 25
 218 500 195 500 173 500 c 25
 173 533 173 567 173 600 c 25
 162 600 151 600 140 600 c 25
 140 633 140 667 140 700 c 9
EndSplineSet
EndChar

StartChar: uni0432
Encoding: 1074 1074 145
Width: 430
Flags: HW
HStem: 0 100<240 490> 100 100<540 590> 200 100<240 490> 300 100<540 590> 400 100<240 490>
VStem: 140 400<0 100 200 300 400 500> 140 100<100 200 300 400> 490 100<100 200 300 400>
LayerCount: 2
Back
Fore
SplineSet
173 200 m 13
 173 167 173 133 173 100 c 25
 229 100 284 100 340 100 c 25
 340 133 340 167 340 200 c 25
 284 200 229 200 173 200 c 13
173 400 m 9
 173 367 173 333 173 300 c 25
 229 300 284 300 340 300 c 25
 340 333 340 367 340 400 c 25
 284 400 229 400 173 400 c 9
107 500 m 9
 196 500 284 500 373 500 c 25
 373 467 373 433 373 400 c 25
 384 400 396 400 407 400 c 25
 407 367 407 333 407 300 c 25
 396 300 384 300 373 300 c 25
 373 267 373 233 373 200 c 25
 384 200 396 200 407 200 c 25
 407 167 407 133 407 100 c 25
 396 100 384 100 373 100 c 25
 373 67 373 33 373 0 c 25
 284 0 196 0 107 0 c 25
 107 167 107 333 107 500 c 9
EndSplineSet
EndChar

StartChar: uni0433
Encoding: 1075 1075 146
Width: 430
Flags: HW
HStem: 0 21G<140 240> 400 100<240 590>
VStem: 140 100<0 400>
LayerCount: 2
Back
Fore
SplineSet
107 0 m 13
 107 167 107 333 107 500 c 25
 207 500 307 500 407 500 c 25
 407 467 407 434 407 401 c 25
 329 401 251 400 173 400 c 25
 173 267 173 133 173 0 c 25
 151 0 129 0 107 0 c 13
EndSplineSet
EndChar

StartChar: uni0434
Encoding: 1076 1076 147
Width: 430
Flags: HW
HStem: -100 200<90 189 490 590> -1 101<189 190 290 390> 400 100<290 390>
VStem: 90 100<-100 -1> 190 100<100 400> 390 100<100 400> 490 100<-100 0>
LayerCount: 2
Back
Fore
SplineSet
207 400 m 13
 207 300 207 200 207 100 c 25
 229 100 251 100 273 100 c 25
 273 200 273 300 273 400 c 25
 251 400 229 400 207 400 c 13
173 500 m 9
 229 500 284 500 340 500 c 25
 340 367 340 233 340 100 c 25
 362 100 385 100 407 100 c 25
 407 33 407 -33 407 -100 c 25
 385 -100 362 -100 340 -100 c 25
 340 -67 340 -33 340 0 c 25
 273 0 206 -1 139 -1 c 25
 139 -34 140 -67 140 -100 c 25
 118 -100 95 -100 73 -100 c 25
 73 -33 73 33 73 100 c 25
 95 100 118 100 140 100 c 25
 140 200 140 300 140 400 c 25
 151 400 162 400 173 400 c 25
 173 433 173 467 173 500 c 9
EndSplineSet
EndChar

StartChar: uni0435
Encoding: 1077 1077 148
Width: 430
Flags: HW
HStem: 0 100<190 540> 200 100<190 490> 400 101<190 490>
VStem: 90 100<100 200 300 400> 490 100<300 400>
LayerCount: 2
Back
Fore
SplineSet
140 400 m 13
 140 367 140 333 140 300 c 25
 207 300 273 300 340 300 c 25
 340 333 340 367 340 400 c 25
 273 400 207 400 140 400 c 13
107 400 m 9
 107 434 107 467 107 501 c 25
 196 501 284 500 373 500 c 25
 373 467 373 433 373 400 c 25
 384 400 396 400 407 400 c 25
 407 333 407 267 407 200 c 25
 318 200 229 200 140 200 c 25
 140 167 140 133 140 100 c 25
 218 100 295 100 373 100 c 25
 373 67 373 33 373 0 c 25
 284 0 196 0 107 0 c 25
 107 33 107 67 107 100 c 25
 96 100 84 100 73 100 c 25
 73 200 73 300 73 400 c 25
 84 400 96 400 107 400 c 9
EndSplineSet
EndChar

StartChar: uni0436
Encoding: 1078 1078 149
Width: 430
Flags: HW
HStem: 0 100<90 140 540 590> 200 100<240 290 390 440> 400 100<90 140 540 590>
VStem: 90 100<0 100 400 500> 140 100<100 200 300 400> 290 100<0 200 300 500> 440 100<100 200 300 400> 490 100<0 100 400 500>
CounterMasks: 1 e0
LayerCount: 2
Back
Fore
SplineSet
73 500 m 13
 95 500 118 500 140 500 c 25
 140 467 140 433 140 400 c 25
 151 400 162 400 173 400 c 25
 173 367 173 333 173 300 c 25
 184 300 196 300 207 300 c 25
 207 367 207 433 207 500 c 25
 229 500 251 500 273 500 c 25
 273 433 273 367 273 300 c 25
 284 300 296 300 307 300 c 25
 307 333 307 367 307 400 c 25
 318 400 329 400 340 400 c 25
 340 433 340 467 340 500 c 25
 362 500 385 500 407 500 c 25
 407 467 407 433 407 400 c 25
 396 400 384 400 373 400 c 25
 373 367 373 333 373 300 c 25
 362 300 351 300 340 300 c 25
 340 267 340 233 340 200 c 25
 351 200 362 200 373 200 c 25
 373 167 373 133 373 100 c 25
 384 100 396 100 407 100 c 25
 407 67 407 33 407 0 c 25
 385 0 362 0 340 0 c 25
 340 33 340 67 340 100 c 25
 329 100 318 100 307 100 c 25
 307 133 307 167 307 200 c 25
 296 200 284 200 273 200 c 25
 273 133 273 67 273 0 c 25
 251 0 229 0 207 0 c 25
 207 67 207 133 207 200 c 25
 196 200 184 200 173 200 c 25
 173 167 173 133 173 100 c 25
 162 100 151 100 140 100 c 25
 140 67 140 33 140 0 c 25
 118 0 95 0 73 0 c 25
 73 33 73 67 73 100 c 25
 84 100 96 100 107 100 c 25
 107 133 107 167 107 200 c 25
 118 200 129 200 140 200 c 25
 140 233 140 267 140 300 c 25
 129 300 118 300 107 300 c 25
 107 333 107 367 107 400 c 25
 96 400 84 400 73 400 c 25
 73 433 73 467 73 500 c 13
EndSplineSet
EndChar

StartChar: uni0437
Encoding: 1079 1079 150
Width: 430
Flags: HW
HStem: 0 100<240 490> 100 100<140 190 540 590> 300 100<140 190 540 590> 400 100<240 490>
VStem: 140 100<100 200 300 400> 490 100<100 200 300 400>
LayerCount: 2
Back
Fore
SplineSet
107 400 m 13
 118 400 129 400 140 400 c 1
 140 433 140 467 140 500 c 25
 218 500 295 500 373 500 c 25
 373 467 373 433 373 400 c 25
 384 400 396 400 407 400 c 25
 407 367 407 333 407 300 c 25
 396 300 384 300 373 300 c 25
 373 267 373 233 373 200 c 25
 384 200 396 200 407 200 c 25
 407 167 407 133 407 100 c 25
 396 100 384 100 373 100 c 25
 373 67 373 33 373 0 c 25
 295 0 218 0 140 0 c 25
 140 33 140 67 140 100 c 25
 129 100 118 100 107 100 c 25
 107 133 107 167 107 200 c 25
 129 200 151 200 173 200 c 25
 173 167 173 133 173 100 c 25
 229 100 284 100 340 100 c 25
 340 133 340 167 340 200 c 25
 307 200 273 200 240 200 c 25
 240 233 240 267 240 300 c 25
 273 300 307 300 340 300 c 25
 340 333 340 367 340 400 c 25
 284 400 229 400 173 400 c 25
 173 367 173 333 173 300 c 25
 151 300 129 300 107 300 c 1
 107 333 107 367 107 400 c 13
EndSplineSet
EndChar

StartChar: uni0438
Encoding: 1080 1080 151
Width: 430
Flags: HW
HStem: 0 100<240 290> 100 100<290 340> 200 100<340 390> 300 100<390 440> 400 100<440 490>
VStem: 140 150<0 100> 140 100<100 500> 290 50<100 200> 340 50<200 300> 390 50<300 400> 440 150<400 500> 490 100<0 400>
LayerCount: 2
Back
Fore
SplineSet
107 0 m 13
 107 167 107 333 107 500 c 5
 129 500 151 500 173 500 c 29
 173 367 173 233 173 100 c 29
 184 100 196 100 207 100 c 29
 207 133 207 167 207 200 c 29
 218 200 229 200 240 200 c 29
 240 233 240 267 240 300 c 29
 251 300 262 300 273 300 c 29
 273 333 273 367 273 400 c 29
 284 400 296 400 307 400 c 29
 307 433 307 467 307 500 c 29
 340 500 374 500 407 500 c 29
 407 333 407 167 407 0 c 29
 385 0 362 0 340 0 c 29
 340 133 340 267 340 400 c 29
 329 400 318 400 307 400 c 29
 307 367 307 333 307 300 c 29
 296 300 284 300 273 300 c 29
 273 267 273 233 273 200 c 29
 262 200 251 200 240 200 c 29
 240 167 240 133 240 100 c 29
 229 100 218 100 207 100 c 29
 207 67 207 33 207 0 c 5
 174 0 140 0 107 0 c 13
EndSplineSet
EndChar

StartChar: uni0439
Encoding: 1081 1081 152
Width: 430
Flags: HW
HStem: 0 100<240 290> 100 100<290 340> 200 100<340 390> 300 100<390 440> 400 100<440 490> 600 100<290 440> 700 100<190 240 490 540>
VStem: 140 100<100 500> 190 100<700 800> 290 50<100 200> 340 50<200 300> 390 50<300 400> 440 100<700 800> 490 100<0 400>
LayerCount: 2
Back
Fore
SplineSet
140 800 m 13
 162 800 185 800 207 800 c 25
 207 767 207 733 207 700 c 25
 240 700 274 700 307 700 c 25
 307 733 307 767 307 800 c 25
 329 800 351 800 373 800 c 25
 373 767 373 733 373 700 c 25
 362 700 351 700 340 700 c 25
 340 667 340 633 340 600 c 25
 284 600 229 600 173 600 c 25
 173 633 173 667 173 700 c 25
 162 700 151 700 140 700 c 25
 140 733 140 767 140 800 c 13
107 0 m 9
 107 167 107 333 107 500 c 1
 129 500 151 500 173 500 c 25
 173 367 173 233 173 100 c 25
 184 100 196 100 207 100 c 25
 207 133 207 167 207 200 c 25
 218 200 229 200 240 200 c 25
 240 233 240 267 240 300 c 25
 251 300 262 300 273 300 c 25
 273 333 273 367 273 400 c 25
 284 400 296 400 307 400 c 25
 307 433 307 467 307 500 c 25
 340 500 374 500 407 500 c 25
 407 333 407 167 407 0 c 25
 385 0 362 0 340 0 c 25
 340 133 340 267 340 400 c 25
 329 400 318 400 307 400 c 25
 307 367 307 333 307 300 c 25
 296 300 284 300 273 300 c 25
 273 267 273 233 273 200 c 25
 262 200 251 200 240 200 c 25
 240 167 240 133 240 100 c 25
 229 100 218 100 207 100 c 25
 207 67 207 33 207 0 c 1
 174 0 140 0 107 0 c 9
EndSplineSet
EndChar

StartChar: uni043A
Encoding: 1082 1082 153
Width: 430
Flags: HW
HStem: 0 100<490 590> 200 100<240 390> 400 100<490 590>
VStem: 140 100<0 200 300 500> 390 100<100 200 300 400> 440 150<0 100 400 500>
CounterMasks: 1 e0
LayerCount: 2
Back
Fore
SplineSet
107 500 m 13
 129 500 151 500 173 500 c 25
 173 433 173 367 173 300 c 25
 206 300 240 300 273 300 c 25
 273 333 273 367 273 400 c 25
 284 400 296 400 307 400 c 25
 307 433 307 467 307 500 c 25
 340 500 374 500 407 500 c 25
 407 467 407 433 407 400 c 25
 385 400 362 400 340 400 c 25
 340 367 340 333 340 300 c 25
 329 300 318 300 307 300 c 25
 307 267 307 233 307 200 c 25
 318 200 329 200 340 200 c 25
 340 167 340 133 340 100 c 25
 362 100 385 100 407 100 c 25
 407 67 407 33 407 0 c 25
 374 0 340 0 307 0 c 25
 307 33 307 67 307 100 c 25
 296 100 284 100 273 100 c 25
 273 133 273 167 273 200 c 25
 240 200 206 200 173 200 c 25
 173 133 173 67 173 0 c 25
 151 0 129 0 107 0 c 25
 107 167 107 333 107 500 c 13
EndSplineSet
EndChar

StartChar: uni043B
Encoding: 1083 1083 154
Width: 430
Flags: HW
HStem: 0 100<140 190> 400 100<290 490>
VStem: 140 100<0 100> 190 100<100 400> 490 100<0 400>
LayerCount: 2
Back
Fore
SplineSet
107 100 m 13
 118 100 129 100 140 100 c 25
 140 200 140 300 140 400 c 25
 151 400 162 400 173 400 c 25
 173 433 173 467 173 500 c 25
 251 500 329 500 407 500 c 25
 407 333 407 167 407 0 c 25
 385 0 362 0 340 0 c 25
 340 133 340 267 340 400 c 25
 296 400 251 400 207 400 c 25
 207 300 207 200 207 100 c 25
 196 100 184 100 173 100 c 25
 173 67 173 33 173 0 c 25
 151 0 129 0 107 0 c 25
 107 33 107 67 107 100 c 13
EndSplineSet
EndChar

StartChar: uni043C
Encoding: 1084 1084 155
Width: 430
Flags: HW
HStem: 0 21G<140 240 490 590> 480 20G<140 290 440 590>
VStem: 140 150<400 500> 140 100<0 300> 290 150<200 300> 440 150<400 500> 490 100<0 300>
LayerCount: 2
Back
Fore
SplineSet
107 0 m 13
 107 167 107 333 107 500 c 25
 140 500 174 500 207 500 c 25
 207 467 207 433 207 400 c 25
 218 400 229 400 240 400 c 25
 240 367 240 333 240 300 c 25
 251 300 262 300 273 300 c 25
 273 333 273 367 273 400 c 25
 284 400 296 400 307 400 c 25
 307 433 307 467 307 500 c 25
 340 500 374 500 407 500 c 25
 407 333 407 167 407 0 c 25
 385 0 362 0 340 0 c 25
 340 100 340 200 340 300 c 25
 329 300 318 300 307 300 c 25
 307 267 307 233 307 200 c 25
 296 200 284 200 273 200 c 25
 273 167 273 133 273 100 c 25
 262 100 251 100 240 100 c 25
 240 133 240 167 240 200 c 25
 229 200 218 200 207 200 c 25
 207 233 207 267 207 300 c 25
 196 300 184 300 173 300 c 25
 173 200 173 100 173 0 c 25
 151 0 129 0 107 0 c 13
EndSplineSet
EndChar

StartChar: uni043D
Encoding: 1085 1085 156
Width: 430
Flags: HW
HStem: 0 21G<140 240 490 590> 200 100<240 490> 480 20G<140 240 490 590>
VStem: 140 100<0 200 300 500> 490 100<0 200 300 500>
LayerCount: 2
Back
Fore
SplineSet
107 500 m 13
 129 500 151 500 173 500 c 25
 173 433 173 367 173 300 c 25
 229 300 284 300 340 300 c 25
 340 367 340 433 340 500 c 25
 362 500 385 500 407 500 c 25
 407 333 407 167 407 0 c 25
 385 0 362 0 340 0 c 25
 340 67 340 133 340 200 c 25
 284 200 229 200 173 200 c 25
 173 133 173 67 173 0 c 25
 151 0 129 0 107 0 c 25
 107 167 107 333 107 500 c 13
EndSplineSet
EndChar

StartChar: uni043E
Encoding: 1086 1086 157
Width: 430
Flags: HW
HStem: 0 100<240 490> 400 100<240 490>
VStem: 140 100<100 400> 490 100<100 400>
LayerCount: 2
Back
Fore
SplineSet
173 400 m 13
 173 300 173 200 173 100 c 25
 229 100 284 100 340 100 c 25
 340 200 340 300 340 400 c 25
 284 400 229 400 173 400 c 13
140 500 m 9
 218 500 295 500 373 500 c 25
 373 467 373 433 373 400 c 25
 384 400 396 400 407 400 c 25
 407 300 407 200 407 100 c 25
 396 100 384 100 373 100 c 25
 373 67 373 33 373 0 c 25
 295 0 218 0 140 0 c 25
 140 33 140 67 140 100 c 25
 129 100 118 100 107 100 c 25
 107 200 107 300 107 400 c 25
 118 400 129 400 140 400 c 25
 140 433 140 467 140 500 c 9
EndSplineSet
EndChar

StartChar: uni043F
Encoding: 1087 1087 158
Width: 430
Flags: HW
HStem: 0 21G<140 240 490 590> 400 100<240 490>
VStem: 140 100<0 400> 490 100<0 400>
LayerCount: 2
Back
Fore
SplineSet
107 0 m 13
 107 167 107 333 107 500 c 25
 207 500 307 500 407 500 c 25
 407 333 407 167 407 0 c 25
 385 0 362 0 340 0 c 25
 340 133 340 267 340 400 c 25
 284 400 229 400 173 400 c 25
 173 267 173 133 173 0 c 25
 151 0 129 0 107 0 c 13
EndSplineSet
EndChar

StartChar: uni0440
Encoding: 1088 1088 159
Width: 430
Flags: HW
HStem: -200 21G<140 240> 0 100<290 490> 100 100<240 290> 300 100<240 290> 400 100<290 490>
VStem: 140 150<100 200 300 400> 140 100<-200 100 200 300 400 500> 290 250<0 100 400 500> 490 100<100 400>
LayerCount: 2
Back
Fore
SplineSet
207 300 m 13
 196 300 184 300 173 300 c 25
 173 267 173 233 173 200 c 25
 184 200 196 200 207 200 c 25
 207 167 207 133 207 100 c 25
 251 100 296 100 340 100 c 25
 340 200 340 300 340 400 c 25
 296 400 251 400 207 400 c 25
 207 367 207 333 207 300 c 13
107 500 m 9
 129 500 151 500 173 500 c 25
 173 467 173 433 173 400 c 25
 184 400 196 400 207 400 c 25
 207 433 207 467 207 500 c 25
 263 500 317 500 373 500 c 25
 373 467 373 433 373 400 c 25
 384 400 396 400 407 400 c 25
 407 300 407 200 407 100 c 25
 396 100 384 100 373 100 c 25
 373 67 373 33 373 0 c 25
 317 0 263 0 207 0 c 25
 207 33 207 67 207 100 c 25
 196 100 184 100 173 100 c 25
 173 0 173 -100 173 -200 c 25
 151 -200 129 -200 107 -200 c 25
 107 33 107 267 107 500 c 9
EndSplineSet
EndChar

StartChar: uni0441
Encoding: 1089 1089 160
Width: 430
Flags: HW
HStem: 0 100<290 590> 200 100<140 190> 400 100<290 590>
VStem: 140 100<200 300> 190 100<100 200 300 400>
CounterMasks: 1 e0
LayerCount: 2
Back
Fore
SplineSet
173 500 m 13
 251 500 329 500 407 500 c 25
 407 467 407 433 407 400 c 25
 340 400 274 400 207 400 c 25
 207 367 207 333 207 300 c 25
 196 300 184 300 173 300 c 25
 173 267 173 233 173 200 c 25
 184 200 196 200 207 200 c 25
 207 167 207 133 207 100 c 25
 274 100 340 100 407 100 c 25
 407 67 407 33 407 0 c 25
 329 0 251 0 173 0 c 25
 173 33 173 67 173 100 c 25
 162 100 151 100 140 100 c 25
 140 133 140 167 140 200 c 25
 129 200 118 200 107 200 c 25
 107 233 107 267 107 300 c 25
 118 300 129 300 140 300 c 25
 140 333 140 367 140 400 c 25
 151 400 162 400 173 400 c 25
 173 433 173 467 173 500 c 13
EndSplineSet
EndChar

StartChar: uni0442
Encoding: 1090 1090 161
Width: 430
Flags: HW
HStem: 0 21G<290 390> 400 100<90 290 390 590>
VStem: 290 100<0 400>
LayerCount: 2
Back
Fore
SplineSet
73 500 m 1
 184 500 296 500 407 500 c 1
 407 467 407 433 407 400 c 5
 363 400 317 400 273 400 c 1
 273 267 273 133 273 0 c 25
 251 0 229 0 207 0 c 25
 207 133 207 267 207 400 c 1
 163 400 117 400 73 400 c 1
 73 433 73 467 73 500 c 1
EndSplineSet
EndChar

StartChar: uni0443
Encoding: 1091 1091 162
Width: 430
Flags: HW
HStem: -200 100<140 240> 400 100<140 190 540 590>
VStem: 140 100<400 500> 190 100<300 400> 240 100<-100 0 200 300> 290 150<100 200> 290 100<0 100> 390 100<200 300> 440 100<300 400> 490 100<400 500>
LayerCount: 2
Back
Fore
SplineSet
107 500 m 13
 129 500 151 500 173 500 c 25
 173 467 173 433 173 400 c 25
 184 400 196 400 207 400 c 25
 207 367 207 333 207 300 c 25
 218 300 229 300 240 300 c 25
 240 267 240 233 240 200 c 25
 251 200 262 200 273 200 c 25
 273 233 273 267 273 300 c 25
 284 300 296 300 307 300 c 25
 307 333 307 367 307 400 c 25
 318 400 329 400 340 400 c 25
 340 433 340 467 340 500 c 25
 362 500 385 500 407 500 c 25
 407 467 407 433 407 400 c 25
 396 400 384 400 373 400 c 25
 373 367 373 333 373 300 c 25
 362 300 351 300 340 300 c 25
 340 267 340 233 340 200 c 25
 329 200 318 200 307 200 c 25
 307 167 307 133 307 100 c 25
 296 100 284 100 273 100 c 25
 273 67 273 33 273 0 c 25
 262 0 251 0 240 0 c 25
 240 -33 240 -67 240 -100 c 25
 229 -100 218 -100 207 -100 c 25
 207 -133 207 -167 207 -200 c 25
 174 -200 140 -200 107 -200 c 25
 107 -167 107 -133 107 -100 c 25
 129 -100 151 -100 173 -100 c 25
 173 -67 173 -33 173 0 c 25
 184 0 196 0 207 0 c 25
 207 67 207 133 207 200 c 25
 196 200 184 200 173 200 c 25
 173 233 173 267 173 300 c 25
 162 300 151 300 140 300 c 25
 140 333 140 367 140 400 c 25
 129 400 118 400 107 400 c 25
 107 433 107 467 107 500 c 13
EndSplineSet
EndChar

StartChar: uni0444
Encoding: 1092 1092 163
Width: 430
Flags: HW
HStem: -200 21G<290 390> 0 100<190 290 390 490> 400 100<190 290 390 490> 680 20G<290 390>
VStem: 90 100<100 400> 290 100<-200 0 100 400 500 700> 490 100<100 400>
CounterMasks: 1 0e
LayerCount: 2
Back
Fore
SplineSet
207 400 m 13
 185 400 162 400 140 400 c 25
 140 300 140 200 140 100 c 25
 162 100 185 100 207 100 c 25
 207 200 207 300 207 400 c 13
273 400 m 9
 273 300 273 200 273 100 c 25
 295 100 318 100 340 100 c 25
 340 200 340 300 340 400 c 25
 318 400 295 400 273 400 c 9
207 700 m 9
 229 700 251 700 273 700 c 25
 273 633 273 567 273 500 c 25
 306 500 340 500 373 500 c 25
 373 467 373 433 373 400 c 25
 384 400 396 400 407 400 c 25
 407 300 407 200 407 100 c 25
 396 100 384 100 373 100 c 25
 373 67 373 33 373 0 c 25
 340 0 306 0 273 0 c 25
 273 -67 273 -133 273 -200 c 25
 251 -200 229 -200 207 -200 c 25
 207 -133 207 -67 207 0 c 25
 174 0 140 0 107 0 c 25
 107 33 107 67 107 100 c 25
 96 100 84 100 73 100 c 25
 73 200 73 300 73 400 c 25
 84 400 96 400 107 400 c 25
 107 433 107 467 107 500 c 25
 140 500 174 500 207 500 c 25
 207 567 207 633 207 700 c 9
EndSplineSet
EndChar

StartChar: uni0445
Encoding: 1093 1093 164
Width: 430
Flags: HW
HStem: 0 100<90 190 490 590> 200 100<290 390> 400 100<90 190 490 590>
VStem: 90 150<0 100 400 500> 190 100<100 200 300 400> 390 100<100 200 300 400> 440 150<0 100 400 500>
CounterMasks: 1 e0
LayerCount: 2
Back
Fore
SplineSet
73 500 m 13
 106 500 140 500 173 500 c 25
 173 467 173 433 173 400 c 25
 184 400 196 400 207 400 c 25
 207 367 207 333 207 300 c 25
 229 300 251 300 273 300 c 25
 273 333 273 367 273 400 c 25
 284 400 296 400 307 400 c 25
 307 433 307 467 307 500 c 25
 340 500 374 500 407 500 c 25
 407 467 407 433 407 400 c 25
 385 400 362 400 340 400 c 25
 340 367 340 333 340 300 c 25
 329 300 318 300 307 300 c 25
 307 267 307 233 307 200 c 25
 318 200 329 200 340 200 c 25
 340 167 340 133 340 100 c 25
 362 100 385 100 407 100 c 25
 407 67 407 33 407 0 c 25
 374 0 340 0 307 0 c 25
 307 33 307 67 307 100 c 25
 296 100 284 100 273 100 c 25
 273 133 273 167 273 200 c 25
 251 200 229 200 207 200 c 25
 207 167 207 133 207 100 c 25
 196 100 184 100 173 100 c 25
 173 67 173 33 173 0 c 25
 140 0 106 0 73 0 c 25
 73 33 73 67 73 100 c 25
 95 100 118 100 140 100 c 25
 140 133 140 167 140 200 c 25
 151 200 162 200 173 200 c 25
 173 233 173 267 173 300 c 25
 162 300 151 300 140 300 c 25
 140 333 140 367 140 400 c 25
 118 400 95 400 73 400 c 25
 73 433 73 467 73 500 c 13
EndSplineSet
EndChar

StartChar: uni0446
Encoding: 1094 1094 165
Width: 430
Flags: HW
HStem: 0 100<240 390> 480 20G<140 240 390 490>
VStem: 140 100<100 500> 390 100<100 500> 490 100<-100 0>
LayerCount: 2
Back
Fore
SplineSet
107 500 m 13
 129 500 151 500 173 500 c 25
 173 367 173 233 173 100 c 25
 206 100 240 100 273 100 c 25
 273 233 273 367 273 500 c 25
 295 500 318 500 340 500 c 25
 340 367 340 233 340 100 c 25
 362 100 385 100 407 100 c 25
 407 33 407 -33 407 -100 c 25
 385 -100 362 -100 340 -100 c 25
 340 -67 340 -33 340 0 c 25
 262 0 185 0 107 0 c 25
 107 167 107 333 107 500 c 13
EndSplineSet
EndChar

StartChar: uni0447
Encoding: 1095 1095 166
Width: 430
Flags: HW
HStem: 0 21G<490 590> 200 100<240 490> 480 20G<140 240 490 590>
VStem: 140 100<300 500> 490 100<0 200 300 500>
LayerCount: 2
Back
Fore
SplineSet
107 500 m 13
 129 500 151 500 173 500 c 25
 173 433 173 367 173 300 c 25
 229 300 284 300 340 300 c 25
 340 367 340 433 340 500 c 25
 362 500 385 500 407 500 c 25
 407 333 407 167 407 0 c 25
 385 0 362 0 340 0 c 25
 340 67 340 133 340 200 c 25
 273 200 207 200 140 200 c 25
 140 233 140 267 140 300 c 25
 129 300 118 300 107 300 c 25
 107 367 107 433 107 500 c 13
EndSplineSet
EndChar

StartChar: uni0448
Encoding: 1096 1096 167
Width: 430
Flags: HW
HStem: 0 100<190 290 390 490> 480 20G<90 190 290 390 490 590>
VStem: 90 100<100 500> 290 100<100 500> 490 100<100 500>
CounterMasks: 1 38
LayerCount: 2
Back
Fore
SplineSet
73 500 m 13
 95 500 118 500 140 500 c 25
 140 367 140 233 140 100 c 25
 162 100 185 100 207 100 c 25
 207 233 207 367 207 500 c 25
 229 500 251 500 273 500 c 25
 273 367 273 233 273 100 c 25
 295 100 318 100 340 100 c 25
 340 233 340 367 340 500 c 25
 362 500 385 500 407 500 c 25
 407 333 407 167 407 0 c 25
 296 0 184 0 73 0 c 25
 73 167 73 333 73 500 c 13
EndSplineSet
EndChar

StartChar: uni0449
Encoding: 1097 1097 168
Width: 430
Flags: HW
HStem: 0 100<190 290 390 490> 480 20G<90 190 290 390 490 590>
VStem: 90 100<100 500> 290 100<100 500> 490 100<100 500> 540 100<-100 0>
LayerCount: 2
Back
Fore
SplineSet
73 500 m 13
 95 500 118 500 140 500 c 25
 140 367 140 233 140 100 c 25
 162 100 185 100 207 100 c 25
 207 233 207 367 207 500 c 25
 229 500 251 500 273 500 c 25
 273 367 273 233 273 100 c 25
 295 100 318 100 340 100 c 25
 340 233 340 367 340 500 c 25
 362 500 385 500 407 500 c 25
 407 367 407 233 407 100 c 25
 418 100 429 100 440 100 c 25
 440 33 440 -33 440 -100 c 25
 418 -100 395 -100 373 -100 c 25
 373 -67 373 -33 373 0 c 25
 273 0 173 0 73 0 c 25
 73 167 73 333 73 500 c 13
EndSplineSet
EndChar

StartChar: uni044A
Encoding: 1098 1098 169
Width: 430
Flags: HW
HStem: 0 100<290 490> 100 100<540 590> 200 100<290 490> 400 100<90 190>
VStem: 190 100<100 200 300 400> 490 100<100 200>
LayerCount: 2
Back
Fore
SplineSet
207 200 m 13
 207 167 207 133 207 100 c 25
 251 100 296 100 340 100 c 25
 340 133 340 167 340 200 c 25
 296 200 251 200 207 200 c 13
73 500 m 9
 117 500 163 500 207 500 c 25
 207 433 207 367 207 300 c 25
 263 300 317 300 373 300 c 25
 373 267 373 233 373 200 c 25
 384 200 396 200 407 200 c 25
 407 167 407 133 407 100 c 25
 396 100 384 100 373 100 c 25
 373 67 373 33 373 0 c 25
 295 0 218 0 140 0 c 25
 140 133 140 267 140 400 c 25
 118 400 95 400 73 400 c 25
 73 433 73 467 73 500 c 9
EndSplineSet
EndChar

StartChar: uni044B
Encoding: 1099 1099 170
Width: 430
Flags: HW
HStem: 0 100<190 340> 100 100<390 440> 200 100<190 340> 480 20G<90 190 490 590>
VStem: 90 300<0 100 200 300> 90 100<100 200 300 500> 340 100<100 200> 490 100<0 500>
LayerCount: 2
Back
Fore
SplineSet
340 0 m 13
 340 167 340 333 340 500 c 25
 362 500 385 500 407 500 c 25
 407 333 407 167 407 0 c 25
 385 0 362 0 340 0 c 13
140 200 m 9
 140 167 140 133 140 100 c 25
 173 100 207 100 240 100 c 25
 240 133 240 167 240 200 c 25
 207 200 173 200 140 200 c 9
73 500 m 9
 95 500 118 500 140 500 c 25
 140 433 140 367 140 300 c 25
 184 300 229 300 273 300 c 25
 273 267 273 233 273 200 c 25
 284 200 296 200 307 200 c 25
 307 167 307 133 307 100 c 25
 296 100 284 100 273 100 c 25
 273 67 273 33 273 0 c 25
 206 0 140 0 73 0 c 25
 73 167 73 333 73 500 c 9
EndSplineSet
EndChar

StartChar: uni044C
Encoding: 1100 1100 171
Width: 430
Flags: HW
HStem: 0 100<240 490> 100 100<540 590> 200 100<240 490> 480 20G<140 240>
VStem: 140 100<100 200 300 500> 490 100<100 200>
LayerCount: 2
Back
Fore
SplineSet
173 100 m 1
 229 100 284 100 340 100 c 1
 340 133 340 167 340 200 c 1
 284 200 229 200 173 200 c 1
 173 167 173 133 173 100 c 1
107 500 m 1
 129 500 151 500 173 500 c 1
 173 433 173 367 173 300 c 5
 240 300 306 300 373 300 c 1
 373 267 373 233 373 200 c 25
 384 200 396 200 407 200 c 25
 407 167 407 133 407 100 c 25
 396 100 384 100 373 100 c 25
 373 67 373 33 373 0 c 1
 284 0 196 0 107 0 c 1
 107 167 107 333 107 500 c 1
EndSplineSet
EndChar

StartChar: uni044D
Encoding: 1101 1101 172
Width: 430
Flags: HW
HStem: 0 100<240 490> 100 100<140 190> 200 100<340 490> 300 100<140 190> 400 100<240 490>
VStem: 140 100<100 200 300 400> 490 100<100 200 300 400>
LayerCount: 2
Back
Fore
SplineSet
107 300 m 13
 107 333 107 367 107 400 c 25
 118 400 129 400 140 400 c 25
 140 433 140 467 140 500 c 25
 218 500 295 500 373 500 c 25
 373 467 373 433 373 400 c 25
 384 400 396 400 407 400 c 25
 407 300 407 200 407 100 c 25
 396 100 384 100 373 100 c 25
 373 67 373 33 373 0 c 25
 295 0 218 0 140 0 c 25
 140 33 140 67 140 100 c 25
 129 100 118 100 107 100 c 25
 107 133 107 167 107 200 c 25
 129 200 151 200 173 200 c 25
 173 167 173 133 173 100 c 25
 229 100 284 100 340 100 c 25
 340 133 340 167 340 200 c 25
 307 200 273 200 240 200 c 25
 240 233 240 267 240 300 c 25
 273 300 307 300 340 300 c 25
 340 333 340 367 340 400 c 25
 284 400 229 400 173 400 c 25
 173 367 173 333 173 300 c 25
 151 300 129 300 107 300 c 13
EndSplineSet
EndChar

StartChar: uni044E
Encoding: 1102 1102 173
Width: 430
Flags: HW
HStem: 0 100<390 490> 200 100<240 290> 400 100<390 490>
VStem: 140 100<0 200 300 500> 290 100<100 200 300 400> 340 200<0 100 400 500> 490 100<100 400>
CounterMasks: 1 e0
LayerCount: 2
Back
Fore
SplineSet
273 100 m 13
 295 100 318 100 340 100 c 25
 340 200 340 300 340 400 c 25
 318 400 295 400 273 400 c 25
 273 300 273 200 273 100 c 13
107 0 m 9
 107 167 107 333 107 500 c 25
 129 500 151 500 173 500 c 25
 173 433 173 367 173 300 c 25
 184 300 196 300 207 300 c 25
 207 333 207 367 207 400 c 25
 218 400 229 400 240 400 c 25
 240 433 240 467 240 500 c 25
 284 500 329 500 373 500 c 25
 373 467 373 433 373 400 c 25
 384 400 396 400 407 400 c 25
 407 300 407 200 407 100 c 25
 396 100 384 100 373 100 c 25
 373 67 373 33 373 0 c 25
 329 0 284 0 240 0 c 25
 240 33 240 67 240 100 c 25
 229 100 218 100 207 100 c 25
 207 133 207 167 207 200 c 25
 196 200 184 200 173 200 c 25
 173 133 173 67 173 0 c 25
 151 0 129 0 107 0 c 9
EndSplineSet
EndChar

StartChar: uni044F
Encoding: 1103 1103 174
Width: 430
Flags: HW
HStem: 0 100<140 240> 200 100<190 240 390 440> 300 100<90 140> 400 100<190 440>
VStem: 90 100<300 400> 140 150<0 100> 240 150<100 200> 440 100<0 200 300 400>
LayerCount: 2
Back
Fore
SplineSet
140 400 m 13
 140 367 140 333 140 300 c 25
 196 300 251 300 307 300 c 25
 307 333 307 367 307 400 c 25
 251 400 196 400 140 400 c 13
73 400 m 9
 84 400 96 400 107 400 c 25
 107 433 107 467 107 500 c 25
 196 500 284 500 373 500 c 25
 373 333 373 167 373 0 c 25
 351 0 329 0 307 0 c 25
 307 67 307 133 307 200 c 25
 296 200 284 200 273 200 c 25
 273 167 273 133 273 100 c 25
 251 100 229 100 207 100 c 25
 207 67 207 33 207 0 c 25
 174 0 140 0 107 0 c 25
 107 33 107 67 107 100 c 25
 129 100 151 100 173 100 c 25
 173 133 173 167 173 200 c 25
 151 200 129 200 107 200 c 25
 107 233 107 267 107 300 c 25
 96 300 84 300 73 300 c 25
 73 333 73 367 73 400 c 9
EndSplineSet
EndChar

StartChar: uni2116
Encoding: 8470 8470 175
Width: 430
Flags: HW
HStem: 0 21G<40 140 240 340> 200 100<390 640> 400 100<490 540> 500 100<390 440 590 640> 600 100<490 540>
VStem: 40 150<400 600> 40 100<0 250 600 700> 190 150<100 250> 240 100<0 100 400 700> 390 100<500 600> 440 150<400 500 600 700> 540 100<500 600>
LayerCount: 2
Back
Fore
SplineSet
273 300 m 13
 329 300 384 300 440 300 c 25
 440 267 440 233 440 200 c 25
 384 200 329 200 273 200 c 25
 273 233 273 267 273 300 c 13
340 600 m 9
 340 567 340 533 340 500 c 25
 351 500 362 500 373 500 c 25
 373 533 373 567 373 600 c 25
 362 600 351 600 340 600 c 9
307 600 m 9
 307 633 307 667 307 700 c 25
 340 700 374 700 407 700 c 25
 407 667 407 633 407 600 c 25
 418 600 429 600 440 600 c 25
 440 567 440 533 440 500 c 25
 429 500 418 500 407 500 c 25
 407 467 407 433 407 400 c 25
 374 400 340 400 307 400 c 25
 307 433 307 467 307 500 c 25
 296 500 284 500 273 500 c 25
 273 533 273 567 273 600 c 25
 284 600 296 600 307 600 c 9
40 0 m 9
 40 233 40 467 40 700 c 25
 62 700 85 700 107 700 c 25
 107 667 107 633 107 600 c 25
 118 600 129 600 140 600 c 25
 140 533 140 467 140 400 c 25
 151 400 162 400 173 400 c 25
 173 500 173 600 173 700 c 25
 195 700 218 700 240 700 c 25
 240 467 240 233 240 0 c 25
 218 0 195 0 173 0 c 25
 173 33 173 67 173 100 c 25
 162 100 151 100 140 100 c 25
 140 150 140 200 140 250 c 25
 129 250 118 250 107 250 c 25
 107 167 107 83 107 0 c 25
 85 0 62 0 40 0 c 9
EndSplineSet
EndChar

StartChar: asciitilde
Encoding: 126 126 176
Width: 430
Flags: HW
HStem: 500 100<140 190 390 490> 600 100<240 340 540 590>
VStem: 140 100<501 600> 490 100<600 700>
LayerCount: 2
Back
Fore
SplineSet
107 600 m 13
 118 600 129 600 140 600 c 25
 140 633 140 667 140 700 c 25
 184 700 229 700 273 700 c 25
 273 667 273 633 273 600 c 25
 295 600 318 600 340 600 c 25
 340 633 340 667 340 700 c 25
 362 700 385 700 407 700 c 25
 407 667 407 633 407 600 c 25
 396 600 384 600 373 600 c 25
 373 567 373 533 373 500 c 25
 329 500 284 500 240 500 c 25
 240 533 240 567 240 600 c 25
 218 600 195 600 173 600 c 25
 173 567 173 533 173 500 c 25
 151 500 129 501 107 501 c 25
 107 534 107 567 107 600 c 13
EndSplineSet
EndChar

StartChar: section
Encoding: 167 167 177
Width: 430
Flags: HW
HStem: 0 100<190 340> 100 100<90 140> 200 100<290 340> 300 100<190 240 440 490> 400 100<340 390> 500 100<540 590> 600 100<340 490>
VStem: 90 100<100 200> 190 100<300 400> 240 100<500 600> 340 100<100 200> 390 100<300 400> 490 100<500 600>
LayerCount: 2
Back
Fore
SplineSet
273 400 m 13
 251 400 229 400 207 400 c 25
 207 367 207 333 207 300 c 25
 229 300 251 300 273 300 c 25
 273 333 273 367 273 400 c 13
340 500 m 9
 340 533 340 567 340 600 c 25
 307 600 273 600 240 600 c 25
 240 567 240 533 240 500 c 25
 262 500 285 500 307 500 c 25
 307 467 307 433 307 400 c 25
 318 400 329 400 340 400 c 25
 340 367 340 333 340 300 c 25
 329 300 318 300 307 300 c 25
 307 233 307 167 307 100 c 25
 296 100 284 100 273 100 c 25
 273 67 273 33 273 0 c 25
 217 0 163 0 107 0 c 25
 107 33 107 67 107 100 c 25
 96 100 84 100 73 100 c 25
 73 133 73 167 73 200 c 25
 95 200 118 200 140 200 c 25
 140 167 140 133 140 100 c 25
 173 100 207 100 240 100 c 25
 240 133 240 167 240 200 c 25
 218 200 195 200 173 200 c 25
 173 233 173 267 173 300 c 25
 162 300 151 300 140 300 c 25
 140 333 140 367 140 400 c 25
 151 400 162 400 173 400 c 25
 173 467 173 533 173 600 c 25
 184 600 196 600 207 600 c 25
 207 633 207 667 207 700 c 25
 263 700 317 700 373 700 c 25
 373 667 373 633 373 600 c 25
 384 600 396 600 407 600 c 25
 407 567 407 533 407 500 c 25
 385 500 362 500 340 500 c 9
EndSplineSet
EndChar

StartChar: parenleft
Encoding: 40 40 178
Width: 430
Flags: HW
HStem: 0 100<340 440> 600 100<340 440>
VStem: 190 100<200 500> 240 100<100 200 500 600> 290 150<0 100 600 700>
LayerCount: 2
Back
Fore
SplineSet
207 600 m 13
 207 633 207 667 207 700 c 25
 240 700 274 700 307 700 c 25
 307 667 307 633 307 600 c 25
 285 600 262 600 240 600 c 25
 240 567 240 533 240 500 c 25
 229 500 218 500 207 500 c 25
 207 400 207 300 207 200 c 25
 218 200 229 200 240 200 c 25
 240 167 240 133 240 100 c 25
 262 100 285 100 307 100 c 25
 307 67 307 33 307 0 c 25
 274 0 240 0 207 0 c 25
 207 33 207 67 207 100 c 25
 196 100 184 100 173 100 c 25
 173 133 173 167 173 200 c 25
 162 200 151 200 140 200 c 25
 140 300 140 400 140 500 c 25
 151 500 162 500 173 500 c 25
 173 533 173 567 173 600 c 25
 184 600 196 600 207 600 c 13
EndSplineSet
EndChar

StartChar: quotedbl
Encoding: 34 34 179
Width: 430
Flags: HW
HStem: 400 100<140 190 390 440> 600 100<140 190 390 440>
VStem: 140 100<400 500> 190 100<500 600> 390 100<400 500> 440 100<500 600>
LayerCount: 2
Back
Fore
SplineSet
273 400 m 13
 273 433 273 467 273 500 c 25
 284 500 296 500 307 500 c 25
 307 533 307 567 307 600 c 25
 296 600 284 600 273 600 c 25
 273 633 273 667 273 700 c 25
 306 700 340 700 373 700 c 25
 373 633 373 567 373 500 c 25
 362 500 351 500 340 500 c 25
 340 467 340 433 340 400 c 25
 318 400 295 400 273 400 c 13
107 600 m 9
 107 633 107 667 107 700 c 25
 140 700 174 700 207 700 c 25
 207 633 207 567 207 500 c 25
 196 500 184 500 173 500 c 25
 173 467 173 433 173 400 c 25
 151 400 129 400 107 400 c 25
 107 433 107 467 107 500 c 25
 118 500 129 500 140 500 c 25
 140 533 140 567 140 600 c 25
 129 600 118 600 107 600 c 9
EndSplineSet
EndChar

StartChar: numbersign
Encoding: 35 35 180
Width: 430
Flags: HW
HStem: 0 21G<190 290 390 490> 200 100<90 190 290 390 490 590> 400 100<90 190 290 390 490 590> 680 20G<190 290 390 490>
VStem: 190 100<0 200 300 400 500 700> 390 100<0 200 300 400 500 700>
LayerCount: 2
Back
Fore
SplineSet
207 300 m 13
 229 300 251 300 273 300 c 25
 273 333 273 367 273 400 c 25
 251 400 229 400 207 400 c 25
 207 367 207 333 207 300 c 13
140 700 m 9
 162 700 185 700 207 700 c 25
 207 633 207 567 207 500 c 25
 229 500 251 500 273 500 c 25
 273 567 273 633 273 700 c 25
 295 700 318 700 340 700 c 25
 340 633 340 567 340 500 c 25
 362 500 385 500 407 500 c 25
 407 467 407 433 407 400 c 25
 385 400 362 400 340 400 c 25
 340 367 340 333 340 300 c 25
 362 300 385 300 407 300 c 25
 407 267 407 233 407 200 c 25
 385 200 362 200 340 200 c 25
 340 133 340 67 340 0 c 25
 318 0 295 0 273 0 c 25
 273 67 273 133 273 200 c 25
 251 200 229 200 207 200 c 25
 207 133 207 67 207 0 c 25
 185 0 162 0 140 0 c 25
 140 67 140 133 140 200 c 25
 118 200 95 200 73 200 c 25
 73 233 73 267 73 300 c 25
 95 300 118 300 140 300 c 25
 140 333 140 367 140 400 c 25
 118 400 95 400 73 400 c 25
 73 433 73 467 73 500 c 25
 95 500 118 500 140 500 c 25
 140 567 140 633 140 700 c 9
EndSplineSet
EndChar

StartChar: dollar
Encoding: 36 36 181
Width: 430
Flags: HW
HStem: 0 100<190 290 390 490> 100 100<90 140> 300 100<190 290 390 490> 500 100<540 590> 600 100<190 290 390 490>
VStem: 90 100<100 200 400 600> 140 400<0 100 300 400 600 700> 290 100<-100 0 100 300 400 600 700 800> 490 100<100 300 500 600>
LayerCount: 2
Back
Fore
SplineSet
340 100 m 13
 340 167 340 233 340 300 c 25
 318 300 295 300 273 300 c 25
 273 233 273 167 273 100 c 25
 295 100 318 100 340 100 c 13
207 600 m 9
 185 600 162 600 140 600 c 25
 140 533 140 467 140 400 c 25
 162 400 185 400 207 400 c 25
 207 467 207 533 207 600 c 9
273 800 m 9
 273 767 273 733 273 700 c 1
 306 700 340 700 373 700 c 25
 373 667 373 633 373 600 c 25
 384 600 396 600 407 600 c 25
 407 567 407 533 407 500 c 25
 385 500 362 500 340 500 c 25
 340 533 340 567 340 600 c 25
 318 600 295 600 273 600 c 25
 273 533 273 467 273 400 c 25
 306 400 340 400 373 400 c 25
 373 367 373 333 373 300 c 25
 384 300 396 300 407 300 c 25
 407 233 407 167 407 100 c 25
 396 100 384 100 373 100 c 25
 373 67 373 33 373 0 c 25
 340 0 306 0 273 0 c 25
 273 -33 273 -67 273 -100 c 25
 251 -100 229 -100 207 -100 c 25
 207 -67 207 -33 207 0 c 25
 174 0 140 0 107 0 c 25
 107 33 107 67 107 100 c 25
 96 100 84 100 73 100 c 25
 73 133 73 167 73 200 c 25
 95 200 118 200 140 200 c 25
 140 167 140 133 140 100 c 25
 162 100 185 100 207 100 c 25
 207 167 207 233 207 300 c 25
 174 300 140 300 107 300 c 25
 107 333 107 367 107 400 c 25
 96 400 84 400 73 400 c 25
 73 467 73 533 73 600 c 25
 84 600 96 600 107 600 c 25
 107 633 107 667 107 700 c 25
 140 700 174 700 207 700 c 25
 207 733 207 767 207 800 c 1
 229 800 251 800 273 800 c 9
EndSplineSet
EndChar

StartChar: percent
Encoding: 37 37 182
Width: 430
Flags: HW
HStem: 0 100<140 190 490 540> 100 100<390 440 590 640> 200 100<490 540> 400 100<140 190> 500 100<40 90 240 290> 600 100<140 190 490 540>
VStem: 40 100<500 600> 90 150<400 500 600 700> 140 100<0 100> 190 100<100 200 500 600> 240 100<200 300> 290 100<300 400> 340 100<400 500> 390 100<100 200 500 600> 440 150<0 100 200 300> 440 100<600 700> 540 100<100 200>
LayerCount: 2
Back
Fore
SplineSet
307 700 m 13
 329 700 351 700 373 700 c 25
 373 667 373 633 373 600 c 25
 362 600 351 600 340 600 c 25
 340 567 340 533 340 500 c 25
 329 500 318 500 307 500 c 25
 307 467 307 433 307 400 c 25
 296 400 284 400 273 400 c 25
 273 367 273 333 273 300 c 25
 262 300 251 300 240 300 c 25
 240 267 240 233 240 200 c 25
 229 200 218 200 207 200 c 25
 207 167 207 133 207 100 c 25
 196 100 184 100 173 100 c 25
 173 67 173 33 173 0 c 25
 151 0 129 0 107 0 c 25
 107 33 107 67 107 100 c 25
 118 100 129 100 140 100 c 25
 140 133 140 167 140 200 c 25
 151 200 162 200 173 200 c 25
 173 233 173 267 173 300 c 25
 184 300 196 300 207 300 c 25
 207 333 207 367 207 400 c 25
 218 400 229 400 240 400 c 25
 240 433 240 467 240 500 c 25
 251 500 262 500 273 500 c 25
 273 533 273 567 273 600 c 25
 284 600 296 600 307 600 c 25
 307 633 307 667 307 700 c 13
340 100 m 9
 351 100 362 100 373 100 c 25
 373 133 373 167 373 200 c 25
 362 200 351 200 340 200 c 25
 340 167 340 133 340 100 c 9
307 300 m 9
 340 300 374 300 407 300 c 25
 407 267 407 233 407 200 c 25
 418 200 429 200 440 200 c 25
 440 167 440 133 440 100 c 25
 429 100 418 100 407 100 c 25
 407 67 407 33 407 0 c 25
 374 0 340 0 307 0 c 25
 307 33 307 67 307 100 c 25
 296 100 284 100 273 100 c 25
 273 133 273 167 273 200 c 25
 284 200 296 200 307 200 c 25
 307 233 307 267 307 300 c 9
107 600 m 9
 107 567 107 533 107 500 c 25
 118 500 129 500 140 500 c 25
 140 533 140 567 140 600 c 25
 129 600 118 600 107 600 c 9
40 600 m 9
 51 600 62 600 73 600 c 25
 73 633 73 667 73 700 c 25
 106 700 140 700 173 700 c 25
 173 667 173 633 173 600 c 25
 184 600 196 600 207 600 c 25
 207 567 207 533 207 500 c 25
 196 500 184 500 173 500 c 25
 173 467 173 433 173 400 c 25
 140 400 106 400 73 400 c 25
 73 433 73 467 73 500 c 25
 62 500 51 500 40 500 c 25
 40 533 40 567 40 600 c 9
EndSplineSet
EndChar

StartChar: ampersand
Encoding: 38 38 183
Width: 430
Flags: HW
HStem: 0 100<190 390 540 640> 100 100<90 140 440 490> 200 100<540 590> 300 100<240 340> 600 100<240 340>
VStem: 90 100<100 200> 140 100<200 300 400 600> 190 200<300 400 600 700> 340 100<200 300 400 600> 490 150<0 100> 490 100<200 300>
LayerCount: 2
Back
Fore
SplineSet
173 300 m 13
 173 267 173 233 173 200 c 25
 162 200 151 200 140 200 c 25
 140 167 140 133 140 100 c 25
 184 100 229 100 273 100 c 25
 273 133 273 167 273 200 c 25
 262 200 251 200 240 200 c 25
 240 233 240 267 240 300 c 25
 218 300 195 300 173 300 c 13
173 600 m 9
 173 533 173 467 173 400 c 25
 195 400 218 400 240 400 c 25
 240 467 240 533 240 600 c 25
 218 600 195 600 173 600 c 9
140 700 m 9
 184 700 229 700 273 700 c 25
 273 667 273 633 273 600 c 25
 284 600 296 600 307 600 c 25
 307 533 307 467 307 400 c 25
 296 400 284 400 273 400 c 25
 273 367 273 333 273 300 c 25
 284 300 296 300 307 300 c 25
 307 267 307 233 307 200 c 25
 318 200 329 200 340 200 c 25
 340 233 340 267 340 300 c 25
 362 300 385 300 407 300 c 25
 407 267 407 233 407 200 c 25
 396 200 384 200 373 200 c 25
 373 167 373 133 373 100 c 25
 395 100 418 100 440 100 c 25
 440 67 440 33 440 0 c 25
 407 0 373 0 340 0 c 25
 340 33 340 67 340 100 c 25
 329 100 318 100 307 100 c 25
 307 67 307 33 307 0 c 25
 240 0 174 0 107 0 c 25
 107 33 107 67 107 100 c 25
 96 100 84 100 73 100 c 25
 73 133 73 167 73 200 c 25
 84 200 96 200 107 200 c 25
 107 233 107 267 107 300 c 25
 118 300 129 300 140 300 c 25
 140 333 140 367 140 400 c 25
 129 400 118 400 107 400 c 25
 107 467 107 533 107 600 c 25
 118 600 129 600 140 600 c 25
 140 633 140 667 140 700 c 9
EndSplineSet
EndChar

StartChar: quotesingle
Encoding: 39 39 184
Width: 430
Flags: HW
HStem: 400 100<290 340> 600 100<290 340>
VStem: 290 100<400 500> 340 100<500 600>
LayerCount: 2
Back
Fore
SplineSet
207 600 m 13
 207 633 207 667 207 700 c 25
 240 700 274 700 307 700 c 25
 307 633 307 567 307 500 c 25
 296 500 284 500 273 500 c 25
 273 467 273 433 273 400 c 25
 251 400 229 400 207 400 c 25
 207 433 207 467 207 500 c 25
 218 500 229 500 240 500 c 25
 240 533 240 567 240 600 c 25
 229 600 218 600 207 600 c 13
EndSplineSet
EndChar

StartChar: parenright
Encoding: 41 41 185
Width: 430
Flags: HW
HStem: 0 100<240 340> 600 100<240 340>
VStem: 240 150<0 100 600 700> 340 100<100 200 500 600> 390 100<200 500>
LayerCount: 2
Back
Fore
SplineSet
173 700 m 13
 206 700 240 700 273 700 c 25
 273 667 273 633 273 600 c 25
 284 600 296 600 307 600 c 25
 307 567 307 533 307 500 c 25
 318 500 329 500 340 500 c 25
 340 400 340 300 340 200 c 25
 329 200 318 200 307 200 c 25
 307 167 307 133 307 100 c 25
 296 100 284 100 273 100 c 25
 273 67 273 33 273 0 c 25
 240 0 206 0 173 0 c 25
 173 33 173 67 173 100 c 25
 195 100 218 100 240 100 c 25
 240 133 240 167 240 200 c 25
 251 200 262 200 273 200 c 25
 273 300 273 400 273 500 c 25
 262 500 251 500 240 500 c 25
 240 533 240 567 240 600 c 25
 218 600 195 600 173 600 c 25
 173 633 173 667 173 700 c 13
EndSplineSet
EndChar

StartChar: braceleft
Encoding: 123 123 186
Width: 430
Flags: HW
HStem: 0 100<390 490> 300 100<190 290> 600 100<390 490>
VStem: 190 150<300 400> 290 100<100 300 400 600> 340 150<0 100 600 700>
CounterMasks: 1 e0
LayerCount: 2
Back
Fore
SplineSet
340 700 m 13
 340 667 340 633 340 600 c 1
 318 600 295 600 273 600 c 25
 273 533 273 467 273 400 c 25
 262 400 251 400 240 400 c 25
 240 367 240 333 240 300 c 25
 251 300 262 300 273 300 c 25
 273 233 273 167 273 100 c 25
 295 100 318 100 340 100 c 25
 340 67 340 33 340 0 c 25
 307 0 273 0 240 0 c 25
 240 33 240 67 240 100 c 25
 229 100 218 100 207 100 c 25
 207 167 207 233 207 300 c 25
 185 300 162 300 140 300 c 25
 140 333 140 367 140 400 c 25
 162 400 185 400 207 400 c 25
 207 467 207 533 207 600 c 25
 218 600 229 600 240 600 c 25
 240 633 240 667 240 700 c 1
 273 700 307 700 340 700 c 13
EndSplineSet
EndChar

StartChar: bar
Encoding: 124 124 187
Width: 430
Flags: HW
HStem: 0 21G<290 390> 680 20G<290 390>
VStem: 290 100<0 700>
LayerCount: 2
Back
Fore
SplineSet
207 700 m 13
 229 700 251 700 273 700 c 25
 273 467 273 233 273 0 c 25
 251 0 229 0 207 0 c 25
 207 233 207 467 207 700 c 13
EndSplineSet
EndChar

StartChar: braceright
Encoding: 125 125 188
Width: 430
Flags: HW
HStem: 0 100<190 290> 300 100<390 490> 600 100<190 290>
VStem: 190 150<0 100 600 700> 290 100<100 300 400 600> 340 150<300 400>
CounterMasks: 1 e0
LayerCount: 2
Back
Fore
SplineSet
140 700 m 13
 173 700 207 700 240 700 c 25
 240 667 240 633 240 600 c 25
 251 600 262 600 273 600 c 25
 273 533 273 467 273 400 c 25
 295 400 318 400 340 400 c 25
 340 367 340 333 340 300 c 25
 318 300 295 300 273 300 c 25
 273 233 273 167 273 100 c 25
 262 100 251 100 240 100 c 25
 240 67 240 33 240 0 c 25
 207 0 173 0 140 0 c 25
 140 33 140 67 140 100 c 25
 162 100 185 100 207 100 c 25
 207 167 207 233 207 300 c 25
 218 300 229 300 240 300 c 25
 240 333 240 367 240 400 c 25
 229 400 218 400 207 400 c 25
 207 467 207 533 207 600 c 25
 185 600 162 600 140 600 c 25
 140 633 140 667 140 700 c 13
EndSplineSet
EndChar

StartChar: uni0451
Encoding: 1105 1105 189
Width: 430
Flags: HW
HStem: 0 100<190 540> 200 100<190 490> 400 101<190 490> 600 100<190 290 390 490>
VStem: 90 100<100 200 300 400> 190 100<600 700> 390 100<600 700> 490 100<300 400>
LayerCount: 2
Back
Fore
SplineSet
273 700 m 13
 295 700 318 700 340 700 c 25
 340 667 340 633 340 600 c 25
 318 600 295 600 273 600 c 25
 273 633 273 667 273 700 c 13
140 700 m 9
 162 700 185 700 207 700 c 25
 207 667 207 633 207 600 c 25
 185 600 162 600 140 600 c 25
 140 633 140 667 140 700 c 9
140 400 m 9
 140 367 140 333 140 300 c 25
 207 300 273 300 340 300 c 25
 340 333 340 367 340 400 c 25
 273 400 207 400 140 400 c 9
107 400 m 9
 107 434 107 467 107 501 c 25
 196 501 284 500 373 500 c 25
 373 467 373 433 373 400 c 25
 384 400 396 400 407 400 c 25
 407 333 407 267 407 200 c 25
 318 200 229 200 140 200 c 25
 140 167 140 133 140 100 c 25
 218 100 295 100 373 100 c 25
 373 67 373 33 373 0 c 25
 284 0 196 0 107 0 c 25
 107 33 107 67 107 100 c 25
 96 100 84 100 73 100 c 25
 73 200 73 300 73 400 c 25
 84 400 96 400 107 400 c 9
EndSplineSet
EndChar

StartChar: underscore
Encoding: 95 95 190
Width: 430
Flags: HW
HStem: -100 100<90 590>
LayerCount: 2
Back
Fore
SplineSet
73 -100 m 13
 73 -67 73 -33 73 0 c 1
 184 0 296 0 407 0 c 25
 407 -33 407 -67 407 -100 c 1
 296 -100 184 -100 73 -100 c 13
EndSplineSet
EndChar

StartChar: asciicircum
Encoding: 94 94 191
Width: 430
Flags: HW
HStem: 400 100<190 240 490 540> 600 100<340 390>
VStem: 190 100<400 500> 240 100<500 600> 390 100<500 600> 440 100<400 500>
LayerCount: 2
Back
Fore
SplineSet
140 400 m 13
 140 433 140 467 140 500 c 25
 151 500 162 500 173 500 c 25
 173 533 173 567 173 600 c 25
 184 600 196 600 207 600 c 25
 207 633 207 667 207 700 c 25
 240 700 274 700 307 700 c 25
 307 667 307 633 307 600 c 25
 318 600 329 600 340 600 c 25
 340 567 340 533 340 500 c 25
 351 500 362 500 373 500 c 25
 373 467 373 433 373 400 c 25
 351 400 329 400 307 400 c 25
 307 433 307 467 307 500 c 25
 296 500 284 500 273 500 c 25
 273 533 273 567 273 600 c 25
 262 600 251 600 240 600 c 25
 240 567 240 533 240 500 c 25
 229 500 218 500 207 500 c 25
 207 467 207 433 207 400 c 25
 185 400 162 400 140 400 c 13
EndSplineSet
EndChar

StartChar: grave
Encoding: 96 96 192
Width: 430
Flags: HW
HStem: 400 100<340 390> 600 100<190 240>
VStem: 190 100<600 700> 240 100<500 600> 290 100<400 500>
LayerCount: 2
Back
Fore
SplineSet
140 700 m 13
 162 700 185 700 207 700 c 25
 207 667 207 633 207 600 c 25
 218 600 229 600 240 600 c 25
 240 567 240 533 240 500 c 25
 251 500 262 500 273 500 c 25
 273 467 273 433 273 400 c 25
 251 400 229 400 207 400 c 25
 207 433 207 467 207 500 c 25
 196 500 184 500 173 500 c 25
 173 533 173 567 173 600 c 25
 162 600 151 600 140 600 c 25
 140 633 140 667 140 700 c 13
EndSplineSet
EndChar

StartChar: bracketleft
Encoding: 91 91 193
Width: 430
Flags: HW
HStem: 0 100<340 440> 600 100<340 440>
VStem: 240 200<0 100 600 700> 240 100<100 600>
LayerCount: 2
Back
Fore
SplineSet
307 600 m 13
 285 600 262 600 240 600 c 25
 240 433 240 267 240 100 c 25
 262 100 285 100 307 100 c 25
 307 67 307 33 307 0 c 25
 263 0 217 0 173 0 c 25
 173 233 173 467 173 700 c 25
 217 700 263 700 307 700 c 25
 307 667 307 633 307 600 c 13
EndSplineSet
EndChar

StartChar: bracketright
Encoding: 93 93 194
Width: 430
Flags: HW
HStem: 0 100<240 340> 600 100<240 340>
VStem: 240 200<0 100 600 700> 340 100<100 600>
LayerCount: 2
Back
Fore
SplineSet
173 700 m 13
 217 700 262 700 306 700 c 1
 306 467 307 233 307 0 c 25
 263 0 217 0 173 0 c 25
 173 33 173 67 173 100 c 25
 195 100 218 100 240 100 c 25
 240 267 240 433 240 600 c 25
 218 600 195 600 173 600 c 1
 173 633 173 667 173 700 c 13
EndSplineSet
EndChar

StartChar: backslash
Encoding: 92 92 195
Width: 430
Flags: HW
HStem: 0 100<490 540> 600 100<140 190>
VStem: 140 100<600 700> 190 100<500 600> 240 100<400 500> 290 100<300 400> 340 100<200 300> 390 100<100 200> 440 100<0 100>
LayerCount: 2
Back
Fore
SplineSet
107 600 m 13
 107 633 107 667 107 700 c 25
 129 700 151 700 173 700 c 25
 173 667 173 633 173 600 c 25
 184 600 196 600 207 600 c 25
 207 567 207 533 207 500 c 25
 218 500 229 500 240 500 c 25
 240 467 240 433 240 400 c 25
 251 400 262 400 273 400 c 25
 273 367 273 333 273 300 c 25
 284 300 296 300 307 300 c 25
 307 267 307 233 307 200 c 25
 318 200 329 200 340 200 c 25
 340 167 340 133 340 100 c 25
 351 100 362 100 373 100 c 25
 373 67 373 33 373 0 c 25
 351 0 329 0 307 0 c 25
 307 33 307 67 307 100 c 25
 296 100 284 100 273 100 c 25
 273 133 273 167 273 200 c 25
 262 200 251 200 240 200 c 25
 240 233 240 267 240 300 c 25
 229 300 218 300 207 300 c 25
 207 333 207 367 207 400 c 25
 196 400 184 400 173 400 c 25
 173 433 173 467 173 500 c 25
 162 500 151 500 140 500 c 25
 140 533 140 567 140 600 c 25
 129 600 118 600 107 600 c 13
EndSplineSet
EndChar

StartChar: Odieresis
Encoding: 214 214 196
Width: 430
Flags: HW
HStem: 0 100<240 440> 500 100<240 440> 700 100<190 290 390 490>
VStem: 90 100<200 400> 140 100<100 200 400 500> 190 100<700 800> 390 100<700 800> 440 100<100 200 400 500> 490 100<200 400>
LayerCount: 2
Back
Fore
SplineSet
173 500 m 13
 173 467 173 433 173 400 c 25
 162 400 151 400 140 400 c 25
 140 333 140 267 140 200 c 25
 151 200 162 200 173 200 c 25
 173 167 173 133 173 100 c 25
 217 100 263 100 307 100 c 25
 307 133 307 167 307 200 c 25
 318 200 329 200 340 200 c 25
 340 267 340 333 340 400 c 25
 329 400 318 400 307 400 c 25
 307 433 307 467 307 500 c 25
 263 500 217 500 173 500 c 13
140 600 m 9
 207 600 273 600 340 600 c 25
 340 567 340 533 340 500 c 25
 351 500 362 500 373 500 c 25
 373 467 373 433 373 400 c 25
 384 400 396 400 407 400 c 25
 407 333 407 267 407 200 c 25
 396 200 384 200 373 200 c 25
 373 167 373 133 373 100 c 25
 362 100 351 100 340 100 c 25
 340 67 340 33 340 0 c 25
 273 0 207 0 140 0 c 25
 140 33 140 67 140 100 c 25
 129 100 118 100 107 100 c 25
 107 133 107 167 107 200 c 25
 96 200 84 200 73 200 c 25
 73 267 73 333 73 400 c 25
 84 400 96 400 107 400 c 25
 107 433 107 467 107 500 c 25
 118 500 129 500 140 500 c 25
 140 533 140 567 140 600 c 9
273 700 m 9
 273 733 273 767 273 800 c 25
 295 800 318 800 340 800 c 25
 340 767 340 733 340 700 c 25
 318 700 295 700 273 700 c 9
140 700 m 9
 140 733 140 767 140 800 c 25
 162 800 185 800 207 800 c 25
 207 767 207 733 207 700 c 25
 185 700 162 700 140 700 c 9
EndSplineSet
EndChar

StartChar: acute
Encoding: 180 180 197
Width: 430
Flags: HW
HStem: 400 100<190 240> 600 100<340 390>
VStem: 190 100<400 500> 240 100<500 600> 290 100<600 700>
LayerCount: 2
Back
Fore
SplineSet
207 600 m 13
 207 633 207 667 207 700 c 25
 229 700 251 700 273 700 c 25
 273 667 273 633 273 600 c 25
 262 600 251 600 240 600 c 25
 240 567 240 533 240 500 c 25
 229 500 218 500 207 500 c 25
 207 467 207 433 207 400 c 25
 185 400 162 400 140 400 c 25
 140 433 140 467 140 500 c 25
 151 500 162 500 173 500 c 25
 173 533 173 567 173 600 c 25
 184 600 196 600 207 600 c 13
EndSplineSet
EndChar

StartChar: plusminus
Encoding: 177 177 198
Width: 430
Flags: HW
HStem: 100 100<140 540> 451 99<140 290 390 540> 680 20G<290 390>
VStem: 290 100<300 450 550 700>
LayerCount: 2
Back
Fore
SplineSet
107 200 m 13
 196 200 284 200 373 200 c 25
 373 167 373 134 373 101 c 25
 284 101 196 100 107 100 c 25
 107 133 107 167 107 200 c 13
107 550 m 9
 140 550 174 550 207 550 c 25
 207 600 207 650 207 700 c 25
 229 700 251 700 273 700 c 25
 273 650 273 600 273 550 c 25
 306 550 340 551 373 551 c 25
 373 517 373 484 373 450 c 25
 340 450 306 450 273 450 c 25
 273 400 273 350 273 300 c 25
 251 300 229 300 207 300 c 25
 207 350 207 401 207 451 c 25
 174 451 140 451 107 451 c 25
 107 484 107 517 107 550 c 9
EndSplineSet
EndChar

StartChar: uni20BD
Encoding: 8381 8381 199
Width: 430
Flags: HW
HStem: 0 21G<140 240> 150 100<40 140 240 440> 300 100<40 140 240 490> 600 100<240 490>
VStem: 140 100<0 150 250 300 400 600> 490 100<400 600>
LayerCount: 2
Back
Fore
SplineSet
173 400 m 9
 229 400 284 400 340 400 c 25
 340 467 340 533 340 600 c 25
 284 600 229 600 173 600 c 25
 173 533 173 467 173 400 c 9
107 700 m 9
 196 700 284 700 373 700 c 25
 373 683 373 667 373 650 c 25
 384 650 396 650 407 650 c 25
 407 567 407 483 407 400 c 25
 396 400 384 400 373 400 c 25
 373 367 373 333 373 300 c 25
 306 300 240 300 173 300 c 25
 173 283 173 267 173 250 c 1
 217 250 263 250 307 250 c 5
 307 217 307 183 307 150 c 1
 263 150 217 150 173 150 c 1
 173 100 173 50 173 0 c 25
 151 0 129 0 107 0 c 25
 107 50 107 100 107 150 c 25
 85 150 62 150 40 150 c 25
 40 183 40 217 40 250 c 25
 62 250 85 250 107 250 c 25
 107 267 107 283 107 300 c 25
 85 300 62 300 40 300 c 25
 40 333 40 367 40 400 c 25
 62 400 85 400 107 400 c 25
 107 500 107 600 107 700 c 9
EndSplineSet
EndChar

StartChar: Udieresis
Encoding: 220 220 200
Width: 430
Flags: HW
HStem: 0 100<240 490> 700 100<190 290 440 540>
VStem: 140 100<100 600> 190 100<700 800> 440 100<700 800> 490 100<100 600>
LayerCount: 2
Back
Fore
SplineSet
307 800 m 13
 329 800 351 800 373 800 c 25
 373 767 373 733 373 700 c 25
 351 700 329 700 307 700 c 25
 307 733 307 767 307 800 c 13
140 700 m 9
 140 733 140 767 140 800 c 25
 162 800 185 800 207 800 c 25
 207 767 207 733 207 700 c 25
 185 700 162 700 140 700 c 9
107 600 m 1
 129 600 151 600 173 600 c 1
 173 433 173 267 173 100 c 1
 229 100 284 100 340 100 c 1
 340 267 340 433 340 600 c 1
 362 600 385 600 407 600 c 1
 407 433 407 267 407 100 c 1
 396 100 384 100 373 100 c 25
 373 67 373 33 373 0 c 25
 295 0 218 0 140 0 c 25
 140 33 140 67 140 100 c 25
 129 100 118 100 107 100 c 1
 107 267 107 433 107 600 c 1
EndSplineSet
EndChar

StartChar: Adieresis
Encoding: 196 196 201
Width: 430
Flags: HW
HStem: 0 21G<90 190 490 590> 200 100<190 490> 500 100<240 439> 700 100<190 290 390 490>
VStem: 90 100<0 200 300 400> 140 99<400 500> 190 100<700 800> 390 100<700 800> 440 100<400 500> 490 100<0 200 300 400>
LayerCount: 2
Back
Fore
SplineSet
273 700 m 13
 273 733 273 767 273 800 c 29
 295 800 318 800 340 800 c 29
 340 767 340 733 340 700 c 29
 318 700 295 700 273 700 c 13
140 700 m 13
 140 733 140 767 140 800 c 29
 162 800 185 800 207 800 c 29
 207 767 207 733 207 700 c 29
 185 700 162 700 140 700 c 13
140 300 m 9
 207 300 273 300 340 300 c 25
 340 333 340 367 340 400 c 25
 329 400 318 400 307 400 c 25
 307 433 306 467 306 500 c 25
 262 500 217 500 173 500 c 25
 173 467 173 433 173 400 c 25
 162 400 151 400 140 400 c 25
 140 367 140 333 140 300 c 9
73 0 m 9
 73 133 73 267 73 400 c 1
 84 400 96 400 107 400 c 25
 107 433 107 467 107 500 c 25
 118 500 129 500 140 500 c 25
 140 533 140 567 140 600 c 25
 207 600 273 600 340 600 c 25
 340 567 340 533 340 500 c 25
 351 500 362 500 373 500 c 25
 373 467 373 433 373 400 c 25
 384 400 396 400 407 400 c 25
 407 267 407 133 407 0 c 25
 385 0 362 0 340 0 c 25
 340 67 340 133 340 200 c 25
 273 200 207 200 140 200 c 25
 140 133 140 67 140 0 c 1
 118 0 95 0 73 0 c 9
EndSplineSet
EndChar

StartChar: adieresis
Encoding: 228 228 202
Width: 430
Flags: HW
HStem: 0 100<190 440 540 589> 100 100<90 140> 200 100<190 440> 400 100<140 440> 600 100<190 290 390 490>
VStem: 90 100<100 200> 190 100<600 700> 390 100<600 700> 440 100<100 200 300 400>
LayerCount: 2
Back
Fore
SplineSet
273 600 m 13
 273 633 273 667 273 700 c 29
 295 700 318 700 340 700 c 29
 340 667 340 633 340 600 c 29
 318 600 295 600 273 600 c 13
140 600 m 13
 140 633 140 667 140 700 c 29
 162 700 185 700 207 700 c 29
 207 667 207 633 207 600 c 29
 185 600 162 600 140 600 c 13
140 200 m 9
 140 167 140 133 140 100 c 25
 196 100 251 100 307 100 c 25
 307 133 307 167 307 200 c 25
 251 200 196 200 140 200 c 9
107 500 m 9
 185 500 262 500 340 500 c 25
 340 467 340 433 340 400 c 25
 351 400 362 400 373 400 c 25
 373 300 373 200 373 100 c 25
 384 100 395 100 406 100 c 25
 406 67 407 33 407 0 c 25
 307 0 207 0 107 0 c 25
 107 33 107 67 107 100 c 25
 96 100 84 100 73 100 c 25
 73 133 73 167 73 200 c 25
 84 200 96 200 107 200 c 25
 107 233 107 267 107 300 c 25
 174 300 240 300 307 300 c 25
 307 333 307 367 307 400 c 25
 240 400 174 400 107 400 c 25
 107 433 107 467 107 500 c 9
EndSplineSet
EndChar

StartChar: odieresis
Encoding: 246 246 203
Width: 430
Flags: HW
HStem: 0 100<240 490> 400 100<240 490> 600 100<190 290 440 540>
VStem: 140 100<100 400> 190 100<600 700> 440 100<600 700> 490 100<100 400>
LayerCount: 2
Back
Fore
SplineSet
307 600 m 13
 307 633 307 667 307 700 c 29
 329 700 351 700 373 700 c 29
 373 667 373 633 373 600 c 29
 351 600 329 600 307 600 c 13
140 600 m 9
 140 633 140 667 140 700 c 25
 162 700 185 700 207 700 c 25
 207 667 207 633 207 600 c 25
 185 600 162 600 140 600 c 9
173 400 m 9
 173 300 173 200 173 100 c 25
 229 100 284 100 340 100 c 25
 340 200 340 300 340 400 c 25
 284 400 229 400 173 400 c 9
140 500 m 9
 218 500 295 500 373 500 c 25
 373 467 373 433 373 400 c 25
 384 400 396 400 407 400 c 25
 407 300 407 200 407 100 c 25
 396 100 384 100 373 100 c 25
 373 67 373 33 373 0 c 25
 295 0 218 0 140 0 c 25
 140 33 140 67 140 100 c 25
 129 100 118 100 107 100 c 25
 107 200 107 300 107 400 c 25
 118 400 129 400 140 400 c 25
 140 433 140 467 140 500 c 9
EndSplineSet
EndChar

StartChar: germandbls
Encoding: 223 223 204
Width: 430
Flags: HW
HStem: 0 100<290 490> 300 100<340 440> 600 100<290 440>
VStem: 140 100<0 500> 190 100<500 600> 340 150<300 400> 440 100<400 600> 490 100<100 300>
CounterMasks: 1 e0
LayerCount: 2
Back
Fore
SplineSet
173 600 m 9
 173 633 173 667 173 700 c 1
 229 700 284 700 340 700 c 25
 340 667 340 633 340 600 c 25
 351 600 362 600 373 600 c 25
 373 533 373 467 373 400 c 25
 362 400 351 400 340 400 c 25
 340 367 340 333 340 300 c 25
 362 300 385 300 407 300 c 25
 407 233 407 167 407 100 c 25
 396 100 384 100 373 100 c 25
 373 67 373 33 373 0 c 25
 317 0 263 0 207 0 c 25
 207 33 207 67 207 100 c 25
 251 100 296 100 340 100 c 25
 340 167 340 233 340 300 c 25
 307 300 273 300 240 300 c 25
 240 333 240 367 240 400 c 25
 262 400 285 400 307 400 c 25
 307 467 307 533 307 600 c 25
 274 600 240 600 207 600 c 25
 207 567 207 533 207 500 c 25
 196 500 184 500 173 500 c 25
 173 333 173 167 173 0 c 25
 151 0 129 0 107 0 c 25
 107 167 107 333 107 500 c 25
 118 500 129 500 140 500 c 25
 140 533 140 567 140 600 c 1
 151 600 162 600 173 600 c 9
EndSplineSet
EndChar

StartChar: uniFFFD
Encoding: 65533 65533 205
Width: 390
Flags: HW
HStem: -200 21G<200 400> 100 100<250 350> 480 20G<250 350> 600 200<200 400>
VStem: 50 100<400 500> 100 150<0 100> 100 100<500 600> 150 300<-100 0 600 700> 200 200<-200 -100 700 800> 250 100<400 500> 350 150<0 100> 400 100<500 600> 450 150<300 400> 450 100<400 500>
LayerCount: 2
Back
Fore
SplineSet
167 200 m 13
 200 200 234 200 267 200 c 25
 267 233 267 267 267 300 c 25
 278 300 289 300 300 300 c 25
 300 367 300 433 300 500 c 25
 289 500 278 500 267 500 c 25
 267 533 267 567 267 600 c 25
 223 600 177 600 133 600 c 25
 133 567 133 533 133 500 c 25
 122 500 111 500 100 500 c 25
 100 467 100 433 100 400 c 25
 122 400 145 400 167 400 c 25
 167 433 167 467 167 500 c 25
 189 500 211 500 233 500 c 25
 233 433 233 367 233 300 c 25
 211 300 189 300 167 300 c 25
 167 267 167 233 167 200 c 13
167 0 m 9
 189 0 211 0 233 0 c 25
 233 33 233 67 233 100 c 25
 211 100 189 100 167 100 c 25
 167 67 167 33 167 0 c 9
0 200 m 9
 0 267 0 333 0 400 c 25
 11 400 22 400 33 400 c 25
 33 433 33 467 33 500 c 25
 44 500 56 500 67 500 c 25
 67 533 67 567 67 600 c 25
 78 600 89 600 100 600 c 25
 100 633 100 667 100 700 c 25
 111 700 122 700 133 700 c 25
 133 733 133 767 133 800 c 25
 177 800 223 800 267 800 c 25
 267 767 267 733 267 700 c 25
 278 700 289 700 300 700 c 25
 300 667 300 633 300 600 c 25
 311 600 322 600 333 600 c 25
 333 567 333 533 333 500 c 25
 344 500 356 500 367 500 c 25
 367 467 367 433 367 400 c 25
 378 400 389 400 400 400 c 25
 400 333 400 267 400 200 c 25
 389 200 378 200 367 200 c 25
 367 167 367 133 367 100 c 25
 356 100 344 100 333 100 c 25
 333 67 333 33 333 0 c 25
 322 0 311 0 300 0 c 25
 300 -33 300 -67 300 -100 c 25
 289 -100 278 -100 267 -100 c 25
 267 -133 267 -167 267 -200 c 25
 223 -200 177 -200 133 -200 c 25
 133 -167 133 -133 133 -100 c 25
 122 -100 111 -100 100 -100 c 25
 100 -67 100 -33 100 0 c 25
 89 0 78 0 67 0 c 25
 67 33 67 67 67 100 c 25
 56 100 44 100 33 100 c 25
 33 133 33 167 33 200 c 25
 22 200 11 200 0 200 c 9
EndSplineSet
EndChar

StartChar: Oslash
Encoding: 216 216 206
Width: 430
Flags: HW
HStem: 0 100<240 440> 600 100<240 440>
VStem: 90 100<200 500> 140 100<100 200 500 600> 190 300<0 100 600 700> 440 100<100 200 500 600> 490 100<200 500>
LayerCount: 2
Back
Fore
SplineSet
307 100 m 13
 307 133 307 167 307 200 c 25
 318 200 329 200 340 200 c 25
 340 300 340 400 340 500 c 25
 329 500 318 500 307 500 c 25
 307 533 307 567 307 600 c 25
 263 600 217 600 173 600 c 25
 173 567 173 533 173 500 c 25
 162 500 151 500 140 500 c 25
 140 400 140 300 140 200 c 25
 151 200 162 200 173 200 c 25
 173 167 173 133 173 100 c 25
 217 100 263 100 307 100 c 13
340 0 m 9
 273 0 207 0 140 0 c 25
 140 33 140 67 140 100 c 25
 129 100 118 100 107 100 c 25
 107 133 107 167 107 200 c 25
 96 200 84 200 73 200 c 25
 73 300 73 400 73 500 c 25
 84 500 96 500 107 500 c 25
 107 533 107 567 107 600 c 25
 118 600 129 600 140 600 c 25
 140 633 140 667 140 700 c 25
 207 700 273 700 340 700 c 25
 340 667 340 633 340 600 c 25
 351 600 362 600 373 600 c 25
 373 567 373 533 373 500 c 25
 384 500 396 500 407 500 c 25
 407 400 407 300 407 200 c 25
 396 200 384 200 373 200 c 25
 373 167 373 133 373 100 c 25
 362 100 351 100 340 100 c 25
 340 67 340 33 340 0 c 9
EndSplineSet
EndChar

StartChar: multiply
Encoding: 215 215 207
Width: 430
Flags: HW
HStem: 0 100<90 190 490 590> 200 100<290 390> 400 100<90 190 490 590>
VStem: 90 150<0 100 400 500> 190 100<100 200 300 400> 390 100<100 200 300 400> 440 150<0 100 400 500>
LayerCount: 2
Back
Fore
SplineSet
73 500 m 13
 106 500 140 500 173 500 c 25
 173 467 173 433 173 400 c 25
 184 400 196 400 207 400 c 25
 207 367 207 333 207 300 c 25
 229 300 251 300 273 300 c 25
 273 333 273 367 273 400 c 25
 284 400 296 400 307 400 c 25
 307 433 307 467 307 500 c 25
 340 500 374 500 407 500 c 25
 407 467 407 433 407 400 c 25
 385 400 362 400 340 400 c 25
 340 367 340 333 340 300 c 25
 329 300 318 300 307 300 c 25
 307 267 307 233 307 200 c 25
 318 200 329 200 340 200 c 25
 340 167 340 133 340 100 c 25
 362 100 385 100 407 100 c 25
 407 67 407 33 407 0 c 25
 374 0 340 0 307 0 c 25
 307 33 307 67 307 100 c 25
 296 100 284 100 273 100 c 25
 273 133 273 167 273 200 c 25
 251 200 229 200 207 200 c 25
 207 167 207 133 207 100 c 25
 196 100 184 100 173 100 c 25
 173 67 173 33 173 0 c 25
 140 0 106 0 73 0 c 25
 73 33 73 67 73 100 c 25
 95 100 118 100 140 100 c 25
 140 133 140 167 140 200 c 25
 151 200 162 200 173 200 c 25
 173 233 173 267 173 300 c 25
 162 300 151 300 140 300 c 25
 140 333 140 367 140 400 c 25
 118 400 95 400 73 400 c 25
 73 433 73 467 73 500 c 13
EndSplineSet
EndChar

StartChar: divide
Encoding: 247 247 208
Width: 430
Flags: HW
HStem: 0 100<90 190 490 590> 200 100<290 390> 400 100<90 190 490 590>
VStem: 90 150<0 100 400 500> 190 100<100 200 300 400> 390 100<100 200 300 400> 440 150<0 100 400 500>
LayerCount: 2
Back
Fore
SplineSet
73 500 m 13
 106 500 140 500 173 500 c 25
 173 467 173 433 173 400 c 25
 184 400 196 400 207 400 c 25
 207 367 207 333 207 300 c 25
 229 300 251 300 273 300 c 25
 273 333 273 367 273 400 c 25
 284 400 296 400 307 400 c 25
 307 433 307 467 307 500 c 25
 340 500 374 500 407 500 c 25
 407 467 407 433 407 400 c 25
 385 400 362 400 340 400 c 25
 340 367 340 333 340 300 c 25
 329 300 318 300 307 300 c 25
 307 267 307 233 307 200 c 25
 318 200 329 200 340 200 c 25
 340 167 340 133 340 100 c 25
 362 100 385 100 407 100 c 25
 407 67 407 33 407 0 c 25
 374 0 340 0 307 0 c 25
 307 33 307 67 307 100 c 25
 296 100 284 100 273 100 c 25
 273 133 273 167 273 200 c 25
 251 200 229 200 207 200 c 25
 207 167 207 133 207 100 c 25
 196 100 184 100 173 100 c 25
 173 67 173 33 173 0 c 25
 140 0 106 0 73 0 c 25
 73 33 73 67 73 100 c 25
 95 100 118 100 140 100 c 25
 140 133 140 167 140 200 c 25
 151 200 162 200 173 200 c 25
 173 233 173 267 173 300 c 25
 162 300 151 300 140 300 c 25
 140 333 140 367 140 400 c 25
 118 400 95 400 73 400 c 25
 73 433 73 467 73 500 c 13
EndSplineSet
EndChar

StartChar: brokenbar
Encoding: 166 166 209
Width: 430
Flags: HW
HStem: 0 21G<290 390> 680 20G<290 390>
VStem: 290 100<0 700>
LayerCount: 2
Back
Fore
SplineSet
207 700 m 13
 229 700 251 700 273 700 c 25
 273 467 273 233 273 0 c 25
 251 0 229 0 207 0 c 25
 207 233 207 467 207 700 c 13
EndSplineSet
EndChar

StartChar: degree
Encoding: 176 176 210
Width: 430
Flags: HMW
LayerCount: 2
Back
Fore
SplineSet
207 600 m 13
 207 567 207 533 207 500 c 25
 229 500 251 500 273 500 c 25
 273 533 273 567 273 600 c 25
 251 600 229 600 207 600 c 13
173 600 m 9
 173 633 173 667 173 700 c 25
 217 700 263 700 307 700 c 25
 307 667 307 633 307 600 c 25
 318 600 329 600 340 600 c 25
 340 567 340 533 340 500 c 25
 329 500 318 500 307 500 c 25
 307 467 307 433 307 400 c 25
 263 400 217 400 173 400 c 25
 173 433 173 467 173 500 c 25
 162 500 151 500 140 500 c 25
 140 533 140 567 140 600 c 25
 151 600 162 600 173 600 c 9
EndSplineSet
EndChar

StartChar: arrowright
Encoding: 8594 8594 211
Width: 330
Flags: HW
HStem: 100 100<190 240> 300 100<-60 240 390 490> 500 100<190 240>
VStem: 190 100<100 200 500 600> 240 150<200 300 400 500>
CounterMasks: 1 e0
LayerCount: 2
Back
Fore
SplineSet
107 500 m 13
 107 533 107 567 107 600 c 25
 129 600 151 600 173 600 c 25
 173 567 173 533 173 500 c 25
 195 500 218 500 240 500 c 25
 240 467 240 433 240 400 c 25
 262 400 285 400 307 400 c 25
 307 367 307 333 307 300 c 25
 285 300 262 300 240 300 c 25
 240 267 240 233 240 200 c 25
 218 200 195 200 173 200 c 25
 173 167 173 133 173 100 c 25
 151 100 129 100 107 100 c 25
 107 133 107 167 107 200 c 25
 118 200 129 200 140 200 c 25
 140 233 140 267 140 300 c 25
 73 300 7 300 -60 300 c 25
 -60 333 -60 367 -60 400 c 25
 7 400 73 400 140 400 c 25
 140 433 140 467 140 500 c 25
 129 500 118 500 107 500 c 13
EndSplineSet
EndChar

StartChar: arrowleft
Encoding: 8592 8592 212
Width: 330
Flags: HW
HStem: 100 100<290 340> 300 100<40 140 290 540> 500 100<290 340>
VStem: 140 150<200 300 400 500> 240 100<100 200 500 600>
CounterMasks: 1 e0
LayerCount: 2
Back
Fore
SplineSet
140 500 m 13
 140 533 140 567 140 600 c 25
 162 600 185 600 207 600 c 25
 207 567 207 533 207 500 c 25
 196 500 184 500 173 500 c 25
 173 467 173 433 173 400 c 25
 229 400 284 400 340 400 c 25
 340 367 340 333 340 300 c 25
 284 300 229 300 173 300 c 25
 173 267 173 233 173 200 c 25
 184 200 196 200 207 200 c 25
 207 167 207 133 207 100 c 25
 185 100 162 100 140 100 c 25
 140 133 140 167 140 200 c 25
 118 200 95 200 73 200 c 25
 73 233 73 267 73 300 c 25
 51 300 29 300 7 300 c 25
 7 333 7 367 7 400 c 25
 29 400 51 400 73 400 c 25
 73 433 73 467 73 500 c 25
 95 500 118 500 140 500 c 13
EndSplineSet
EndChar

StartChar: arrowup
Encoding: 8593 8593 213
Width: 330
Flags: HW
HStem: 0 21G<190 290> 300 100<40 90 390 440> 680 20G<190 290>
VStem: 40 100<300 400> 190 100<0 400 600 700> 340 100<300 400>
CounterMasks: 1 1c
LayerCount: 2
Back
Fore
SplineSet
73 300 m 13
 51 300 29 300 7 300 c 25
 7 333 7 367 7 400 c 25
 18 400 29 400 40 400 c 25
 40 433 40 467 40 500 c 25
 51 500 62 500 73 500 c 25
 73 533 73 567 73 600 c 25
 84 600 96 600 107 600 c 25
 107 633 107 667 107 700 c 25
 129 700 151 700 173 700 c 25
 173 667 173 633 173 600 c 25
 184 600 196 600 207 600 c 25
 207 567 207 533 207 500 c 25
 218 500 229 500 240 500 c 25
 240 467 240 433 240 400 c 25
 251 400 262 400 273 400 c 25
 273 367 273 333 273 300 c 25
 251 300 229 300 207 300 c 25
 207 333 207 367 207 400 c 25
 196 400 184 400 173 400 c 25
 173 267 173 133 173 0 c 25
 151 0 129 0 107 0 c 25
 107 133 107 267 107 400 c 25
 96 400 84 400 73 400 c 25
 73 367 73 333 73 300 c 13
EndSplineSet
EndChar

StartChar: arrowdown
Encoding: 8595 8595 214
Width: 330
Flags: HW
HStem: 0 21G<190 290> 300 100<40 90 390 440> 680 20G<190 290>
VStem: 40 100<300 400> 190 100<0 100 300 700> 340 100<300 400>
CounterMasks: 1 1c
LayerCount: 2
Back
Fore
SplineSet
107 300 m 13
 107 433 107 567 107 700 c 1
 129 700 151 700 173 700 c 25
 173 567 173 433 173 300 c 25
 184 300 196 300 207 300 c 25
 207 333 207 367 207 400 c 25
 229 400 251 400 273 400 c 25
 273 367 273 333 273 300 c 25
 262 300 251 300 240 300 c 25
 240 267 240 233 240 200 c 25
 229 200 218 200 207 200 c 25
 207 167 207 133 207 100 c 25
 196 100 184 100 173 100 c 25
 173 67 173 33 173 0 c 25
 151 0 129 0 107 0 c 25
 107 33 107 67 107 100 c 25
 96 100 84 100 73 100 c 25
 73 133 73 167 73 200 c 25
 62 200 51 200 40 200 c 25
 40 233 40 267 40 300 c 25
 29 300 18 300 7 300 c 25
 7 333 7 367 7 400 c 25
 29 400 51 400 73 400 c 25
 73 367 73 333 73 300 c 1
 84 300 96 300 107 300 c 13
EndSplineSet
EndChar

StartChar: arrowboth
Encoding: 8596 8596 215
Width: -940
Flags: HW
HStem: 100 100<-480 -380 -180 -80> 200 300<-580 -480 -80 20> 300 100<-680 -580 -480 -80 20 120> 500 100<-480 -380 -180 -80>
VStem: -580 100<200 300 400 500> -480 100<100 200 500 600> -180 100<100 200 500 600> -80 100<200 300 400 500>
LayerCount: 2
Back
Fore
SplineSet
-747 300 m 13
 -747 333 -747 367 -747 400 c 25
 -725 400 -702 400 -680 400 c 25
 -680 433 -680 467 -680 500 c 25
 -658 500 -635 500 -613 500 c 25
 -613 533 -613 567 -613 600 c 25
 -591 600 -569 600 -547 600 c 25
 -547 567 -547 533 -547 500 c 25
 -569 500 -591 500 -613 500 c 25
 -613 467 -613 433 -613 400 c 25
 -524 400 -436 400 -347 400 c 25
 -347 433 -347 467 -347 500 c 25
 -369 500 -391 500 -413 500 c 25
 -413 533 -413 567 -413 600 c 25
 -391 600 -369 600 -347 600 c 25
 -347 567 -347 533 -347 500 c 25
 -325 500 -302 500 -280 500 c 25
 -280 467 -280 433 -280 400 c 25
 -258 400 -235 400 -213 400 c 25
 -213 367 -213 333 -213 300 c 25
 -235 300 -258 300 -280 300 c 25
 -280 267 -280 233 -280 200 c 25
 -302 200 -325 200 -347 200 c 25
 -347 167 -347 133 -347 100 c 25
 -369 100 -391 100 -413 100 c 25
 -413 133 -413 167 -413 200 c 25
 -391 200 -369 200 -347 200 c 25
 -347 233 -347 267 -347 300 c 25
 -436 300 -524 300 -613 300 c 25
 -613 267 -613 233 -613 200 c 25
 -591 200 -569 200 -547 200 c 25
 -547 167 -547 133 -547 100 c 25
 -569 100 -591 100 -613 100 c 25
 -613 133 -613 167 -613 200 c 25
 -635 200 -658 200 -680 200 c 25
 -680 233 -680 267 -680 300 c 25
 -702 300 -725 300 -747 300 c 13
EndSplineSet
EndChar

StartChar: arrowupdn
Encoding: 8597 8597 216
Width: 370
Flags: HW
HStem: 0 21G<180 380> 200 100<80 130 430 480> 400 100<80 130 430 480> 680 20G<180 380>
VStem: 80 100<200 300 400 500> 130 300<100 200 500 600> 180 200<0 100 600 700> 380 100<200 300 400 500>
LayerCount: 2
Back
Fore
SplineSet
47 200 m 13
 47 233 47 267 47 300 c 25
 69 300 91 300 113 300 c 25
 113 267 113 233 113 200 c 25
 124 200 136 200 147 200 c 25
 147 300 147 400 147 500 c 25
 136 500 124 500 113 500 c 25
 113 467 113 433 113 400 c 25
 91 400 69 400 47 400 c 25
 47 433 47 467 47 500 c 25
 58 500 69 500 80 500 c 25
 80 533 80 567 80 600 c 25
 91 600 102 600 113 600 c 25
 113 633 113 667 113 700 c 25
 157 700 203 700 247 700 c 25
 247 667 247 633 247 600 c 25
 258 600 269 600 280 600 c 25
 280 567 280 533 280 500 c 25
 291 500 302 500 313 500 c 25
 313 467 313 433 313 400 c 25
 291 400 269 400 247 400 c 25
 247 433 247 467 247 500 c 25
 236 500 224 500 213 500 c 25
 213 400 213 300 213 200 c 25
 224 200 236 200 247 200 c 25
 247 233 247 267 247 300 c 25
 269 300 291 300 313 300 c 25
 313 267 313 233 313 200 c 25
 302 200 291 200 280 200 c 25
 280 167 280 133 280 100 c 25
 269 100 258 100 247 100 c 25
 247 67 247 33 247 0 c 25
 203 0 157 0 113 0 c 25
 113 33 113 67 113 100 c 25
 102 100 91 100 80 100 c 25
 80 133 80 167 80 200 c 25
 69 200 58 200 47 200 c 13
EndSplineSet
EndChar

StartChar: uni2600
Encoding: 9728 9728 217
Width: -540
Flags: HW
HStem: -100 100<70 170> 0 100<-180 -80 320 420> 200 300<-30 70 170 270> 300 100<-380 -230 -130 -30 270 370 470 620> 600 100<-230 -130 370 470> 700 100<70 170>
VStem: -380 150<300 400> -230 100<600 700> -180 100<0 100> -30 300<200 300 400 500> 70 100<-100 0 100 200 500 600 700 800> 320 100<0 100> 370 100<600 700> 470 150<300 400>
LayerCount: 2
Back
Fore
SplineSet
87 600 m 9
 87 633 87 667 87 700 c 25
 109 700 131 700 153 700 c 25
 153 667 153 633 153 600 c 25
 131 600 109 600 87 600 c 9
-113 700 m 9
 -113 733 -113 767 -113 800 c 25
 -91 800 -69 800 -47 800 c 25
 -47 767 -47 733 -47 700 c 25
 -69 700 -91 700 -113 700 c 9
-313 600 m 9
 -313 633 -313 667 -313 700 c 25
 -291 700 -269 700 -247 700 c 25
 -247 667 -247 633 -247 600 c 25
 -269 600 -291 600 -313 600 c 9
153 300 m 1
 153 333 153 367 153 400 c 25
 186 400 220 400 253 400 c 1
 253 367 253 333 253 300 c 25
 220 300 186 300 153 300 c 1
-413 300 m 1
 -413 333 -413 367 -413 400 c 25
 -380 400 -346 400 -313 400 c 1
 -313 367 -313 333 -313 300 c 25
 -346 300 -380 300 -413 300 c 1
53 0 m 9
 53 33 53 67 53 100 c 25
 75 100 98 100 120 100 c 25
 120 67 120 33 120 0 c 25
 98 0 75 0 53 0 c 9
-113 -100 m 9
 -113 -67 -113 -33 -113 0 c 25
 -91 0 -69 0 -47 0 c 25
 -47 -33 -47 -67 -47 -100 c 25
 -69 -100 -91 -100 -113 -100 c 9
-280 0 m 9
 -280 33 -280 67 -280 100 c 25
 -258 100 -235 100 -213 100 c 25
 -213 67 -213 33 -213 0 c 25
 -235 0 -258 0 -280 0 c 9
-247 300 m 9
 -247 333 -247 367 -247 400 c 1
 -225 400 -202 400 -180 400 c 25
 -180 433 -180 467 -180 500 c 1
 -158 500 -135 500 -113 500 c 1
 -113 533 -113 567 -113 600 c 1
 -91 600 -69 600 -47 600 c 1
 -47 567 -47 533 -47 500 c 25
 -25 500 -2 500 20 500 c 25
 20 467 20 433 20 400 c 25
 42 400 65 400 87 400 c 25
 87 367 87 333 87 300 c 25
 65 300 42 300 20 300 c 25
 20 267 20 233 20 200 c 25
 -2 200 -25 200 -47 200 c 25
 -47 167 -47 133 -47 100 c 25
 -69 100 -91 100 -113 100 c 25
 -113 133 -113 167 -113 200 c 25
 -135 200 -158 200 -180 200 c 25
 -180 233 -180 267 -180 300 c 1
 -202 300 -225 300 -247 300 c 9
EndSplineSet
EndChar

StartChar: uni2601
Encoding: 9729 9729 218
Width: -90
Flags: HW
HStem: 100 300<-380 -280 -130 20> 200 100<-480 -380 70 120> 480 20G<-280 -130>
VStem: -280 150<400 500>
LayerCount: 2
Back
Fore
SplineSet
-480 200 m 13
 -480 233 -480 267 -480 300 c 25
 -458 300 -435 300 -413 300 c 25
 -413 333 -413 367 -413 400 c 25
 -391 400 -369 400 -347 400 c 25
 -347 433 -347 467 -347 500 c 25
 -314 500 -280 500 -247 500 c 25
 -247 467 -247 433 -247 400 c 25
 -214 400 -180 400 -147 400 c 25
 -147 367 -147 333 -147 300 c 25
 -125 300 -102 300 -80 300 c 25
 -80 267 -80 233 -80 200 c 25
 -91 200 -102 200 -113 200 c 25
 -113 167 -113 133 -113 100 c 25
 -213 100 -313 100 -413 100 c 25
 -413 133 -413 167 -413 200 c 25
 -435 200 -458 200 -480 200 c 13
EndSplineSet
EndChar

StartChar: uni2602
Encoding: 9730 9730 219
Width: 390
Flags: HW
HStem: -100 100<150 250> 400 200<100 200 400 500> 400 100<0 100 500 600> 680 20G<200 400>
VStem: 150 150<-100 0> 250 100<0 400>
LayerCount: 2
Back
Fore
SplineSet
0 400 m 13
 0 433 0 467 0 500 c 25
 22 500 45 500 67 500 c 25
 67 533 67 567 67 600 c 25
 89 600 111 600 133 600 c 25
 133 633 133 667 133 700 c 25
 177 700 223 700 267 700 c 25
 267 667 267 633 267 600 c 25
 289 600 311 600 333 600 c 25
 333 567 333 533 333 500 c 25
 355 500 378 500 400 500 c 25
 400 467 400 433 400 400 c 25
 344 400 289 400 233 400 c 25
 233 267 233 133 233 0 c 25
 222 0 211 0 200 0 c 25
 200 -33 200 -67 200 -100 c 25
 167 -100 133 -100 100 -100 c 25
 100 -67 100 -33 100 0 c 25
 122 0 145 0 167 0 c 25
 167 133 167 267 167 400 c 25
 111 400 56 400 0 400 c 13
EndSplineSet
EndChar

StartChar: uni2603
Encoding: 9731 9731 220
Width: 390
Flags: HW
HStem: -100 100<50 150 500 600> -100 50<250 300 350 400> 0 100<200 450> 50 50<0 50 550 600> 100 100<100 150 500 550> 150 50<0 50> 200 100<250 300 350 400> 250 50<50 100 550 600> 350 50<0 50 550 600> 400 100<100 150 250 300 350 400 500 550> 500 100<50 100 150 200 450 500 550 600> 600 200<250 400> 650 50<50 100 500 550> 750 50<0 50 150 200 450 500 550 600>
VStem: 0 50<50 100 150 200 350 400 750 800> 50 50<250 300 500 600 650 700> 100 50<400 500> 150 100<300 400 500 600> 150 50<750 800> 200 100<400 500> 250 50<-100 -50> 350 100<400 500> 350 50<-100 -50> 400 100<300 400 500 600> 450 50<750 800> 500 50<400 500 650 700> 550 50<50 100 250 300 350 400 500 600 750 800>
LayerCount: 2
Back
Fore
SplineSet
167 500 m 13
 178 500 189 500 200 500 c 29
 200 467 200 433 200 400 c 29
 189 400 178 400 167 400 c 29
 167 367 167 333 167 300 c 29
 178 300 189 300 200 300 c 29
 200 267 200 233 200 200 c 29
 178 200 155 200 133 200 c 29
 133 167 133 133 133 100 c 29
 189 100 244 100 300 100 c 29
 300 133 300 167 300 200 c 29
 278 200 255 200 233 200 c 29
 233 233 233 267 233 300 c 29
 244 300 256 300 267 300 c 29
 267 333 267 367 267 400 c 29
 256 400 244 400 233 400 c 29
 233 433 233 467 233 500 c 29
 244 500 256 500 267 500 c 29
 267 533 267 567 267 600 c 29
 234 600 200 600 167 600 c 29
 167 567 167 533 167 500 c 13
33 -100 m 13
 33 -67 33 -33 33 0 c 29
 55 0 78 0 100 0 c 29
 100 33 100 67 100 100 c 29
 89 100 78 100 67 100 c 29
 67 133 67 167 67 200 c 29
 78 200 89 200 100 200 c 29
 100 267 100 333 100 400 c 29
 111 400 122 400 133 400 c 29
 133 433 133 467 133 500 c 29
 122 500 111 500 100 500 c 29
 100 533 100 567 100 600 c 29
 111 600 122 600 133 600 c 29
 133 633 133 667 133 700 c 29
 144 700 156 700 167 700 c 29
 167 733 167 767 167 800 c 29
 200 800 234 800 267 800 c 29
 267 767 267 733 267 700 c 29
 278 700 289 700 300 700 c 29
 300 667 300 633 300 600 c 29
 311 600 322 600 333 600 c 29
 333 567 333 533 333 500 c 29
 322 500 311 500 300 500 c 29
 300 467 300 433 300 400 c 29
 311 400 322 400 333 400 c 29
 333 333 333 267 333 200 c 29
 344 200 356 200 367 200 c 29
 367 167 367 133 367 100 c 29
 356 100 344 100 333 100 c 29
 333 67 333 33 333 0 c 29
 355 0 378 0 400 0 c 29
 400 -33 400 -67 400 -100 c 29
 367 -100 333 -100 300 -100 c 29
 300 -67 300 -33 300 0 c 29
 244 0 189 0 133 0 c 29
 133 -33 133 -67 133 -100 c 29
 100 -100 66 -100 33 -100 c 13
67 500 m 13
 78 500 89 500 100 500 c 29
 100 467 100 433 100 400 c 29
 89 400 78 400 67 400 c 29
 67 433 67 467 67 500 c 13
33 600 m 13
 44 600 56 600 67 600 c 29
 67 567 67 533 67 500 c 29
 56 500 44 500 33 500 c 29
 33 533 33 567 33 600 c 13
0 50 m 13
 0 67 0 83 0 100 c 5
 11 100 22 100 33 100 c 29
 33 83 33 67 33 50 c 5
 22 50 11 50 0 50 c 13
0 150 m 13
 0 167 0 183 0 200 c 5
 11 200 22 200 33 200 c 29
 33 183 33 167 33 150 c 5
 22 150 11 150 0 150 c 13
33 250 m 13
 33 267 33 283 33 300 c 5
 44 300 56 300 67 300 c 29
 67 283 67 267 67 250 c 5
 56 250 44 250 33 250 c 13
0 350 m 13
 0 367 0 383 0 400 c 5
 11 400 22 400 33 400 c 29
 33 383 33 367 33 350 c 5
 22 350 11 350 0 350 c 13
167 -100 m 13
 167 -83 167 -67 167 -50 c 29
 178 -50 189 -50 200 -50 c 29
 200 -67 200 -83 200 -100 c 29
 189 -100 178 -100 167 -100 c 13
233 -100 m 13
 233 -83 233 -67 233 -50 c 29
 244 -50 256 -50 267 -50 c 29
 267 -67 267 -83 267 -100 c 29
 256 -100 244 -100 233 -100 c 13
367 50 m 13
 367 67 367 83 367 100 c 29
 378 100 389 100 400 100 c 29
 400 83 400 67 400 50 c 29
 389 50 378 50 367 50 c 13
367 250 m 13
 367 267 367 283 367 300 c 29
 378 300 389 300 400 300 c 29
 400 283 400 267 400 250 c 29
 389 250 378 250 367 250 c 13
367 350 m 13
 367 367 367 383 367 400 c 29
 378 400 389 400 400 400 c 29
 400 383 400 367 400 350 c 29
 389 350 378 350 367 350 c 13
333 400 m 13
 333 433 333 467 333 500 c 29
 344 500 356 500 367 500 c 29
 367 467 367 433 367 400 c 29
 356 400 344 400 333 400 c 13
367 500 m 13
 367 533 367 567 367 600 c 29
 378 600 389 600 400 600 c 29
 400 567 400 533 400 500 c 29
 389 500 378 500 367 500 c 13
333 650 m 13
 333 667 333 683 333 700 c 29
 344 700 356 700 367 700 c 29
 367 683 367 667 367 650 c 29
 356 650 344 650 333 650 c 13
367 750 m 13
 367 767 367 783 367 800 c 29
 378 800 389 800 400 800 c 29
 400 783 400 767 400 750 c 29
 389 750 378 750 367 750 c 13
300 750 m 13
 300 767 300 783 300 800 c 29
 311 800 322 800 333 800 c 29
 333 783 333 767 333 750 c 29
 322 750 311 750 300 750 c 13
100 750 m 13
 100 767 100 783 100 800 c 5
 111 800 122 800 133 800 c 29
 133 783 133 767 133 750 c 5
 122 750 111 750 100 750 c 13
0 750 m 13
 0 767 0 783 0 800 c 5
 11 800 22 800 33 800 c 29
 33 783 33 767 33 750 c 5
 22 750 11 750 0 750 c 13
33 650 m 13
 33 667 33 683 33 700 c 5
 44 700 56 700 67 700 c 29
 67 683 67 667 67 650 c 5
 56 650 44 650 33 650 c 13
EndSplineSet
EndChar

StartChar: uni26C4
Encoding: 9924 9924 221
Width: 390
Flags: HW
HStem: -100 100<50 150 500 600> 100 100<100 150 500 550> 200 100<250 300 350 400> 400 100<100 150 250 300 350 400 500 550> 500 100<50 100 150 200 450 500 550 600> 600 200<250 400>
VStem: 50 50<500 600> 100 100<100 200> 100 50<400 500> 150 100<300 400 500 600> 200 100<400 500> 250 150<700 800> 350 100<400 500> 400 100<300 400 500 600> 450 100<100 200> 500 50<400 500> 550 50<500 600>
LayerCount: 2
Back
Fore
SplineSet
167 500 m 13
 178 500 189 500 200 500 c 29
 200 467 200 433 200 400 c 29
 189 400 178 400 167 400 c 29
 167 367 167 333 167 300 c 29
 178 300 189 300 200 300 c 29
 200 267 200 233 200 200 c 29
 178 200 155 200 133 200 c 29
 133 167 133 133 133 100 c 29
 189 100 244 100 300 100 c 29
 300 133 300 167 300 200 c 29
 278 200 255 200 233 200 c 29
 233 233 233 267 233 300 c 29
 244 300 256 300 267 300 c 29
 267 333 267 367 267 400 c 29
 256 400 244 400 233 400 c 29
 233 433 233 467 233 500 c 29
 244 500 256 500 267 500 c 29
 267 533 267 567 267 600 c 29
 234 600 200 600 167 600 c 29
 167 567 167 533 167 500 c 13
33 -100 m 13
 33 -67 33 -33 33 0 c 29
 55 0 78 0 100 0 c 29
 100 33 100 67 100 100 c 29
 89 100 78 100 67 100 c 29
 67 133 67 167 67 200 c 29
 78 200 89 200 100 200 c 29
 100 267 100 333 100 400 c 29
 111 400 122 400 133 400 c 29
 133 433 133 467 133 500 c 29
 122 500 111 500 100 500 c 29
 100 533 100 567 100 600 c 29
 111 600 122 600 133 600 c 29
 133 633 133 667 133 700 c 29
 144 700 156 700 167 700 c 29
 167 733 167 767 167 800 c 29
 200 800 234 800 267 800 c 29
 267 767 267 733 267 700 c 29
 278 700 289 700 300 700 c 29
 300 667 300 633 300 600 c 29
 311 600 322 600 333 600 c 29
 333 567 333 533 333 500 c 29
 322 500 311 500 300 500 c 29
 300 467 300 433 300 400 c 29
 311 400 322 400 333 400 c 29
 333 333 333 267 333 200 c 29
 344 200 356 200 367 200 c 5
 367 167 367 133 367 100 c 29
 356 100 344 100 333 100 c 5
 333 67 333 33 333 0 c 29
 355 0 378 0 400 0 c 29
 400 -33 400 -67 400 -100 c 29
 367 -100 333 -100 300 -100 c 29
 300 -67 300 -33 300 0 c 29
 244 0 189 0 133 0 c 29
 133 -33 133 -67 133 -100 c 29
 100 -100 66 -100 33 -100 c 13
67 500 m 13
 78 500 89 500 100 500 c 29
 100 467 100 433 100 400 c 29
 89 400 78 400 67 400 c 29
 67 433 67 467 67 500 c 13
33 600 m 13
 44 600 56 600 67 600 c 29
 67 567 67 533 67 500 c 29
 56 500 44 500 33 500 c 29
 33 533 33 567 33 600 c 13
333 400 m 13
 333 433 333 467 333 500 c 29
 344 500 356 500 367 500 c 29
 367 467 367 433 367 400 c 29
 356 400 344 400 333 400 c 13
367 500 m 13
 367 533 367 567 367 600 c 29
 378 600 389 600 400 600 c 29
 400 567 400 533 400 500 c 29
 389 500 378 500 367 500 c 13
EndSplineSet
EndChar

StartChar: uni2614
Encoding: 9748 9748 222
Width: 390
Flags: HW
HStem: -100 100<150 250> 0 100<50 100 500 550> 150 100<0 50 550 600> 250 100<100 150 450 500> 400 200<100 200 400 500> 400 100<0 100 500 600> 600 100<0 50 550 600> 700 100<100 150 450 500>
VStem: 0 50<150 250 600 700> 50 50<0 100> 100 50<250 350 700 800> 150 150<-100 0> 250 100<0 400> 450 50<250 350 700 800> 500 50<0 100> 550 50<150 250 600 700>
LayerCount: 2
Back
Fore
SplineSet
100 -100 m 13
 100 -67 100 -33 100 0 c 25
 122 0 145 0 167 0 c 25
 167 133 167 267 167 400 c 25
 111 400 56 400 0 400 c 25
 0 433 0 467 0 500 c 25
 22 500 45 500 67 500 c 25
 67 533 67 567 67 600 c 25
 89 600 111 600 133 600 c 25
 133 633 133 667 133 700 c 25
 177 700 223 700 267 700 c 25
 267 667 267 633 267 600 c 25
 289 600 311 600 333 600 c 25
 333 567 333 533 333 500 c 25
 355 500 378 500 400 500 c 25
 400 467 400 433 400 400 c 25
 344 400 289 400 233 400 c 25
 233 267 233 133 233 0 c 25
 222 0 211 0 200 0 c 25
 200 -33 200 -67 200 -100 c 25
 167 -100 133 -100 100 -100 c 13
33 0 m 1
 33 33 33 67 33 100 c 1
 44 100 56 100 67 100 c 1
 67 67 67 33 67 0 c 1
 56 0 44 0 33 0 c 1
333 0 m 1
 333 33 333 67 333 100 c 1
 344 100 356 100 367 100 c 1
 367 67 367 33 367 0 c 1
 356 0 344 0 333 0 c 1
0 150 m 1
 0 183 0 217 0 250 c 1
 11 250 22 250 33 250 c 1
 33 217 33 183 33 150 c 1
 22 150 11 150 0 150 c 1
67 250 m 1
 67 283 67 317 67 350 c 1
 78 350 89 350 100 350 c 1
 100 317 100 283 100 250 c 1
 89 250 78 250 67 250 c 1
367 150 m 1
 367 183 367 217 367 250 c 1
 378 250 389 250 400 250 c 1
 400 217 400 183 400 150 c 1
 389 150 378 150 367 150 c 1
300 250 m 1
 300 283 300 317 300 350 c 1
 311 350 322 350 333 350 c 1
 333 317 333 283 333 250 c 1
 322 250 311 250 300 250 c 1
367 600 m 1
 367 633 367 667 367 700 c 1
 378 700 389 700 400 700 c 1
 400 667 400 633 400 600 c 1
 389 600 378 600 367 600 c 1
0 600 m 1
 0 633 0 667 0 700 c 1
 11 700 22 700 33 700 c 1
 33 667 33 633 33 600 c 1
 22 600 11 600 0 600 c 1
300 700 m 1
 300 733 300 767 300 800 c 1
 311 800 322 800 333 800 c 1
 333 767 333 733 333 700 c 1
 322 700 311 700 300 700 c 1
67 700 m 1
 67 733 67 767 67 800 c 1
 78 800 89 800 100 800 c 1
 100 767 100 733 100 700 c 1
 89 700 78 700 67 700 c 1
EndSplineSet
EndChar

StartChar: uni2669
Encoding: 9833 9833 223
Width: 390
Flags: HW
HStem: 0 300<150 350> 100 100<100 150>
VStem: 350 100<300 800>
LayerCount: 2
Back
Fore
SplineSet
100 100 m 13
 89 100 78 100 67 100 c 25
 67 133 67 167 67 200 c 25
 78 200 89 200 100 200 c 25
 100 233 100 267 100 300 c 25
 144 300 189 300 233 300 c 25
 233 467 233 633 233 800 c 25
 255 800 278 800 300 800 c 25
 300 567 300 333 300 100 c 25
 289 100 278 100 267 100 c 25
 267 67 267 33 267 0 c 25
 211 0 156 0 100 0 c 25
 100 33 100 67 100 100 c 13
EndSplineSet
EndChar

StartChar: uni2757
Encoding: 10071 10071 225
Width: 390
Flags: HW
HStem: 0 100<250 350> 680 20G<250 350>
VStem: 250 100<0 100 200 700>
LayerCount: 2
Back
Fore
SplineSet
167 700 m 13
 189 700 211 700 233 700 c 25
 233 533 233 367 233 200 c 25
 211 200 189 200 167 200 c 25
 167 367 167 533 167 700 c 13
233 0 m 9
 211 0 189 0 167 0 c 1
 167 33 167 67 167 100 c 25
 189 100 211 100 233 100 c 1
 233 67 233 33 233 0 c 9
EndSplineSet
EndChar

StartChar: uni2753
Encoding: 10067 10067 226
Width: 390
Flags: HW
HStem: 0 100<300 400> 200 100<300 400> 300 100<400 450> 600 100<200 450>
VStem: 100 100<400 600> 300 100<0 100 200 300> 400 100<300 400> 450 100<400 600>
LayerCount: 2
Back
Fore
SplineSet
200 300 m 1
 222 300 245 300 267 300 c 1
 267 267 267 233 267 200 c 1
 245 200 222 200 200 200 c 1
 200 233 200 267 200 300 c 1
267 0 m 9
 245 0 222 0 200 0 c 1
 200 33 200 67 200 100 c 25
 222 100 245 100 267 100 c 1
 267 67 267 33 267 0 c 9
67 600 m 9
 78 600 89 600 100 600 c 25
 100 633 100 667 100 700 c 25
 178 700 255 700 333 700 c 25
 333 667 333 633 333 600 c 25
 344 600 356 600 367 600 c 25
 367 533 367 467 367 400 c 25
 356 400 344 400 333 400 c 25
 333 367 333 333 333 300 c 25
 311 300 289 300 267 300 c 25
 267 333 267 367 267 400 c 25
 278 400 289 400 300 400 c 25
 300 467 300 533 300 600 c 25
 244 600 189 600 133 600 c 25
 133 533 133 467 133 400 c 25
 111 400 89 400 67 400 c 25
 67 467 67 533 67 600 c 9
EndSplineSet
EndChar

StartChar: uni2795
Encoding: 10133 10133 227
Width: 390
Flags: HW
HStem: 250 100<100 250 350 500>
VStem: 250 100<50 250 350 550>
LayerCount: 2
Back
Fore
SplineSet
167 550 m 13
 189 550 211 550 233 550 c 25
 233 483 233 417 233 350 c 25
 266 350 300 350 333 350 c 25
 333 317 333 283 333 250 c 25
 300 250 266 250 233 250 c 25
 233 183 233 117 233 50 c 25
 211 50 189 50 167 50 c 25
 167 117 167 183 167 250 c 25
 134 250 100 250 67 250 c 25
 67 283 67 317 67 350 c 25
 100 350 134 350 167 350 c 25
 167 417 167 483 167 550 c 13
EndSplineSet
EndChar

StartChar: uni2796
Encoding: 10134 10134 228
Width: 390
Flags: HW
HStem: 250 100<100 500>
LayerCount: 2
Back
Fore
SplineSet
67 250 m 13
 67 283 67 317 67 350 c 25
 156 350 244 350 333 350 c 25
 333 317 333 283 333 250 c 25
 244 250 156 250 67 250 c 13
EndSplineSet
EndChar

StartChar: uni231A
Encoding: 8986 8986 229
Width: -940
Flags: HW
HStem: -100 200<-430 -130> 0 100<-480 -430 -130 -80> 300 100<-230 -130> 480 20G<-330 -230> 600 200<-430 -130> 600 100<-480 -430 -130 -80>
VStem: -630 100<200 500> -580 100<100 200 500 600> -430 300<-100 0 700 800> -330 100<400 500> -80 100<100 200 500 600> -30 100<200 500>
LayerCount: 2
Back
Fore
SplineSet
-513 500 m 13
 -491 500 -469 500 -447 500 c 25
 -447 467 -447 433 -447 400 c 25
 -425 400 -402 400 -380 400 c 25
 -380 367 -380 333 -380 300 c 25
 -424 300 -469 300 -513 300 c 25
 -513 367 -513 433 -513 500 c 13
-613 600 m 9
 -613 567 -613 533 -613 500 c 25
 -624 500 -636 500 -647 500 c 25
 -647 400 -647 300 -647 200 c 25
 -636 200 -624 200 -613 200 c 25
 -613 167 -613 133 -613 100 c 25
 -524 100 -436 100 -347 100 c 25
 -347 133 -347 167 -347 200 c 25
 -336 200 -324 200 -313 200 c 25
 -313 300 -313 400 -313 500 c 25
 -324 500 -336 500 -347 500 c 25
 -347 533 -347 567 -347 600 c 25
 -436 600 -524 600 -613 600 c 9
-580 700 m 9
 -580 733 -580 767 -580 800 c 25
 -513 800 -447 800 -380 800 c 25
 -380 767 -380 733 -380 700 c 25
 -358 700 -335 700 -313 700 c 25
 -313 667 -313 633 -313 600 c 25
 -302 600 -291 600 -280 600 c 25
 -280 567 -280 533 -280 500 c 25
 -269 500 -258 500 -247 500 c 25
 -247 400 -247 300 -247 200 c 25
 -258 200 -269 200 -280 200 c 25
 -280 167 -280 133 -280 100 c 25
 -291 100 -302 100 -313 100 c 25
 -313 67 -313 33 -313 0 c 25
 -335 0 -358 0 -380 0 c 25
 -380 -33 -380 -67 -380 -100 c 25
 -447 -100 -513 -100 -580 -100 c 25
 -580 -67 -580 -33 -580 0 c 25
 -602 0 -625 0 -647 0 c 25
 -647 33 -647 67 -647 100 c 25
 -658 100 -669 100 -680 100 c 25
 -680 133 -680 167 -680 200 c 25
 -691 200 -702 200 -713 200 c 25
 -713 300 -713 400 -713 500 c 25
 -702 500 -691 500 -680 500 c 25
 -680 533 -680 567 -680 600 c 25
 -669 600 -658 600 -647 600 c 25
 -647 633 -647 667 -647 700 c 25
 -625 700 -602 700 -580 700 c 9
EndSplineSet
EndChar

StartChar: uni2797
Encoding: 10135 10135 230
Width: 390
Flags: HW
HStem: 0 100<50 150 450 550> 200 100<250 350> 400 100<50 150 450 550>
VStem: 50 150<0 100 400 500> 150 100<100 200 300 400> 350 100<100 200 300 400> 400 150<0 100 400 500>
LayerCount: 2
Back
Fore
SplineSet
33 500 m 13
 66 500 100 500 133 500 c 25
 133 467 133 433 133 400 c 25
 144 400 156 400 167 400 c 25
 167 367 167 333 167 300 c 25
 189 300 211 300 233 300 c 25
 233 333 233 367 233 400 c 25
 244 400 256 400 267 400 c 25
 267 433 267 467 267 500 c 25
 300 500 334 500 367 500 c 25
 367 467 367 433 367 400 c 25
 345 400 322 400 300 400 c 25
 300 367 300 333 300 300 c 25
 289 300 278 300 267 300 c 25
 267 267 267 233 267 200 c 25
 278 200 289 200 300 200 c 25
 300 167 300 133 300 100 c 25
 322 100 345 100 367 100 c 25
 367 67 367 33 367 0 c 25
 334 0 300 0 267 0 c 25
 267 33 267 67 267 100 c 25
 256 100 244 100 233 100 c 25
 233 133 233 167 233 200 c 25
 211 200 189 200 167 200 c 25
 167 167 167 133 167 100 c 25
 156 100 144 100 133 100 c 25
 133 67 133 33 133 0 c 25
 100 0 66 0 33 0 c 25
 33 33 33 67 33 100 c 25
 55 100 78 100 100 100 c 25
 100 133 100 167 100 200 c 25
 111 200 122 200 133 200 c 25
 133 233 133 267 133 300 c 25
 122 300 111 300 100 300 c 25
 100 333 100 367 100 400 c 25
 78 400 55 400 33 400 c 25
 33 433 33 467 33 500 c 13
EndSplineSet
EndChar

StartChar: uni25B6
Encoding: 9654 9654 231
Width: 390
Flags: HMW
LayerCount: 2
Back
Fore
SplineSet
67 0 m 13
 67 233 67 467 67 700 c 25
 100 700 134 700 167 700 c 25
 167 667 167 633 167 600 c 25
 189 600 211 600 233 600 c 25
 233 567 233 533 233 500 c 25
 255 500 278 500 300 500 c 25
 300 467 300 433 300 400 c 25
 322 400 345 400 367 400 c 25
 367 367 367 333 367 300 c 25
 345 300 322 300 300 300 c 25
 300 267 300 233 300 200 c 25
 278 200 255 200 233 200 c 25
 233 167 233 133 233 100 c 25
 211 100 189 100 167 100 c 25
 167 67 167 33 167 0 c 25
 134 0 100 0 67 0 c 13
EndSplineSet
EndChar

StartChar: uni25C0
Encoding: 9664 9664 232
Width: 390
Flags: HMW
LayerCount: 2
Back
Fore
SplineSet
267 0 m 13
 267 33 267 67 267 100 c 25
 245 100 222 100 200 100 c 25
 200 133 200 167 200 200 c 25
 178 200 155 200 133 200 c 25
 133 233 133 267 133 300 c 25
 111 300 89 300 67 300 c 25
 67 333 67 367 67 400 c 25
 89 400 111 400 133 400 c 25
 133 433 133 467 133 500 c 25
 155 500 178 500 200 500 c 25
 200 533 200 567 200 600 c 25
 222 600 245 600 267 600 c 25
 267 633 267 667 267 700 c 25
 300 700 334 700 367 700 c 25
 367 467 367 233 367 0 c 25
 334 0 300 0 267 0 c 13
EndSplineSet
EndChar

StartChar: H18543
Encoding: 9642 9642 233
Width: 390
Flags: HMW
LayerCount: 2
Back
Fore
SplineSet
100 100 m 13
 100 200 100 300 100 400 c 25
 156 400 211 400 267 400 c 25
 267 300 267 200 267 100 c 25
 211 100 156 100 100 100 c 13
EndSplineSet
EndChar

StartChar: triagup
Encoding: 9650 9650 234
Width: 390
Flags: HMW
LayerCount: 2
Back
Fore
SplineSet
33 100 m 13
 33 133 33 167 33 200 c 29
 44 200 56 200 67 200 c 29
 67 233 67 267 67 300 c 29
 78 300 89 300 100 300 c 29
 100 333 100 367 100 400 c 29
 111 400 122 400 133 400 c 29
 133 433 133 467 133 500 c 29
 144 500 156 500 167 500 c 29
 167 533 167 567 167 600 c 29
 189 600 211 600 233 600 c 29
 233 567 233 533 233 500 c 29
 244 500 256 500 267 500 c 29
 267 467 267 433 267 400 c 29
 278 400 289 400 300 400 c 29
 300 367 300 333 300 300 c 29
 311 300 322 300 333 300 c 29
 333 267 333 233 333 200 c 29
 344 200 356 200 367 200 c 29
 367 167 367 133 367 100 c 29
 256 100 144 100 33 100 c 13
EndSplineSet
EndChar

StartChar: triagdn
Encoding: 9660 9660 235
Width: 390
Flags: HMW
LayerCount: 2
Back
Fore
SplineSet
33 500 m 13
 33 533 33 567 33 600 c 25
 144 600 256 600 367 600 c 25
 367 567 367 533 367 500 c 25
 356 500 344 500 333 500 c 25
 333 467 333 433 333 400 c 25
 322 400 311 400 300 400 c 25
 300 367 300 333 300 300 c 25
 289 300 278 300 267 300 c 25
 267 267 267 233 267 200 c 25
 256 200 244 200 233 200 c 25
 233 167 233 133 233 100 c 25
 211 100 189 100 167 100 c 25
 167 133 167 167 167 200 c 25
 156 200 144 200 133 200 c 25
 133 233 133 267 133 300 c 25
 122 300 111 300 100 300 c 25
 100 333 100 367 100 400 c 25
 89 400 78 400 67 400 c 25
 67 433 67 467 67 500 c 25
 56 500 44 500 33 500 c 13
EndSplineSet
EndChar

StartChar: H18551
Encoding: 9643 9643 236
Width: 390
Flags: HW
HStem: 100 100<200 350> 300 100<200 350>
VStem: 150 50<200 300> 350 50<200 300>
LayerCount: 2
Back
Fore
SplineSet
133 200 m 13
 166 200 200 200 233 200 c 25
 233 233 233 267 233 300 c 25
 200 300 166 300 133 300 c 25
 133 267 133 233 133 200 c 13
100 100 m 9
 100 200 100 300 100 400 c 25
 156 400 211 400 267 400 c 25
 267 300 267 200 267 100 c 25
 211 100 156 100 100 100 c 9
EndSplineSet
EndChar

StartChar: uni231B
Encoding: 8987 8987 237
Width: -940
Flags: HW
HStem: -100 300<-530 -480 -330 -180 -30 20> -100 200<-430 -330 -180 -80> -100 100<-580 -530 20 70> 200 100<-430 -380 -130 -80> 400 100<-430 -380 -130 -80> 600 200<-430 -80> 700 100<-580 -530 20 70>
VStem: -530 100<100 200 500 600> -480 150<200 300> -180 150<200 300> -80 100<100 200 500 600>
LayerCount: 2
Back
Fore
SplineSet
-413 100 m 13
 -391 100 -369 100 -347 100 c 25
 -347 133 -347 167 -347 200 c 25
 -369 200 -391 200 -413 200 c 25
 -413 167 -413 133 -413 100 c 13
-513 300 m 9
 -513 267 -513 233 -513 200 c 25
 -480 200 -446 200 -413 200 c 25
 -413 233 -413 267 -413 300 c 25
 -446 300 -480 300 -513 300 c 9
-580 100 m 9
 -558 100 -535 100 -513 100 c 25
 -513 133 -513 167 -513 200 c 25
 -535 200 -558 200 -580 200 c 25
 -580 167 -580 133 -580 100 c 9
-480 400 m 9
 -469 400 -458 400 -447 400 c 25
 -447 433 -447 467 -447 500 c 25
 -414 500 -380 500 -347 500 c 25
 -347 533 -347 567 -347 600 c 25
 -425 600 -502 600 -580 600 c 25
 -580 567 -580 533 -580 500 c 25
 -547 500 -513 500 -480 500 c 25
 -480 467 -480 433 -480 400 c 9
-680 -100 m 9
 -680 -67 -680 -33 -680 0 c 25
 -669 0 -658 0 -647 0 c 25
 -647 67 -647 133 -647 200 c 25
 -636 200 -624 200 -613 200 c 25
 -613 233 -613 267 -613 300 c 25
 -591 300 -569 300 -547 300 c 25
 -547 333 -547 367 -547 400 c 25
 -569 400 -591 400 -613 400 c 25
 -613 433 -613 467 -613 500 c 25
 -624 500 -636 500 -647 500 c 25
 -647 567 -647 633 -647 700 c 25
 -658 700 -669 700 -680 700 c 25
 -680 733 -680 767 -680 800 c 25
 -536 800 -391 800 -247 800 c 25
 -247 767 -247 733 -247 700 c 25
 -258 700 -269 700 -280 700 c 25
 -280 633 -280 567 -280 500 c 25
 -291 500 -302 500 -313 500 c 25
 -313 467 -313 433 -313 400 c 25
 -335 400 -358 400 -380 400 c 25
 -380 367 -380 333 -380 300 c 25
 -358 300 -335 300 -313 300 c 25
 -313 267 -313 233 -313 200 c 25
 -302 200 -291 200 -280 200 c 25
 -280 133 -280 67 -280 0 c 25
 -269 0 -258 0 -247 0 c 25
 -247 -33 -247 -67 -247 -100 c 25
 -391 -100 -536 -100 -680 -100 c 9
EndSplineSet
EndChar

